<svg transform="scale(1)" id="_0420_lollipop" data-name="0420_lollipop" xmlns="http://www.w3.org/2000/svg" viewBox="0 0 500 500" class="show_show__wrapper__graphic__5Waiy "><title>React</title><defs><style>.cls-1{fill:#fff;}.cls-2{fill:#231f20;}.cls-3{fill:#d1d3d4;}.cls-4{fill:#68e1fd;}</style></defs><g id="Candy_2" data-name="Candy #2"><path class="cls-1" d="M451,146.6S374.7,130.29,368.2,113c-2.81-7.51-12.37-10.16-19.6-9.4-5.63.59-11.3,2.25-16.87,1.2-7.14-1.35-12.88-7-20-8.51-11.3-2.5-23.11,5.71-34.25,2.59-7.1-2-12.58-8.31-19.87-9.45-3.37,9-2.66,22-3.65,31.67-1.32,13.12-2.52,26.24-3.5,39.38-1.62,21.83-5.48,47.18-.34,68.79,4.42,18.58,22.24,40.82,7.43,58.21-6.5,7.63-18.32,11.74-27.34,16.09,1.39,3.74,5.94,5.22,9.94,5.29s8.1-.77,11.91.41c11.1,3.44,13,21.17,24.42,23.56a22,22,0,0,0,6.44.08L304,331c8.42-.73,2.57-9.19,0-13.16-3.16-4.8-7.9-12.31-8.65-18.09-.72-5.6,4.93-8.38,9.74-11.16,9.84-5.69,21.14-8.41,32.21-10.5,12.77-2.4,22.22-5.88,32.19-14.24,7.45-6.24,14-13.69,20.2-21.14C413.8,213.66,433.91,180.3,451,146.6Z"></path><path class="cls-2" d="M257.64,89.38c7.29,1.14,12.77,7.47,19.87,9.45a20.42,20.42,0,0,0,5.52.72c7.94,0,16.11-3.79,24.11-3.79a21.2,21.2,0,0,1,4.62.48c7.09,1.56,12.83,7.16,20,8.51a21.12,21.12,0,0,0,3.88.34c4.31,0,8.66-1.09,13-1.54a21.65,21.65,0,0,1,2.44-.13c6.79,0,14.66,2.83,17.16,9.53C374.7,130.29,451,146.6,451,146.6c-17,33.7-37.15,67.06-61.29,96.14-6.19,7.45-12.75,14.9-20.2,21.14-10,8.36-19.42,11.84-32.19,14.24-11.07,2.09-22.37,4.81-32.21,10.5-4.81,2.78-10.46,5.56-9.74,11.16.75,5.78,5.49,13.29,8.65,18.09,2.62,4,8.47,12.43,0,13.16L283,332.86c-1.16.1-2.34.2-3.51.2a13.73,13.73,0,0,1-2.93-.28c-11.37-2.39-13.32-20.12-24.42-23.56a16.86,16.86,0,0,0-5-.63c-2.15,0-4.34.22-6.49.22h-.47c-4-.07-8.55-1.55-9.94-5.29,9-4.35,20.84-8.46,27.34-16.09,14.81-17.39-3-39.63-7.43-58.21-5.14-21.61-1.28-47,.34-68.79,1-13.14,2.18-26.26,3.5-39.38,1-9.69.28-22.65,3.65-31.67m0-1.4a1.41,1.41,0,0,0-1.31.91c-2.43,6.51-2.8,14.72-3.15,22.65-.15,3.34-.29,6.49-.58,9.37-1.45,14.37-2.6,27.26-3.5,39.42-.3,3.94-.66,7.92-1,12.13-1.73,19.26-3.53,39.16.73,57.09,1.26,5.3,3.52,10.72,5.91,16.46,5.86,14.08,11.92,28.63,1.81,40.52-5,5.84-13.54,9.68-21.09,13.07-2,.91-3.95,1.77-5.79,2.66a1.39,1.39,0,0,0-.7,1.74c1.65,4.47,6.88,6.14,11.22,6.21h.5c1.11,0,2.24,0,3.32-.11s2.13-.11,3.17-.11a15.26,15.26,0,0,1,4.54.57c4.92,1.52,7.92,6.22,11.09,11.2,3.47,5.43,7.05,11.05,13.45,12.39a15.24,15.24,0,0,0,3.22.31c1.25,0,2.52-.11,3.63-.21l9.72-.84,11.35-1c2.65-.23,4.39-1.19,5.2-2.85,1.71-3.54-1.71-8.71-4-12.13l-.23-.34c-2.3-3.49-7.68-11.65-8.43-17.5-.52-4,2.85-6.22,8-9.19l1-.58c9.82-5.67,21.07-8.32,31.77-10.33,12-2.25,22.15-5.59,32.83-14.55,7.71-6.46,14.35-14.07,20.38-21.32,21.87-26.34,42-57.87,61.46-96.4a1.4,1.4,0,0,0,0-1.23,1.42,1.42,0,0,0-1-.77c-21-4.49-76.63-19.14-81.74-32.77C366.63,104.75,357.76,102,351,102c-.88,0-1.74,0-2.58.13-1.63.18-3.27.44-4.86.69a52.46,52.46,0,0,1-8,.85,19.58,19.58,0,0,1-3.62-.32c-3.44-.65-6.54-2.35-9.83-4.16a38.78,38.78,0,0,0-10.1-4.34,22.24,22.24,0,0,0-4.92-.51,55.28,55.28,0,0,0-12.42,1.93A51.62,51.62,0,0,1,283,98.15a18.74,18.74,0,0,1-5.14-.67,34.18,34.18,0,0,1-8.72-4.39c-3.48-2.18-7.08-4.43-11.31-5.09l-.22,0Z"></path><path class="cls-1" d="M304.64,242.3,233.78,408.71s-1.52,3.59-7.8.92-4.75-6.26-4.75-6.26L292.09,237Z"></path><path class="cls-2" d="M292.09,237l12.55,5.35L233.78,408.71s-.81,1.91-3.67,1.91a10.81,10.81,0,0,1-4.13-1c-6.28-2.68-4.75-6.26-4.75-6.26L292.09,237m0-1.4a1.45,1.45,0,0,0-1.29.86L219.94,402.82a4.64,4.64,0,0,0,0,3.11c.67,2,2.52,3.71,5.51,5a12,12,0,0,0,4.68,1.11,5.2,5.2,0,0,0,5-2.76l70.86-166.41a1.41,1.41,0,0,0-.74-1.84l-12.55-5.34a1.33,1.33,0,0,0-.55-.12Z"></path><path class="cls-3" d="M223.76,407.29a.66.66,0,0,1-.27-.06.7.7,0,0,1-.37-.92l66.74-156.75a.71.71,0,0,1,.92-.37.7.7,0,0,1,.37.92L224.41,406.86A.71.71,0,0,1,223.76,407.29Z"></path><path class="cls-3" d="M228.9,409.48a.66.66,0,0,1-.27-.06.7.7,0,0,1-.37-.92L295,251.75a.7.7,0,1,1,1.29.55L229.55,409.05A.71.71,0,0,1,228.9,409.48Z"></path><path class="cls-4" d="M395.53,213a71.54,71.54,0,0,1-31.61,34.87h0a71.84,71.84,0,1,1,35.28-80.19h0A71.57,71.57,0,0,1,395.53,213Z"></path><path class="cls-2" d="M329.47,113a71.9,71.9,0,0,1,69.72,54.69h0a71.82,71.82,0,0,1-35.27,80.17h0A71.84,71.84,0,1,1,329.47,113m0-1.4h0a73.26,73.26,0,1,0,35.08,137.52l0,0a73.21,73.21,0,0,0,36-81.74v-.05a73.29,73.29,0,0,0-71.07-55.71Z"></path><path class="cls-1" d="M319.52,244.62c-20.64,1.73-36.4-7-46.52-15.35a71.86,71.86,0,0,1,27.81-110.36c-26.92,20.68-36.6,50-31.26,70.92,6.17,24.16,20.75,32.77,38.8,37.46s33.53-6.37,39.47-18.2-.71-23.64-8.63-26.11a11.52,11.52,0,0,0-12.39,3.09c-13.35-18.54,9.08-29,26.7-19.14s15.61,29.38,13,40.52S357.69,241.42,319.52,244.62Z"></path><path class="cls-1" d="M376,233.64c10.23-14.19,13.37-35.6,10.22-50.7s-16.26-30-30.48-34.53-30.81-3.54-41.88,4.91-17.09,21.15-13.6,29.82,12.8,15.62,20.16,11c7.15-4.52,6.47-7.84,6.42-8,.27.24,12.24,11.24,3.74,20.73-6.28,7-22.07,10.36-31.3,2.54-15.13-12.82-23.32-28.18-14.11-51.19s28.59-33.95,59.57-30.29c26.68,3.16,45.09,23.94,54.49,39.77h0a71.82,71.82,0,0,1-35.27,80.17A111.43,111.43,0,0,0,376,233.64Z"></path><rect class="cls-2" x="265.17" y="286" width="23.37" height="10.8" rx="3.86" transform="translate(126.75 -81.47) rotate(21.61)"></rect><path class="cls-2" d="M269.63,285.43s-48.52,24.65-58.08,38.36l12.21,9.27s35.93-39.24,45.15-41.67Z"></path><path class="cls-2" d="M238.82,244.84c-7.08,4.11-18.51,10.57-17.75,16.86.36,3,47.84,29.69,47.84,29.69l.72-6S245.9,240.73,238.82,244.84ZM228.37,258c3.11-2.9,30.28,26,30.28,26C252.12,278.05,222.63,263.36,228.37,258Z"></path><path class="cls-2" d="M285.65,291s10,53.5,5,69.43l-14.8-4s9.21-52.4,5.51-61.19Z"></path><path class="cls-2" d="M285.65,291l-4.3,4.21s50.12,21.37,52.7,19.83c5.45-3.23,3.61-16.23,2.55-24.35S285.65,291,285.65,291Zm7.81,7.84s39.48,3.92,39.07,8.16C331.78,314.81,302.17,300.38,293.46,298.83Z"></path><path class="cls-3" d="M293.46,286.13a.71.71,0,0,1-.49-.2.71.71,0,0,1,0-1c.43-.45,10.91-11,39.43-17.25a.69.69,0,0,1,.83.53.7.7,0,0,1-.54.83c-28,6.15-38.61,16.76-38.72,16.86A.68.68,0,0,1,293.46,286.13Z"></path><path class="cls-3" d="M269.63,265.56a.67.67,0,0,1-.34-.09.69.69,0,0,1-.27-1c.76-1.66-.48-19.86-7.35-31.63a.7.7,0,0,1,.25-1,.71.71,0,0,1,1,.25c7.11,12.19,8.47,31.05,7.36,33A.71.71,0,0,1,269.63,265.56Z"></path><path class="cls-3" d="M416.36,176.87a.71.71,0,0,1-.69-.58l-4.73-27.6a.72.72,0,0,1,.58-.81.7.7,0,0,1,.8.58l4.73,27.59a.7.7,0,0,1-.57.81Z"></path><path class="cls-3" d="M266.08,124.05a1,1,0,0,1-.24,0,.7.7,0,0,1-.41-.9l3.8-10.4a.7.7,0,0,1,.9-.42.7.7,0,0,1,.42.9l-3.81,10.4A.7.7,0,0,1,266.08,124.05Z"></path></g><g id="Candy_1" data-name="Candy #1"><path class="cls-1" d="M205.34,140.09c-13,1.48-26-2.38-38.88-4.78-13-2.42-27.46-3.11-38.59,4.09-2.93,1.9-5.55,4.3-8.68,5.84-6.79,3.34-14.92,2.19-22.16,4.38-9.92,3-16.82,11.69-23.92,19.23-3.76,4-7.94,7.82-12.8,10.42-3.14,1.68-9,2.35-10.67,5.94-3.32,7.1,8.54,17.2,12.22,22.55q9.47,13.77,19.28,27.31c10.89,15,22.26,33.42,37.39,44.55,13,9.56,36.66,14.16,36.62,33.48,0,8.47-5.39,17.58-8.83,25.32,2.94,1.65,6.69.12,9.3-2s4.81-4.93,7.91-6.25c9-3.85,20,6.51,28.63,1.84a18.41,18.41,0,0,0,4.2-3.48L209,315.81c5-5.07-3.37-7.33-7.23-8.46-4.66-1.36-11.83-3.61-15.48-6.93s-1.4-8.1.19-12.53c3.23-9,9-17,15-24.38,6.92-8.53,11.11-15.94,13-26.79,4.53-26.42-.3-53.37,8.38-79.16,1.63-4.86,3.48-10.61.43-14.72-3.7-5-11.3-3.56-17.47-2.8Z"></path><path class="cls-2" d="M150.21,133.63a90.12,90.12,0,0,1,16.25,1.68c10.91,2,21.87,5.11,32.87,5.11a55,55,0,0,0,6-.33l.43-.05a70.59,70.59,0,0,1,8.43-.79c3.62,0,7,.77,9,3.59,3,4.11,1.2,9.86-.43,14.72-8.68,25.79-3.85,52.74-8.38,79.16-1.86,10.85-6.05,18.26-13,26.79-6,7.4-11.8,15.34-15,24.38-1.59,4.43-3.71,9.31-.19,12.53s10.82,5.57,15.48,6.93c3.86,1.13,12.26,3.39,7.23,8.46l-12.59,12.7a18.41,18.41,0,0,1-4.2,3.48,10.65,10.65,0,0,1-5.16,1.24c-6.06,0-12.75-4-18.92-4a11.38,11.38,0,0,0-4.55.88c-3.1,1.32-5.3,4.11-7.91,6.25a11,11,0,0,1-6.54,2.72,5.53,5.53,0,0,1-2.76-.7c3.44-7.74,8.82-16.85,8.83-25.32,0-19.32-23.61-23.92-36.62-33.48C103.4,268.49,92,250,81.14,235.07q-9.84-13.51-19.28-27.31c-3.68-5.35-15.54-15.45-12.22-22.55,1.68-3.59,7.53-4.26,10.67-5.94,4.86-2.6,9-6.44,12.8-10.42,7.1-7.54,14-16.23,23.92-19.23,7.24-2.19,15.37-1,22.16-4.38,3.13-1.54,5.75-3.94,8.68-5.84,6.62-4.28,14.39-5.77,22.34-5.77m0-1.4v0c-9.3,0-16.86,2-23.1,6-1.13.73-2.21,1.53-3.26,2.3a34.1,34.1,0,0,1-5.28,3.45c-3.67,1.81-7.78,2.22-12.13,2.66a51.92,51.92,0,0,0-9.82,1.64c-9,2.71-15.45,9.75-21.71,16.57-.94,1-1.88,2-2.82,3-2.84,3-7.23,7.35-12.44,10.14a24.18,24.18,0,0,1-3.27,1.3c-3.09,1.06-6.59,2.27-8,5.29-2.9,6.2,3.49,13.53,8.63,19.42a56.58,56.58,0,0,1,3.71,4.51c6.91,10.06,13.22,19,19.29,27.34,2,2.7,3.91,5.46,6,8.39,9.42,13.38,19.16,27.22,31.73,36.47a94.77,94.77,0,0,0,12.85,7.4C142,294,153.78,300,153.75,313.09c0,6.45-3.42,13.58-6.43,19.88-.81,1.69-1.58,3.3-2.28,4.88a1.4,1.4,0,0,0,.59,1.79,7,7,0,0,0,3.45.88,12.26,12.26,0,0,0,7.43-3c.85-.69,1.64-1.44,2.41-2.17a18.56,18.56,0,0,1,5.16-3.87,9.94,9.94,0,0,1,4-.77c2.89,0,6.06,1,9.13,1.93,3.23,1,6.56,2,9.79,2a11.92,11.92,0,0,0,5.83-1.41,19.66,19.66,0,0,0,4.52-3.72l6.3-6.35,6.29-6.35c1.64-1.65,2.26-3.3,1.85-4.89-.87-3.34-6-4.82-9.34-5.8l-.34-.1c-3.37-1-11.27-3.3-14.92-6.63-2.41-2.19-1.48-5.42.22-10.08l.33-.93c3.22-9,9-16.84,14.81-24,6.51-8,11.26-15.77,13.26-27.43,1.87-10.91,2.16-22,2.44-32.77.41-15.31.82-31.15,5.88-46.19,1.6-4.73,3.78-11.21.24-16-2.08-2.8-5.4-4.16-10.17-4.16a55.49,55.49,0,0,0-7.18.62l-1.43.18-.41,0a50.32,50.32,0,0,1-5.85.33c-8.09,0-16.36-1.74-24.35-3.41-2.71-.57-5.51-1.16-8.27-1.67a90.13,90.13,0,0,0-16.5-1.71Z"></path><path class="cls-1" d="M160.83,258.25l45.3,146.07s1,3.15-4.53,4.86-6.49-1.44-6.49-1.44l-45.3-146.07Z"></path><path class="cls-2" d="M160.83,258.25l45.3,146.07s1,3.15-4.53,4.86a10.23,10.23,0,0,1-2.94.51c-2.94,0-3.55-1.95-3.55-1.95l-45.3-146.07,11-3.42m0-1.4a1.52,1.52,0,0,0-.42.06l-11,3.42a1.39,1.39,0,0,0-.92,1.75l45.31,146.08c.33,1.09,1.74,2.93,4.88,2.93a11.42,11.42,0,0,0,3.35-.57c4.71-1.46,6.13-4.45,5.46-6.61L162.16,257.84a1.4,1.4,0,0,0-.68-.83,1.52,1.52,0,0,0-.65-.16Z"></path><path class="cls-3" d="M198.5,409.13a.69.69,0,0,1-.66-.49L155.16,271.05a.7.7,0,1,1,1.34-.42l42.67,137.59a.7.7,0,0,1-.46.88Z"></path><path class="cls-3" d="M203,407.73a.7.7,0,0,1-.67-.49L159.67,269.65a.72.72,0,0,1,.46-.88.71.71,0,0,1,.88.47l42.68,137.58a.71.71,0,0,1-.46.88A.76.76,0,0,1,203,407.73Z"></path><path class="cls-4" d="M203.39,189.62a60.49,60.49,0,0,1-1.32,39.78h0a60.74,60.74,0,1,1-21.09-71h0A60.53,60.53,0,0,1,203.39,189.62Z"></path><path class="cls-2" d="M145.39,146.86A60.86,60.86,0,0,1,181,158.4h0a60.73,60.73,0,0,1,21.09,71h0a60.81,60.81,0,0,1-56.71,39,59.91,59.91,0,0,1-12.07-1.22,60.76,60.76,0,0,1,12.1-120.29m0-1.4h0a62.18,62.18,0,0,0-18.43,2.8A62.16,62.16,0,0,0,86,226a62.15,62.15,0,0,0,117.35,3.91v0a62.16,62.16,0,0,0-21.58-72.63l0,0a62.65,62.65,0,0,0-36.37-11.78Z"></path><path class="cls-1" d="M171.69,251.61c-12.37,12.4-27.3,15.4-38.4,15.54a60.76,60.76,0,0,1-42.41-86.38C84.82,208.83,94.62,233,109.5,243.6c17.19,12.22,31.31,9.79,45.51,2.94s18.14-22.44,15.5-33.32-13.38-14.86-19.85-12.12a9.73,9.73,0,0,0-6.29,8.77c-18.75-4.66-10-23.69,6.75-27s26.14,10.42,30.52,19.05S194.56,228.67,171.69,251.61Z"></path><path class="cls-1" d="M202.08,213.66c-1.16-14.74-10.85-30.26-21.13-38.28s-26.88-10.43-38.54-5.6-21.8,14.56-24.32,26.07.54,23,7.53,26.66,16.8,3.08,19-3.94c2.14-6.82-.12-8.59-.26-8.69.31,0,14,.55,13.75,11.33-.22,7.95-8.57,18.74-18.8,18.75-16.77,0-30.44-5.43-37.09-25.3s-.13-37.53,21.86-52.11C143,150,166.26,153.33,181,158.4h0a60.73,60.73,0,0,1,21.09,71A93.57,93.57,0,0,0,202.08,213.66Z"></path><rect class="cls-2" x="159.87" y="300.55" width="19.76" height="9.13" rx="3.26" transform="translate(-88.82 70.48) rotate(-18.69)"></rect><path class="cls-2" d="M161.83,305.21S135.64,346.35,137,360.42l13.8,2.56s9.24-46.92,13.86-53.53Z"></path><path class="cls-2" d="M119.76,295.89c-2.32,6.52-7.84,20.24-3.91,23.88,1.86,1.73,48.78-10.32,48.78-10.32l-2.8-4.24S122.08,289.36,119.76,295.89Zm.47,14.2c.41-3.58,33.74.21,33.74.21C146.5,310,119.45,316.69,120.23,310.09Z"></path><path class="cls-2" d="M175.2,300s28.37,33.1,33.83,46.12L198.51,352s-16.59-43.25-23.77-46.9Z"></path><path class="cls-2" d="M175.2,300l-.46,5.06s44-13.62,44.83-16C221.31,284,213,276.64,207.9,272S175.2,300,175.2,300Zm9.33.79s27.6-19.07,29.66-16.11C218,290.17,191,297.06,184.53,300.83Z"></path><path class="cls-3" d="M73,208.31a.7.7,0,0,1-.58-.3c-5.14-7.61-8.25-22.44-8.38-23.07a.69.69,0,0,1,.54-.82.7.7,0,0,1,.83.54c0,.15,3.18,15.19,8.17,22.56a.69.69,0,0,1-.19,1A.71.71,0,0,1,73,208.31Z"></path><path class="cls-3" d="M178,295h0a.69.69,0,0,1-.66-.73c0-.22,1.19-22.17,12.24-36.46a.7.7,0,0,1,1.11.86c-10.78,13.95-11.95,35.45-12,35.66A.7.7,0,0,1,178,295Z"></path><path class="cls-3" d="M206.13,170.56a.69.69,0,0,1-.65-.43l-6.59-16a.7.7,0,0,1,1.3-.53l6.59,16a.72.72,0,0,1-.38.92A.86.86,0,0,1,206.13,170.56Z"></path></g></svg>