<svg width="197" height="233" viewBox="0 0 197 233" fill="none" xmlns="http://www.w3.org/2000/svg">
<g clip-path="url(#clip0_224_527)">
<path d="M40.0234 57.8129C39.9532 57.8129 39.883 57.8129 39.8128 57.7427L25.9834 51.3545C25.7026 51.2141 25.6324 50.9333 25.7728 50.7227C25.9132 50.5121 26.194 50.3717 26.4046 50.5121L40.234 56.9003C40.4446 57.0407 40.585 57.3215 40.4446 57.5321C40.3744 57.7427 40.234 57.8129 40.0234 57.8129Z" fill="#D1D3D4"/>
<path d="M49.1494 42.2985C49.009 42.2985 48.8686 42.2283 48.7984 42.1581L37.4962 29.6625C37.2856 29.5221 37.2154 29.1711 37.3558 28.9605C37.4962 28.7499 37.8472 28.6797 38.0578 28.8201C38.128 28.8903 38.128 28.8903 38.1982 28.9605L49.5004 41.4561C49.711 41.6667 49.711 41.9475 49.5004 42.1581C49.4302 42.2283 49.2898 42.2985 49.1494 42.2985Z" fill="#D1D3D4"/>
<path d="M63.5404 29.8733C63.3298 29.8733 63.1192 29.7329 63.049 29.4521L60.8728 18.9221C60.8026 18.6413 61.0132 18.4306 61.2238 18.3604C61.5046 18.2902 61.7152 18.5008 61.7854 18.7114L63.9616 29.2414C64.0318 29.5222 63.8212 29.7329 63.5404 29.8031V29.8733Z" fill="#D1D3D4"/>
<path d="M80.8096 232.681C112.33 232.681 137.882 230.23 137.882 227.206C137.882 224.182 112.33 221.73 80.8096 221.73C49.2893 221.73 23.737 224.182 23.737 227.206C23.737 230.23 49.2893 232.681 80.8096 232.681Z" fill="#D1D3D4"/>
<path d="M163.365 124.924C163.365 124.783 163.295 124.713 163.224 124.573C162.382 122.537 152.343 109.55 151.992 109.059C151.852 108.778 132.617 118.395 132.617 118.395L127.703 99.4411L110.083 114.745L104.256 98.1775L88.6018 110.603L74.2108 87.5773L51.5362 103.513L40.3042 82.8037L17.5594 96.9841H17.4892C17.4892 96.9841 26.4046 184.945 64.7338 193.088C80.1778 196.387 129.107 202.074 147.149 186.7C165.401 171.256 161.61 127.521 162.312 126.679C163.084 125.907 163.435 125.345 163.365 124.924Z" fill="#231F20"/>
<path d="M104.186 197.37C87.268 197.37 71.0518 194.983 64.6636 193.579C53.6422 191.193 37.9876 180.382 26.3344 142.123C21.982 127.381 18.823 112.288 17.068 97.0544C17.068 96.8438 17.1382 96.6332 17.3488 96.563L40.0234 82.3826C40.234 82.2422 40.585 82.3124 40.7254 82.523C40.7254 82.523 40.7254 82.523 40.7254 82.5932L51.6766 102.811L73.8598 87.2264C74.0704 87.086 74.4214 87.1562 74.5618 87.3668L88.6018 109.901L103.835 97.8266C103.976 97.7564 104.116 97.6862 104.256 97.7564C104.397 97.8266 104.537 97.8968 104.607 98.0372L110.223 113.973L127.352 99.1604C127.493 99.02 127.633 99.02 127.844 99.0902C127.984 99.1604 128.124 99.3008 128.195 99.4412L132.968 117.834C152.063 108.286 152.133 108.427 152.484 108.988C152.554 109.129 153.396 110.182 154.309 111.375C158.521 116.921 163.014 122.888 163.716 124.432C163.856 124.573 163.926 124.783 163.926 124.924C163.926 124.994 163.926 124.994 163.926 125.064C163.926 125.485 163.646 126.047 162.873 126.96C162.803 127.311 162.803 128.644 162.873 130.189C162.944 141 163.084 173.994 147.64 187.121C138.163 195.054 120.894 197.37 104.186 197.37ZM18.121 97.265C18.7528 103.021 28.5106 184.875 64.8742 192.667C77.5102 195.334 128.335 202.144 146.868 186.349C161.961 173.502 161.82 140.859 161.75 130.189C161.75 126.96 161.75 126.679 161.961 126.398L162.031 126.328C162.733 125.485 162.873 125.134 162.873 125.064C162.873 125.064 162.873 124.994 162.803 124.994L162.733 124.924C162.101 123.52 156.275 115.728 153.467 112.007L151.782 109.761C149.886 110.463 139.637 115.517 132.828 118.957C132.687 119.027 132.547 119.027 132.407 118.957C132.266 118.887 132.196 118.746 132.126 118.606L127.422 100.424L110.434 115.166C110.294 115.306 110.153 115.306 110.013 115.236C109.872 115.166 109.732 115.096 109.662 114.955L104.046 99.02L88.8826 111.024C88.7422 111.094 88.6018 111.165 88.4614 111.094C88.321 111.094 88.1806 110.954 88.1104 110.884L74.0002 88.2794L51.7468 103.864C51.6064 103.934 51.466 104.004 51.3256 103.934C51.1852 103.934 51.0448 103.794 51.0448 103.653L40.1638 83.5058L18.121 97.265Z" fill="#231F20"/>
<path d="M97.3113 171.938C123.881 166.794 141.649 143.152 136.998 119.133C132.348 95.1144 107.039 79.8137 80.4699 84.9581C53.9007 90.1026 36.1322 113.744 40.7828 137.763C45.4335 161.782 70.7421 177.083 97.3113 171.938Z" fill="white"/>
<path d="M86.9872 173.432C77.7208 173.502 68.5948 170.975 60.592 166.201C49.7812 159.673 42.6208 149.564 40.3042 137.84C37.9876 126.117 40.936 114.043 48.5176 103.934C56.0992 93.8251 67.4014 86.9455 80.3182 84.4183C107.135 79.2235 132.687 94.7377 137.391 119.027C142.094 143.316 124.123 167.254 97.3066 172.449C94.0072 173.081 90.4972 173.432 86.9872 173.432ZM90.778 84.4183C87.3382 84.4183 83.9686 84.7693 80.599 85.4011C67.8928 87.8581 56.8012 94.6675 49.36 104.566C41.9188 114.464 39.1108 126.187 41.3572 137.7C43.6036 149.213 50.6236 159.041 61.1536 165.429C71.6836 171.817 84.5302 173.993 97.3066 171.536C123.561 166.482 141.182 143.035 136.619 119.308C132.547 98.5285 113.031 84.4183 90.778 84.4183Z" fill="#231F20"/>
<path d="M68.7352 99.7222C68.7352 99.7222 18.823 65.1838 16.2958 68.062C13.7686 70.9402 -1.4648 109.901 44.1652 125.556" fill="white"/>
<path d="M44.1652 125.977C44.095 125.977 44.095 125.977 44.0248 125.977C26.7556 120.08 16.2256 110.252 12.6454 96.7737C8.85458 82.5933 14.4706 69.3255 15.9448 67.7109C16.5766 67.0089 17.77 65.6049 43.744 82.3827C56.38 90.5961 68.8756 99.2307 69.016 99.3009C69.2266 99.4413 69.367 99.7221 69.2266 100.003C69.0862 100.213 68.8054 100.354 68.5246 100.213C68.5246 100.213 68.4544 100.213 68.4544 100.143C45.0076 83.9271 18.823 67.2897 16.6468 68.4129C15.313 69.9573 9.90759 82.8039 13.6282 96.5631C17.068 109.691 27.4576 119.238 44.3758 125.064C44.6566 125.135 44.797 125.415 44.6566 125.696C44.5162 125.907 44.3056 125.977 44.1652 125.977Z" fill="#231F20"/>
<path d="M102.852 87.4371C102.852 87.4371 134.723 43.6323 136.689 46.1595C138.654 48.6867 169.262 98.5287 129.739 109.199" fill="white"/>
<path d="M129.739 109.761C129.528 109.761 129.318 109.62 129.248 109.41C129.177 109.129 129.318 108.848 129.599 108.778C139.216 106.18 145.394 100.986 147.921 93.404C153.818 75.9242 138.935 50.0906 136.338 46.5806C133.6 47.2124 114.646 72.0632 103.203 87.788C103.063 87.9986 102.712 88.0688 102.501 87.9284C102.291 87.788 102.221 87.437 102.431 87.2264C107.486 80.2766 132.828 45.668 136.478 45.668C136.759 45.668 136.97 45.7382 137.11 45.9488C138.023 47.1422 142.515 54.5132 145.955 63.4286C149.184 71.7824 152.273 83.8568 148.974 93.755C146.306 101.688 139.918 107.093 129.95 109.761C129.809 109.761 129.809 109.761 129.739 109.761Z" fill="#231F20"/>
<path d="M79.8268 109.62C95.2574 109.62 107.766 97.1114 107.766 81.6808C107.766 66.2502 95.2574 53.7412 79.8268 53.7412C64.3962 53.7412 51.8872 66.2502 51.8872 81.6808C51.8872 97.1114 64.3962 109.62 79.8268 109.62Z" fill="white"/>
<path d="M79.8268 110.112C64.102 110.112 51.3958 97.4053 51.3958 81.6805C51.3958 65.9557 64.102 53.2495 79.8268 53.2495C93.4456 53.2495 105.099 62.9371 107.696 76.2751C110.645 91.7191 100.606 106.602 85.162 109.62C83.4772 109.901 81.652 110.112 79.8268 110.112ZM79.897 54.2323C78.142 54.2323 76.387 54.3727 74.632 54.7237C59.7496 57.6019 50.062 71.9929 52.9402 86.8753C55.8184 101.758 70.2094 111.445 85.0918 108.567C99.9742 105.689 109.662 91.2979 106.784 76.4155C104.327 63.5689 93.0244 54.2323 79.897 54.2323Z" fill="#231F20"/>
<path d="M73.579 85.401C73.4386 86.0328 79.2652 94.1058 83.1262 93.3336C86.4256 92.7018 88.321 82.7334 88.0402 82.1016L73.579 85.401Z" fill="white"/>
<path d="M82.5646 93.8953C80.4586 93.8953 78.0718 91.9297 76.4572 90.2449C75.1936 88.9813 72.877 86.1031 73.0876 85.3309C73.1578 85.1203 73.2982 84.9799 73.4386 84.9799L87.8296 81.7507C88.0402 81.6805 88.2508 81.8209 88.3912 82.0315C88.7422 82.7335 87.7594 87.6475 86.2852 90.6661C85.3726 92.6317 84.3196 93.7549 83.1262 93.9655C82.9858 93.8953 82.7752 93.8953 82.5646 93.8953ZM74.2108 85.7521C75.1936 87.5071 79.9672 93.4741 82.9858 92.8423C85.513 92.3509 87.3382 84.8395 87.4786 82.7335L74.2108 85.7521Z" fill="#231F20"/>
<path d="M88.0402 82.1016C88.0402 82.1016 78.5632 77.328 73.6492 85.3308C73.6492 85.3308 77.7208 89.1918 82.003 88.3494C85.2322 87.7878 88.0402 82.1016 88.0402 82.1016Z" fill="white"/>
<path d="M80.7394 89.0516C76.8082 89.0516 73.4386 85.8926 73.2982 85.7522C73.1578 85.6118 73.0876 85.331 73.228 85.1204C78.3526 76.7666 88.1806 81.6104 88.2508 81.6806C88.4614 81.821 88.6018 82.1018 88.4614 82.3124C88.321 82.523 85.5832 88.2092 82.0732 88.9112C81.652 88.9814 81.1606 89.0516 80.7394 89.0516ZM74.2108 85.2608C75.1936 86.1032 78.493 88.5602 81.8626 87.9284C84.3196 87.437 86.6362 83.6462 87.3382 82.3124C85.4428 81.5402 78.3526 79.013 74.2108 85.2608Z" fill="#231F20"/>
<path d="M70.3041 82.1379C71.0654 81.9905 71.4854 80.8527 71.2422 79.5966C70.999 78.3405 70.1847 77.4417 69.4234 77.5891C68.6621 77.7365 68.2421 78.8743 68.4853 80.1304C68.7285 81.3865 69.5428 82.2853 70.3041 82.1379Z" fill="#231F20"/>
<path d="M87.3652 78.843C88.1265 78.6956 88.5465 77.5578 88.3033 76.3017C88.0601 75.0455 87.2458 74.1467 86.4845 74.2941C85.7232 74.4415 85.3032 75.5793 85.5464 76.8355C85.7896 78.0916 86.6039 78.9904 87.3652 78.843Z" fill="#231F20"/>
<path d="M85.5832 56.8998C79.9672 52.758 73.3684 50.2308 66.4186 49.5288C66.1378 50.652 67.1206 51.5646 68.0332 52.2666L73.2982 56.5488C67.8928 53.8812 61.5046 54.3024 56.5204 57.6018C56.0992 57.8826 55.678 58.3038 55.8886 58.725C55.9588 58.9356 56.0992 59.076 56.3098 59.2164C59.8198 61.884 64.102 63.5688 68.5246 63.9198" fill="white"/>
<path d="M68.4544 64.4111C63.8914 64.0601 59.539 62.3753 55.9588 59.6375C55.678 59.4971 55.5376 59.2163 55.3972 58.9355C55.1866 58.3739 55.4674 57.7421 56.2396 57.2507C60.4516 54.5129 65.7166 53.6705 70.5604 55.0043L67.6822 52.6877C67.1206 52.1963 65.5762 51.0029 65.9272 49.4585C65.9974 49.2479 66.208 49.0373 66.4888 49.1075C73.5088 49.8095 80.1778 52.4069 85.864 56.5487C86.0746 56.6891 86.1448 57.0401 85.9342 57.2507C85.7236 57.4613 85.4428 57.5315 85.2322 57.3209C79.8268 53.3195 73.5088 50.8625 66.8398 50.0903C67.1206 50.8625 67.612 51.4943 68.314 51.9155L73.579 56.1977C73.7896 56.3381 73.7896 56.6189 73.6492 56.8295C73.5088 57.0401 73.228 57.1103 73.0174 56.9699C67.7524 54.4427 61.5748 54.7937 56.731 58.0229C56.38 58.2335 56.2396 58.5143 56.2396 58.5845C56.3098 58.6547 56.38 58.7249 56.5204 58.7951C59.9602 61.4627 64.102 63.0071 68.4544 63.3581C68.7352 63.4283 68.8756 63.6389 68.8756 63.9197C68.8756 64.2005 68.7352 64.4111 68.4544 64.4111Z" fill="#231F20"/>
<path d="M159.714 168.869C156.134 182.98 150.448 194.633 143.147 203.829C141.111 206.426 138.865 208.954 136.478 211.27C132.056 215.552 127.142 219.133 121.806 222.081C117.103 224.678 112.119 226.644 106.994 228.118C93.0244 232.049 77.6506 231.839 62.1364 227.908C41.0764 222.572 23.6668 211.2 12.9262 194.914C9.62681 189.929 7.02941 184.524 5.13401 178.838C3.58961 174.205 2.53661 169.431 1.90481 164.657C1.48361 161.007 1.27301 157.357 1.27301 153.706C1.41341 145.493 2.53661 137.35 4.57241 129.417C7.52081 118.115 11.8732 107.304 17.6296 97.125L26.545 133.559L31.0378 129.908L36.724 125.275L45.0076 118.536L46.6222 123.871L49.009 131.523L53.6422 146.546L68.0332 135.173L74.4916 130.119L78.4228 136.858L82.9156 144.721L89.1634 155.531L109.592 135.314L116.05 143.878L128.546 160.516L130.441 155.882L139.988 132.576L143.568 137.841L148.131 144.65L154.098 153.566L161.118 131.944L163.365 125.065C163.505 127.381 163.646 129.698 163.716 132.014C164.137 144.37 162.733 156.795 159.714 168.869Z" fill="#65E3FF"/>
<path d="M17.5594 96.9844L26.4748 133.418L30.9676 129.768L36.6538 125.135L44.9374 118.395L46.552 123.731L48.9388 131.382L53.572 146.475L67.963 135.103L74.4214 130.049L78.3526 136.788L82.8454 144.65L89.0932 155.461L109.521 135.243L116.05 143.878L128.546 160.515L130.441 155.882L139.988 132.576L143.568 137.841L148.131 144.65L154.098 153.566L161.118 131.944L163.365 125.064C163.505 127.381 163.646 129.698 163.716 132.014C164.067 144.44 162.733 156.865 159.714 168.939C156.134 183.05 150.448 194.703 143.147 203.899C141.111 206.496 138.865 209.024 136.408 211.34C131.985 215.622 127.071 219.203 121.736 222.151C117.033 224.748 112.049 226.714 106.924 228.188C99.9742 230.084 92.8138 231.066 85.6534 230.996C77.6506 230.996 69.718 229.943 62.0662 227.907C41.0062 222.572 23.5966 211.2 12.856 194.913C9.55661 189.929 6.95921 184.524 5.06381 178.838C3.51941 174.204 2.46641 169.431 1.83461 164.657C1.41341 161.007 1.20281 157.356 1.20281 153.706C1.34321 145.493 2.46641 137.349 4.50221 129.417C7.52081 118.044 11.8732 107.163 17.5594 96.9844ZM17.5594 96.0016C17.2084 96.0016 16.8574 96.2122 16.717 96.493C10.9606 106.742 6.53801 117.693 3.58961 129.066C1.48361 137.069 0.360411 145.352 0.220011 153.636C0.149811 157.356 0.360412 161.077 0.851812 164.727C1.48361 169.641 2.53661 174.485 4.08101 179.118C5.97641 184.875 8.64401 190.35 12.0136 195.405C22.7542 211.691 39.9532 223.204 61.7854 228.75C69.5776 230.786 77.5804 231.839 85.6534 231.839C92.9542 231.839 100.185 230.926 107.205 228.96C112.4 227.556 117.384 225.521 122.157 222.923C122.228 222.923 122.298 222.853 122.368 222.783C127.773 219.834 132.758 216.114 137.18 211.832C139.637 209.515 141.884 206.988 143.919 204.32C151.501 194.703 157.117 182.839 160.697 169.01C163.716 156.865 165.12 144.299 164.699 131.804C164.628 129.627 164.558 127.311 164.348 124.784C164.348 124.292 163.926 123.941 163.505 123.871H163.365C162.944 123.871 162.522 124.152 162.452 124.573L160.276 131.453L153.888 151.179L149.044 143.948L144.481 137.139L140.901 131.874C140.69 131.593 140.409 131.453 140.058 131.453H139.918C139.567 131.453 139.216 131.733 139.146 132.084L129.599 155.391L128.335 158.409L116.822 143.176L110.294 134.471C110.153 134.261 109.872 134.12 109.592 134.12H109.521C109.241 134.12 109.03 134.19 108.819 134.401L89.3038 153.706L83.6878 143.948L79.195 136.156L75.2638 129.417C75.1234 129.136 74.9128 128.996 74.632 128.925C74.5618 128.925 74.4916 128.925 74.4214 128.925C74.2108 128.925 74.0002 128.996 73.7896 129.136L67.3312 134.19L54.0634 144.72L49.8514 130.961L47.4646 123.309L45.7798 117.974C45.7096 117.693 45.4288 117.413 45.148 117.342C45.0778 117.342 44.9374 117.272 44.8672 117.272C44.6566 117.272 44.446 117.342 44.2354 117.483L35.9518 124.222L30.2656 128.855L26.9662 131.523L18.472 96.5632C18.4018 96.142 18.0508 95.8612 17.6296 95.791L17.5594 96.0016Z" fill="#231F20"/>
<path d="M48.9388 131.383C46.9732 132.787 44.6566 133.699 42.2698 134.05C37.9876 134.682 33.565 133.278 30.9676 129.838L36.6538 125.205C37.075 125.837 37.6366 126.328 38.3386 126.609C41.4274 127.943 44.3758 126.118 46.552 123.731L48.9388 131.383Z" fill="white"/>
<path d="M82.8454 144.58C76.387 145.072 70.069 141.913 68.0332 135.103L74.4916 130.049C74.5618 131.172 74.8426 132.295 75.1936 133.278C75.685 134.893 76.8784 136.156 78.4228 136.788L82.8454 144.58Z" fill="white"/>
<path d="M143.568 137.771L148.131 144.58C147.78 145.282 147.429 145.984 147.078 146.616C143.007 154.408 136.478 164.517 126.369 163.885C116.541 163.254 115.91 151.811 115.98 143.808L128.475 160.446L130.371 155.812C133.319 154.128 136.268 150.477 137.321 148.792C139.778 145.282 141.462 141.421 143.568 137.771Z" fill="white"/>
<path d="M163.716 131.944C162.873 131.804 162.031 131.804 161.189 131.874L163.435 124.995C163.575 127.311 163.716 129.628 163.716 131.944Z" fill="white"/>
<path d="M1.2028 153.636C1.1326 157.287 1.3432 161.007 1.8346 164.658C10.8202 173.222 20.7886 180.663 31.5292 186.841C47.4646 195.967 64.8742 201.653 82.8454 205.233C100.466 208.743 118.507 211.2 136.478 211.341C138.865 209.024 141.111 206.567 143.147 203.899C137.601 204.04 132.056 203.97 126.51 203.689C108.468 202.706 90.5674 199.968 73.0174 195.546C57.0118 191.614 41.8486 185.016 27.949 176.1C18.2614 169.642 9.2758 162.13 1.2028 153.636Z" fill="white"/>
<path d="M5.06384 178.838C6.95924 184.524 9.55664 189.93 12.856 194.914C17.9104 198.705 23.2456 202.215 28.7212 205.374C44.6566 214.5 62.0662 220.186 80.0374 223.766C88.9528 225.521 97.9385 227.065 106.994 228.118C112.189 226.714 117.103 224.678 121.806 222.081C104.397 221.028 87.1276 218.29 70.2796 214.008C54.274 210.077 39.0406 203.478 25.2112 194.563C18.0508 189.93 11.3116 184.664 5.06384 178.838Z" fill="white"/>
<path d="M92.3224 173.362C96.9361 173.362 100.676 169.622 100.676 165.009C100.676 160.395 96.9361 156.655 92.3224 156.655C87.7087 156.655 83.9686 160.395 83.9686 165.009C83.9686 169.622 87.7087 173.362 92.3224 173.362Z" fill="white"/>
<path d="M114.435 196.317C119.049 196.317 122.789 192.577 122.789 187.964C122.789 183.35 119.049 179.61 114.435 179.61C109.822 179.61 106.082 183.35 106.082 187.964C106.082 192.577 109.822 196.317 114.435 196.317Z" fill="white"/>
<path d="M60.7324 187.262C65.3461 187.262 69.0862 183.522 69.0862 178.908C69.0862 174.294 65.3461 170.554 60.7324 170.554C56.1187 170.554 52.3786 174.294 52.3786 178.908C52.3786 183.522 56.1187 187.262 60.7324 187.262Z" fill="white"/>
<path d="M44.8672 161.288C49.4809 161.288 53.221 157.548 53.221 152.934C53.221 148.32 49.4809 144.58 44.8672 144.58C40.2536 144.58 36.5134 148.32 36.5134 152.934C36.5134 157.548 40.2536 161.288 44.8672 161.288Z" fill="white"/>
<path d="M25.7151 146.49C26.0422 141.888 22.5765 137.892 17.9744 137.565C13.3722 137.237 9.37634 140.703 9.04928 145.305C8.72223 149.907 12.1879 153.903 16.79 154.23C21.3921 154.557 25.388 151.092 25.7151 146.49Z" fill="white"/>
<path d="M179.792 119.519C179.721 119.659 179.581 119.87 179.511 120.01L179.3 119.168L174.105 100.214L153.958 111.656L152.554 85.7524L146.657 87.2968L139.497 89.1922L123.491 93.4042L123.561 91.8598L124.053 83.857L125.246 63.0778L109.521 64.9732L100.255 66.0964L96.4642 66.5878L101.589 54.6538L104.467 47.9146L107.766 40.2628L79.8268 38.1568L78.0016 38.0164C77.5804 36.9634 79.6864 13.8676 79.6864 13.8676C116.331 -3.05062 158.872 -4.31422 180.985 19.4836C202.817 42.9304 198.746 84.4888 179.792 119.519Z" fill="#65E3FF"/>
<path d="M132.898 1.23182C151.992 1.23182 169.332 6.77762 180.985 19.3434C202.817 42.8604 198.746 84.489 179.792 119.519C179.721 119.659 179.581 119.87 179.511 120.01L179.3 119.168L174.105 100.214L153.958 111.656L152.554 85.7526L146.657 87.297L139.497 89.1924L123.491 93.4044L123.561 91.86L124.053 83.8572L125.246 63.078L109.521 64.9734L100.255 66.0966L96.4642 66.588L101.589 54.654L104.467 47.9148L107.766 40.263L79.8268 38.157L78.0016 38.0166C77.5804 36.9636 79.6864 13.8678 79.6864 13.8678C97.0258 5.72462 115.699 1.23182 132.898 1.23182ZM132.898 0.249023C115.91 0.249023 96.8854 4.74182 79.2652 12.8148C78.9142 12.9552 78.7036 13.236 78.7036 13.6572C77.7208 24.3276 76.6678 37.2444 77.089 38.2974C77.2294 38.6484 77.5804 38.859 77.9314 38.9292L79.7566 39.0696L106.362 41.1054L103.625 47.4936L100.746 54.2328L95.6218 66.1668C95.4112 66.6582 95.6218 67.2198 96.1132 67.4304C96.2536 67.5006 96.394 67.5006 96.5344 67.5006H96.6748L100.466 67.0092L109.732 65.886L124.263 64.131L123.14 83.787L122.649 91.7898L122.579 93.4044C122.579 93.6852 122.719 94.0362 122.93 94.2468C123.14 94.3872 123.351 94.4574 123.561 94.4574C123.632 94.4574 123.702 94.4574 123.842 94.4574L139.848 90.2454L147.008 88.35L151.782 87.0864L153.116 111.797C153.116 112.148 153.326 112.429 153.607 112.639C153.747 112.709 153.888 112.78 154.098 112.78C154.239 112.78 154.449 112.709 154.59 112.639L173.684 101.828L178.528 119.589L178.739 120.431C178.879 120.853 179.16 121.133 179.581 121.133H179.651C180.002 121.133 180.353 120.923 180.564 120.572C180.634 120.502 180.634 120.431 180.704 120.361L180.845 120.08C190.532 102.25 196.218 82.734 196.85 65.3244C197.552 46.23 192.357 30.1542 181.827 18.852C170.595 6.77762 153.747 0.45962 133.038 0.45962L132.898 0.249023Z" fill="#231F20"/>
<path d="M79.8268 38.0871L78.0016 37.9467C77.5804 36.8937 79.6864 13.7979 79.6864 13.7979C81.7924 18.7821 82.5646 24.1875 82.003 29.5929C81.652 32.4711 80.95 35.3493 79.8268 38.0871Z" fill="white"/>
<path d="M109.451 64.9033L100.185 66.0265C100.676 65.3245 101.097 64.6927 101.589 63.9907C102.782 62.0953 105.239 55.1455 101.589 54.5839L104.467 47.8447C107.135 49.0381 109.17 51.2143 110.153 53.9521C111.557 57.6727 110.996 61.4635 109.451 64.9033Z" fill="white"/>
<path d="M146.657 87.2973L139.497 89.1927C139.497 88.2801 139.356 87.0867 138.725 86.5251C137.882 85.7529 136.408 86.4549 135.425 86.7357C131.283 88.0695 127.422 90.1053 123.561 91.7901L124.053 83.7873C128.195 81.6813 132.266 79.5051 136.619 78.8733C141.533 78.2415 145.394 81.3303 146.447 86.1039C146.517 86.5251 146.587 86.9463 146.657 87.2973Z" fill="white"/>
<path d="M179.792 119.519C179.721 119.659 179.581 119.87 179.511 120.01L179.3 119.168L179.792 119.519Z" fill="white"/>
<path d="M135.495 63.148C140.109 63.148 143.849 59.4079 143.849 54.7942C143.849 50.1806 140.109 46.4404 135.495 46.4404C130.882 46.4404 127.142 50.1806 127.142 54.7942C127.142 59.4079 130.882 63.148 135.495 63.148Z" fill="white"/>
<path d="M135.636 21.8004C140.249 21.8004 143.99 18.0602 143.99 13.4466C143.99 8.83289 140.249 5.09277 135.636 5.09277C131.022 5.09277 127.282 8.83289 127.282 13.4466C127.282 18.0602 131.022 21.8004 135.636 21.8004Z" fill="white"/>
<path d="M169.051 57.7428C173.665 57.7428 177.405 54.0026 177.405 49.389C177.405 44.7753 173.665 41.0352 169.051 41.0352C164.437 41.0352 160.697 44.7753 160.697 49.389C160.697 54.0026 164.437 57.7428 169.051 57.7428Z" fill="white"/>
<path d="M171.648 85.191C176.262 85.191 180.002 81.4509 180.002 76.8372C180.002 72.2235 176.262 68.4834 171.648 68.4834C167.035 68.4834 163.295 72.2235 163.295 76.8372C163.295 81.4509 167.035 85.191 171.648 85.191Z" fill="white"/>
<path d="M109.241 34.8575C113.854 34.8575 117.594 31.1174 117.594 26.5037C117.594 21.89 113.854 18.1499 109.241 18.1499C104.627 18.1499 100.887 21.89 100.887 26.5037C100.887 31.1174 104.627 34.8575 109.241 34.8575Z" fill="white"/>
</g>
<defs>
<clipPath id="clip0_224_527">
<rect width="197" height="233" fill="white"/>
</clipPath>
</defs>
</svg>
