<svg width="283" height="226" viewBox="0 0 283 226" fill="none" xmlns="http://www.w3.org/2000/svg">
<g clip-path="url(#clip0_224_651)">
<path d="M59.3329 175.85C57.4531 172.71 52.4937 171.823 49.2892 170.637C44.5864 168.897 39.8558 167.213 35.0559 165.784C25.2064 162.852 14.906 161.105 4.66117 162.755C3.52362 162.942 2.10168 163.448 2.10168 164.627C2.10168 165.514 2.99647 166.117 3.79414 166.526C8.94232 169.186 14.4352 171.117 20.1152 172.266L10.6749 171.677C9.50963 171.608 8.27497 171.552 7.26921 172.142C6.26345 172.731 5.72242 174.221 6.50622 175.081C6.94754 175.478 7.49898 175.732 8.08769 175.809C13.9558 177.154 19.8655 178.295 25.8168 179.233C22.5495 178.603 19.1708 178.901 16.0644 180.093C15.7502 180.179 15.456 180.326 15.1989 180.526C14.9417 180.726 14.7267 180.974 14.5662 181.258C14.0668 182.45 15.4193 183.552 16.5846 184.107C24.7764 188.01 33.9253 189.653 42.991 189.653C46.4938 189.653 50.0799 189.383 53.2845 187.968C56.489 186.554 59.2843 183.809 59.9641 180.391C60.3181 178.851 60.0934 177.235 59.3329 175.85Z" fill="#231F20"/>
<path d="M42.88 190.138C33.0929 190.138 24.1521 188.252 16.3834 184.544C14.9546 183.85 13.5049 182.547 14.1222 181.077C14.3075 180.73 14.5618 180.424 14.8696 180.179C15.1773 179.933 15.5319 179.753 15.9118 179.649C17.0941 179.192 18.3218 178.862 19.5741 178.665C15.6967 177.972 11.8263 177.16 8.00442 176.287C7.31573 176.18 6.67519 175.869 6.16631 175.393C5.96535 175.166 5.8185 174.896 5.7368 174.605C5.6551 174.313 5.64068 174.006 5.69464 173.708C5.76297 173.297 5.91914 172.905 6.15254 172.559C6.38593 172.213 6.69107 171.922 7.04721 171.705C8.21251 171.011 9.66219 171.115 10.7234 171.178L14.8089 171.434C10.9277 170.298 7.16486 168.791 3.57214 166.935C2.73285 166.498 1.62305 165.791 1.62305 164.599C1.62305 163.406 2.69817 162.561 4.58484 162.262C13.602 160.807 23.3128 161.77 35.1877 165.299C40.2858 166.817 45.2592 168.606 49.4556 170.152C50.1492 170.394 50.8429 170.63 51.6336 170.845C54.6994 171.809 58.1676 172.925 59.749 175.538C60.5724 177.027 60.8193 178.767 60.4427 180.426C59.749 183.76 57.1757 186.727 53.5064 188.35C50.0382 189.861 46.2718 190.069 43.0187 190.076L42.88 190.138ZM22.4874 179.4C20.3537 179.392 18.2371 179.78 16.2447 180.544C15.7311 180.675 15.287 180.997 15.0031 181.445C14.6216 182.353 15.9465 183.275 16.7857 183.67C24.4156 187.324 33.2247 189.168 42.8661 189.168H43.0049C46.1609 189.168 49.8302 188.967 53.1041 187.525C56.378 186.083 58.9167 183.282 59.5063 180.301C59.8382 178.874 59.6307 177.376 58.9236 176.093C57.5364 173.777 54.2486 172.744 51.3492 171.829C50.5585 171.58 49.8024 171.344 49.1226 171.088C44.9609 169.542 39.9876 167.753 34.9241 166.235C23.2087 162.769 13.6159 161.791 4.74437 163.219C4.38368 163.282 2.59413 163.621 2.59413 164.606C2.59413 165.105 3.04498 165.569 4.023 166.075C9.1356 168.717 14.5913 170.635 20.2331 171.774C20.3532 171.797 20.46 171.866 20.5321 171.965C20.6041 172.064 20.6361 172.186 20.6215 172.308C20.6043 172.43 20.5421 172.541 20.4471 172.619C20.3521 172.697 20.2312 172.737 20.1082 172.731L10.6679 172.141C9.46104 172.065 8.38591 172.044 7.54663 172.536C7.31515 172.681 7.11653 172.872 6.96359 173.097C6.81066 173.323 6.70681 173.578 6.65878 173.847C6.62855 174.003 6.63339 174.165 6.67297 174.319C6.71254 174.474 6.78587 174.618 6.88768 174.741C7.27075 175.055 7.73481 175.255 8.22638 175.316C13.6783 176.564 19.2273 177.653 24.7555 178.547C25.1509 178.602 25.5463 178.665 25.9416 178.741C26.057 178.775 26.1558 178.85 26.219 178.952C26.2821 179.054 26.3052 179.176 26.2836 179.294C26.262 179.412 26.1974 179.518 26.1022 179.591C26.007 179.665 25.888 179.7 25.7682 179.691L24.6099 179.552C23.906 179.46 23.1972 179.409 22.4874 179.4Z" fill="#231F20"/>
<path d="M7.99058 197.015C6.60333 197.66 5.06348 198.769 5.3548 200.239C12.9847 199.601 20.5753 198.612 28.1266 197.272C24.879 198.623 21.9299 200.602 19.4483 203.094C16.9667 205.586 15.0012 208.543 13.6645 211.795C15.4193 212.399 17.3337 211.795 19.0817 211.158L42.235 202.963C37.7056 208.828 32.9126 215.823 34.6536 223.026C34.8895 223.997 35.4513 225.106 36.4432 225.161C36.7898 225.132 37.1271 225.034 37.4355 224.874C37.7439 224.713 38.0173 224.493 38.2397 224.225L55.3098 208.433C57.5156 210.18 54.8798 214.776 57.3144 216.184C59.1942 217.265 61.0531 214.873 62.3432 213.133C66.2484 207.858 73.3858 206.416 79.0943 203.164C80.759 202.222 82.3891 201.022 83.2006 199.289C84.0121 197.556 83.7208 195.178 82.1116 194.138C81.2864 193.691 80.3718 193.433 79.4342 193.383C54.6717 190.256 31.4837 185.272 7.99058 197.015Z" fill="#231F20"/>
<path d="M36.5194 225.646H36.4153C35.368 225.591 34.5564 224.676 34.1888 223.151C32.5172 216.267 36.561 209.695 40.8684 203.968L19.2411 211.594C17.2712 212.287 15.3499 212.87 13.5048 212.239C13.4427 212.217 13.3855 212.183 13.3367 212.139C13.2878 212.095 13.2483 212.042 13.2204 211.982C13.1947 211.922 13.1814 211.857 13.1814 211.792C13.1814 211.726 13.1947 211.661 13.2204 211.601C15.5118 205.985 19.6225 201.301 24.8942 198.298C18.4365 199.358 11.8887 200.162 5.40326 200.71C5.28356 200.728 5.16154 200.701 5.06048 200.634C4.95941 200.568 4.88637 200.466 4.85529 200.35C4.57784 198.963 5.60441 197.577 7.74772 196.592C28.7993 186.075 49.4763 188.876 71.3672 191.843C74.0516 192.204 76.7498 192.571 79.4688 192.918C80.4792 192.973 81.4637 193.257 82.3473 193.75C84.2479 194.977 84.4837 197.639 83.6097 199.504C82.6733 201.514 80.7035 202.804 79.3023 203.601C77.4356 204.625 75.5163 205.551 73.5521 206.374C69.3071 208.218 65.298 209.958 62.7038 213.466C61.5316 215.04 59.3675 217.986 57.0438 216.641C55.5456 215.774 55.6566 213.958 55.719 212.35C55.7884 211.088 55.8508 209.896 55.2681 209.147L38.5656 224.613C38.0347 225.199 37.3057 225.567 36.5194 225.646ZM42.2349 202.478C42.3117 202.479 42.3873 202.498 42.4558 202.533C42.5243 202.568 42.5839 202.618 42.6302 202.679C42.6927 202.762 42.7265 202.863 42.7265 202.967C42.7265 203.07 42.6927 203.171 42.6302 203.254C38.1147 209.105 33.4397 215.927 35.1321 222.915C35.2292 223.317 35.6107 224.627 36.4778 224.676C37.0414 224.595 37.5552 224.308 37.9205 223.872L54.9907 208.079C55.0786 208.004 55.1906 207.963 55.3063 207.963C55.422 207.963 55.5339 208.004 55.6219 208.079C56.8912 209.084 56.801 210.852 56.7247 212.377C56.6484 213.903 56.5722 215.213 57.564 215.788C59.0068 216.613 60.5883 214.714 61.9616 212.87C64.7361 209.161 69.0297 207.282 73.2053 205.466C75.1357 204.667 77.0227 203.766 78.8584 202.769C80.1485 202.034 81.945 200.863 82.7705 199.102C83.4641 197.646 83.2976 195.497 81.8549 194.568C81.0911 194.156 80.2453 193.919 79.3786 193.875C76.6596 193.528 73.9568 193.17 71.2701 192.8C49.5318 189.854 28.9935 187.074 8.21245 197.459C7.33848 197.875 5.97203 198.686 5.82637 199.733C13.2412 199.095 20.7186 198.11 28.0571 196.807C28.1728 196.79 28.2907 196.816 28.3891 196.879C28.4874 196.942 28.5597 197.039 28.5926 197.151C28.6255 197.263 28.6168 197.383 28.5681 197.489C28.5195 197.596 28.4341 197.681 28.3276 197.729C22.0541 200.307 17.0313 205.226 14.3233 211.442C15.7106 211.726 17.3128 211.241 18.9221 210.672L42.0753 202.478C42.1283 202.472 42.1819 202.472 42.2349 202.478Z" fill="#231F20"/>
<path d="M162.232 202.735C164.938 203.053 168.323 202.79 169.446 200.308L158.653 195.06C162.281 195.455 165.978 195.857 169.543 195.095C173.109 194.332 176.591 192.211 178.013 188.856L165.777 185.549C170.587 184.373 175.242 182.64 179.649 180.384C182.015 179.171 184.574 177.424 184.838 174.776C184.879 174.544 184.874 174.306 184.823 174.077C184.772 173.847 184.676 173.63 184.54 173.438C184.019 172.828 183.055 172.959 182.271 173.147L164.508 177.341C170.057 175.441 176.029 173.181 179.074 168.197C167.204 167.157 155.252 168.745 144.066 172.848C136.18 175.753 127.572 184.765 135.278 192.627C141.181 198.686 154.256 201.813 162.232 202.735Z" fill="#231F20"/>
<path d="M163.994 203.324C163.387 203.321 162.78 203.286 162.177 203.22C153.208 202.18 140.675 198.873 134.904 192.967C132.275 190.284 131.262 187.192 131.976 184.017C133.197 178.589 138.996 174.187 143.865 172.398C155.117 168.271 167.141 166.674 179.081 167.718C179.163 167.725 179.242 167.752 179.31 167.798C179.378 167.845 179.433 167.908 179.469 167.982C179.51 168.053 179.531 168.133 179.531 168.214C179.531 168.296 179.51 168.376 179.469 168.446C177.569 171.587 174.614 173.653 171.146 175.275L182.153 172.675C183.069 172.453 184.234 172.315 184.928 173.126C185.109 173.366 185.24 173.64 185.311 173.932C185.383 174.224 185.394 174.528 185.344 174.824C185.039 177.847 182.084 179.677 179.885 180.814C175.987 182.806 171.897 184.397 167.677 185.563L178.179 188.391C178.246 188.409 178.308 188.44 178.361 188.484C178.415 188.527 178.458 188.582 178.488 188.644C178.518 188.706 178.535 188.773 178.537 188.842C178.538 188.911 178.525 188.98 178.498 189.043C177.111 192.246 173.844 194.686 169.689 195.573C166.943 196.072 164.137 196.156 161.365 195.823L169.689 199.871C169.803 199.927 169.89 200.025 169.933 200.144C169.976 200.263 169.97 200.394 169.918 200.509C168.85 202.797 166.207 203.324 163.994 203.324ZM162.309 202.256C164.223 202.478 167.504 202.527 168.801 200.523L158.445 195.497C158.342 195.448 158.26 195.363 158.213 195.26C158.167 195.156 158.158 195.038 158.189 194.929C158.222 194.82 158.292 194.725 158.387 194.662C158.481 194.599 158.595 194.571 158.709 194.582C162.253 194.977 165.923 195.386 169.446 194.631C172.97 193.875 175.973 191.858 177.333 189.182L165.624 186.027C165.521 185.999 165.43 185.937 165.365 185.852C165.3 185.767 165.264 185.663 165.264 185.556C165.265 185.449 165.302 185.345 165.368 185.261C165.435 185.177 165.527 185.117 165.631 185.091C170.406 183.919 175.028 182.197 179.407 179.961C181.397 178.942 184.082 177.285 184.338 174.734C184.399 174.396 184.332 174.048 184.151 173.757C183.79 173.341 182.958 173.479 182.362 173.618L164.598 177.819C164.478 177.844 164.354 177.823 164.249 177.76C164.144 177.697 164.067 177.597 164.033 177.48C163.999 177.362 164.01 177.237 164.065 177.127C164.119 177.018 164.213 176.933 164.327 176.89C169.946 174.963 175.238 172.876 178.2 168.62C166.665 167.726 155.074 169.325 144.212 173.306C139.579 175.018 134.064 179.164 132.927 184.239C132.275 187.116 133.176 189.826 135.597 192.301C141.209 198.021 153.486 201.244 162.295 202.263L162.309 202.256Z" fill="#231F20"/>
<path d="M125.616 109.749C124.203 116.684 123.634 123.765 123.923 130.837C124.062 134.003 124.417 137.155 124.985 140.273C125.722 144.403 126.872 148.449 128.418 152.349C130.319 157.153 132.853 161.683 135.951 165.819C145.974 179.323 161.525 188.232 179.885 191.844C193.487 194.513 206.75 193.923 218.562 189.895C222.937 188.421 227.126 186.446 231.047 184.01C235.511 181.231 239.582 177.866 243.151 174.006C245.107 171.902 246.915 169.664 248.561 167.309C254.367 159.039 258.723 148.758 261.151 136.418C263.162 125.882 263.724 115.12 262.822 104.431C262.656 102.275 262.427 100.119 262.129 97.9773C257.62 63.9594 239.378 32.8532 212.188 27.5082C184.664 22.1009 155.636 44.583 138.663 74.9058C137.627 76.7545 136.638 78.6309 135.694 80.535C131.061 89.7864 127.672 99.6094 125.616 109.749Z" fill="#68E1FD"/>
<path d="M203.857 26.6833C206.651 26.6836 209.438 26.9529 212.181 27.4875C239.364 32.8325 257.606 63.9387 262.122 97.9565C262.413 100.099 262.642 102.255 262.815 104.411C263.721 115.099 263.158 125.861 261.144 136.397C258.716 148.737 254.36 159.018 248.554 167.289C246.908 169.643 245.1 171.881 243.144 173.985C239.567 177.852 235.487 181.222 231.013 184.003C227.092 186.439 222.902 188.414 218.527 189.889C211.309 192.301 203.742 193.51 196.13 193.466C190.664 193.45 185.212 192.905 179.851 191.837C161.49 188.225 145.939 179.317 135.916 165.812C132.83 161.674 130.308 157.145 128.418 152.342C126.872 148.442 125.722 144.396 124.985 140.266C124.417 137.148 124.062 133.996 123.923 130.831C123.634 123.758 124.203 116.677 125.616 109.742C127.668 99.5957 131.055 89.7656 135.687 80.5074C136.612 78.6033 137.602 76.7269 138.656 74.8782C153.916 47.6057 178.956 26.6764 203.857 26.6764M203.857 25.7059C191.802 25.7059 179.074 30.5586 167.095 39.7789C155.803 48.4306 145.69 60.4031 137.838 74.4414C136.769 76.3618 135.757 78.2682 134.855 80.1122C130.167 89.4238 126.74 99.318 124.666 109.534C123.24 116.547 122.664 123.707 122.952 130.858C123.096 134.063 123.455 137.255 124.028 140.411C124.776 144.606 125.938 148.716 127.496 152.682C129.429 157.559 131.995 162.162 135.126 166.374C145.162 179.885 160.561 189.015 179.656 192.766C185.079 193.847 190.594 194.4 196.123 194.416C203.841 194.463 211.515 193.236 218.833 190.783C223.249 189.293 227.48 187.302 231.443 184.849L231.595 184.759C236.113 181.933 240.236 178.523 243.859 174.616C245.844 172.478 247.68 170.206 249.352 167.815C255.428 159.157 259.722 148.64 262.101 136.557C264.14 125.935 264.705 115.083 263.78 104.307C263.613 102.109 263.377 99.9184 263.086 97.7971C260.783 80.4173 254.88 63.9387 246.439 51.4047C237.234 37.6922 225.443 29.082 212.347 26.51C209.537 25.9601 206.679 25.6838 203.815 25.6851L203.857 25.7059Z" fill="#231F20"/>
<path d="M135.687 80.5142C138.314 82.1238 140.543 84.305 142.209 86.8953C143.874 89.4856 144.934 92.4182 145.308 95.4745C145.745 99.634 145.266 104.071 147.583 107.794C149.9 111.516 154.179 112.868 158.307 112.016C160.24 111.572 162.066 110.75 163.68 109.599C165.294 108.447 166.664 106.988 167.712 105.305C169.03 103.216 170.14 101.003 171.028 98.6981C171.721 96.9581 172.415 94.0742 173.892 92.757C177.18 89.7483 179.282 96.7432 179.407 98.8021C179.67 102.962 179.046 107.073 180.322 111.1C182.833 119.031 191.42 121.021 198.447 117.783C207.062 113.797 209.344 104.709 214.532 97.582C215.059 96.8402 215.746 95.634 216.724 95.7449C217.591 95.842 218.423 96.9928 218.867 97.6097C219.873 99.1193 220.61 100.792 221.045 102.553C222.155 106.518 222.12 110.768 222.259 114.851C222.502 121.631 222.856 133.645 232.254 133.721C240.987 133.784 246.127 124.744 249.234 117.867C251.079 113.818 252.876 109.09 256.545 106.317C258.321 104.911 260.564 104.23 262.822 104.411C262.656 102.255 262.427 100.099 262.129 97.9564C256.621 98.1089 251.031 101.963 247.958 106.567C245.107 110.851 243.546 115.787 240.987 120.231C239.551 122.719 233.801 130.338 230.583 126.414C228.203 123.551 228.703 117.853 228.578 114.386C228.439 110.227 228.321 106.144 227.427 102.088C226.58 98.2683 224.929 94.2128 221.919 91.5785C218.77 88.8055 214.463 88.6044 211.369 91.5438C205.168 97.4503 204.086 108.528 195.645 112.133C192.336 113.52 188.181 113.568 186.572 109.79C184.9 105.846 186.149 101.145 185.615 96.9997C185.129 93.1868 183.61 89.6581 180.301 87.5091C177.132 85.4293 172.984 85.1867 170.008 87.724C166.637 90.6148 165.652 95.6686 163.765 99.5092C162.246 102.58 158.75 107.301 154.596 105.804C151.128 104.549 151.918 98.6635 151.703 95.8073C151.398 91.9027 150.23 88.1144 148.284 84.7153C145.969 80.6651 142.655 77.2757 138.656 74.8711C137.625 76.7198 136.635 78.6008 135.687 80.5142Z" fill="white"/>
<path d="M123.923 130.837C124.062 134.003 124.417 137.155 124.985 140.273C133.125 147.196 142.065 153.121 151.613 157.923C165.777 165.035 181.037 169.056 196.657 171.296C212 173.507 227.649 174.762 243.13 173.985C245.086 171.881 246.894 169.643 248.541 167.289C243.775 167.684 238.996 167.871 234.21 167.885C218.611 167.881 203.049 166.379 187.737 163.399C173.785 160.771 160.364 155.852 148.02 148.841C139.299 143.821 131.209 137.777 123.923 130.837Z" fill="white"/>
<path d="M128.418 152.349C130.319 157.154 132.853 161.683 135.951 165.819C140.493 168.854 145.219 171.605 150.101 174.055C164.244 181.168 179.525 185.188 195.152 187.435C202.893 188.544 210.717 189.41 218.562 189.896C222.937 188.421 227.126 186.446 231.047 184.01C216.001 183.909 200.996 182.417 186.225 179.552C172.274 176.92 158.854 172.001 146.508 164.994C140.118 161.318 134.065 157.087 128.418 152.349Z" fill="white"/>
<path d="M202.935 143.545C206.926 143.545 210.162 140.31 210.162 136.321C210.162 132.331 206.926 129.097 202.935 129.097C198.943 129.097 195.707 132.331 195.707 136.321C195.707 140.31 198.943 143.545 202.935 143.545Z" fill="white"/>
<path d="M223.057 162.221C227.048 162.221 230.284 158.987 230.284 154.997C230.284 151.008 227.048 147.773 223.057 147.773C219.065 147.773 215.829 151.008 215.829 154.997C215.829 158.987 219.065 162.221 223.057 162.221Z" fill="white"/>
<path d="M176.383 157.008C180.374 157.008 183.61 153.774 183.61 149.784C183.61 145.795 180.374 142.561 176.383 142.561C172.391 142.561 169.155 145.795 169.155 149.784C169.155 153.774 172.391 157.008 176.383 157.008Z" fill="white"/>
<path d="M198.426 82.4415C202.418 82.4415 205.654 79.2073 205.654 75.2178C205.654 71.2283 202.418 67.9941 198.426 67.9941C194.434 67.9941 191.198 71.2283 191.198 75.2178C191.198 79.2073 194.434 82.4415 198.426 82.4415Z" fill="white"/>
<path d="M161.442 135.385C165.434 135.385 168.669 132.151 168.669 128.162C168.669 124.172 165.434 120.938 161.442 120.938C157.45 120.938 154.214 124.172 154.214 128.162C154.214 132.151 157.45 135.385 161.442 135.385Z" fill="white"/>
<path d="M177.548 53.5328C181.539 53.5328 184.775 50.2987 184.775 46.3091C184.775 42.3196 181.539 39.0854 177.548 39.0854C173.556 39.0854 170.32 42.3196 170.32 46.3091C170.32 50.2987 173.556 53.5328 177.548 53.5328Z" fill="white"/>
<path d="M219.048 61.6856C223.039 61.6856 226.275 58.4515 226.275 54.462C226.275 50.4724 223.039 47.2383 219.048 47.2383C215.056 47.2383 211.82 50.4724 211.82 54.462C211.82 58.4515 215.056 61.6856 219.048 61.6856Z" fill="white"/>
<path d="M234.8 79.5089C238.792 79.5089 242.027 76.2747 242.027 72.2852C242.027 68.2957 238.792 65.0615 234.8 65.0615C230.808 65.0615 227.572 68.2957 227.572 72.2852C227.572 76.2747 230.808 79.5089 234.8 79.5089Z" fill="white"/>
<path d="M137.47 130.678C141.462 130.678 144.698 127.444 144.698 123.454C144.698 119.465 141.462 116.23 137.47 116.23C133.478 116.23 130.242 119.465 130.242 123.454C130.242 127.444 133.478 130.678 137.47 130.678Z" fill="white"/>
<path d="M165.763 76.0152C169.755 76.0152 172.991 72.7811 172.991 68.7916C172.991 64.802 169.755 61.5679 165.763 61.5679C161.771 61.5679 158.536 64.802 158.536 68.7916C158.536 72.7811 161.771 76.0152 165.763 76.0152Z" fill="white"/>
<path d="M95.1034 204.419C106.465 204.96 116.557 203.567 125.352 200.593C132.915 198.118 139.911 194.168 145.934 188.971C151.958 183.775 156.89 177.434 160.443 170.318C163.769 163.701 166.075 156.619 167.282 149.313C167.876 145.831 168.255 142.317 168.42 138.789C168.588 135.263 168.544 131.731 168.288 128.21C167.788 121.025 166.241 113.951 163.696 107.212C157.786 91.8561 146.48 79.433 129.792 72.4797C121.683 69.1036 112.291 67.0169 101.644 66.5108C96.6323 66.2806 91.6106 66.3895 86.6134 66.8366C69.3293 68.3773 52.5636 73.5385 37.4074 81.9842C31.1714 85.4713 25.3536 89.6579 20.0667 94.4627C10.356 103.392 3.58616 114.026 1.60238 125.708C1.31021 127.411 1.12258 129.132 1.04054 130.858C0.958424 132.612 0.983905 134.369 1.11684 136.12C2.08098 149.146 8.94789 161.452 19.4217 171.927C22.5851 175.099 25.9718 178.042 29.5556 180.731C42.2906 190.312 58.1122 197.625 74.5234 201.487C81.2796 203.089 88.1683 204.071 95.1034 204.419Z" fill="#68E1FD"/>
<path d="M96.6085 66.3928C98.294 66.3928 99.9726 66.3928 101.644 66.5107C112.291 67.0167 121.683 69.1034 129.792 72.4796C146.48 79.4121 157.786 91.8559 163.696 107.211C166.239 113.946 167.786 121.015 168.288 128.196C168.544 131.717 168.588 135.249 168.42 138.775C168.255 142.303 167.876 145.817 167.282 149.299C166.074 156.605 163.769 163.687 160.443 170.304C156.89 177.42 151.958 183.761 145.934 188.957C139.911 194.154 132.915 198.104 125.352 200.579C117.134 203.267 108.53 204.595 99.8824 204.509C98.3287 204.509 96.7472 204.472 95.138 204.398C88.2029 204.05 81.3143 203.068 74.5581 201.466C58.1469 197.605 42.3252 190.291 29.5902 180.71C25.9952 178.029 22.5969 175.093 19.4216 171.926C8.95479 161.431 2.08094 149.125 1.09599 136.092C0.963053 134.342 0.937572 132.584 1.01969 130.831C1.10173 129.104 1.28936 127.384 1.58153 125.68C3.5653 113.998 10.3143 103.364 20.0459 94.4348C25.3327 89.63 31.1505 85.4434 37.3866 81.9563C52.5427 73.5106 69.3084 68.3495 86.5925 66.8088C89.9358 66.5084 93.2675 66.3605 96.5877 66.3651M96.5877 65.3945C93.286 65.3945 89.8942 65.5401 86.5093 65.8382C69.0905 67.4004 52.1931 72.5961 36.908 81.0897C30.5976 84.6097 24.7099 88.8382 19.3592 93.6931C9.00334 103.198 2.51793 114.192 0.631258 125.492C0.329174 127.233 0.136893 128.99 0.0555488 130.754C-0.0277942 132.55 3.19959e-06 134.349 0.138783 136.141C1.07518 148.779 7.51204 161.382 18.728 172.62C21.9279 175.817 25.3515 178.782 28.9729 181.493C41.7842 191.13 57.8833 198.554 74.3014 202.416C81.1051 204.035 88.0424 205.03 95.027 205.39C96.6362 205.466 98.2524 205.501 99.82 205.501C108.586 205.584 117.306 204.235 125.637 201.508C133.316 198.989 140.419 194.976 146.537 189.699C152.655 184.422 157.667 177.985 161.282 170.762C164.653 164.054 166.991 156.877 168.219 149.472C168.222 149.461 168.222 149.449 168.219 149.437C169.41 142.412 169.755 135.269 169.245 128.162C169.249 128.15 169.249 128.138 169.245 128.127C168.737 120.852 167.172 113.689 164.598 106.865C158.321 90.5596 146.411 78.3583 130.152 71.5853C121.096 67.9342 111.473 65.8885 101.714 65.5401C100.042 65.4569 98.3287 65.4223 96.6293 65.4223L96.5877 65.3945Z" fill="#231F20"/>
<path d="M65.4438 89.8246C79.3649 86.608 88.9786 76.7915 86.9463 67.8971C86.8634 67.5377 86.7591 67.1835 86.6342 66.8364C69.3501 68.3771 52.5844 73.5383 37.4282 81.984C41.0767 89.2492 52.8684 92.7294 65.4438 89.8246Z" fill="white"/>
<path d="M123.541 105.447C123.973 96.3258 112.756 88.3843 98.4865 87.7092C84.2174 87.0342 72.2998 93.8812 71.8679 103.003C71.4359 112.124 82.6531 120.065 96.9221 120.74C111.191 121.415 123.109 114.568 123.541 105.447Z" fill="white"/>
<path d="M1.57458 125.701C3.442 124.952 5.25052 124.065 6.98488 123.046C19.2968 115.808 25.5255 103.565 20.899 95.669C20.6428 95.2373 20.3553 94.8249 20.0389 94.4351C10.3074 103.385 3.55836 114.019 1.57458 125.701Z" fill="white"/>
<path d="M19.4216 171.926C24.5336 165.042 21.121 152.515 11.3131 143.136C8.32094 140.239 4.86827 137.859 1.09595 136.092C2.0809 149.146 8.94781 161.451 19.4216 171.926Z" fill="white"/>
<path d="M125.519 169.825C125.95 160.704 114.733 152.763 100.464 152.088C86.1952 151.413 74.2776 158.26 73.8456 167.381C73.4137 176.502 84.6308 184.444 98.8999 185.119C113.169 185.794 125.087 178.947 125.519 169.825Z" fill="white"/>
<path d="M75.4117 134.359C75.8437 125.237 64.6265 117.296 50.3574 116.621C36.0884 115.946 24.1708 122.793 23.7388 131.914C23.3069 141.035 34.524 148.977 48.7931 149.652C63.0622 150.327 74.9797 143.48 75.4117 134.359Z" fill="white"/>
<path d="M147.125 154.325C155.116 154.706 162.385 152.724 167.282 149.313C167.876 145.831 168.255 142.317 168.42 138.789C168.588 135.263 168.544 131.731 168.288 128.21C163.717 124.349 156.684 121.687 148.693 121.312C134.425 120.619 122.502 127.482 122.072 136.564C121.641 145.646 132.857 153.653 147.125 154.325Z" fill="white"/>
<path d="M163.696 107.211C157.786 91.8559 146.48 79.4328 129.792 72.4795C129.249 73.03 128.77 73.6392 128.363 74.2958C123.507 82.0256 129.382 94.4486 141.479 102.026C149.13 106.816 157.398 108.542 163.696 107.211Z" fill="white"/>
<path d="M125.352 200.592C132.915 198.118 139.911 194.168 145.934 188.971C151.958 183.774 156.89 177.434 160.443 170.318C154.2 169.472 146.224 171.58 139.017 176.557C129.258 183.261 123.924 193.126 125.352 200.592Z" fill="white"/>
<path d="M74.5234 201.487C74.3986 194.007 67.5871 185.445 57.1272 180.509C46.4592 175.497 35.3127 175.816 29.5555 180.731C42.3114 190.312 58.1122 197.626 74.5234 201.487Z" fill="white"/>
<path d="M90.5878 91.9805C90.4671 91.9792 90.3512 91.933 90.2627 91.851C90.1743 91.769 90.1195 91.6569 90.1092 91.5368L88.6387 75.2246C88.633 75.1617 88.6398 75.0983 88.6587 75.0381C88.6776 74.9779 88.7082 74.922 88.7489 74.8737C88.7895 74.8253 88.8393 74.7855 88.8954 74.7565C88.9514 74.7275 89.0127 74.7099 89.0757 74.7046C89.2034 74.693 89.3306 74.7325 89.4294 74.8143C89.5282 74.8962 89.5905 75.0137 89.6028 75.1414L91.0733 91.4536C91.079 91.5164 91.0722 91.5798 91.0533 91.64C91.0344 91.7003 91.0038 91.7562 90.9631 91.8045C90.9225 91.8528 90.8727 91.8926 90.8166 91.9217C90.7605 91.9507 90.6993 91.9683 90.6363 91.9735L90.5878 91.9805Z" fill="#231F20"/>
<path d="M105.258 97.6169C105.198 97.6161 105.14 97.6043 105.085 97.5823L90.553 91.9947C87.0502 92.7642 81.3625 94.1576 80.5787 94.7053C80.5272 94.7417 80.4691 94.7676 80.4076 94.7816C80.3461 94.7955 80.2824 94.7972 80.2203 94.7866C80.1581 94.776 80.0987 94.7533 80.0453 94.7197C79.992 94.6861 79.9457 94.6423 79.9093 94.5909C79.8729 94.5395 79.8469 94.4813 79.833 94.4199C79.819 94.3584 79.8173 94.2948 79.8279 94.2327C79.8385 94.1706 79.8613 94.1112 79.8949 94.0578C79.9285 94.0045 79.9723 93.9583 80.0238 93.9219C81.2307 93.0623 89.5403 91.2321 90.4837 91.0241C90.574 90.9959 90.6708 90.9959 90.7611 91.0241L105.431 96.681C105.536 96.7227 105.622 96.7991 105.676 96.8974C105.731 96.9957 105.749 97.1097 105.729 97.2201C105.708 97.3304 105.65 97.4303 105.564 97.5026C105.478 97.575 105.37 97.6154 105.258 97.6169Z" fill="#231F20"/>
<path d="M65.8113 9.37289C71.4902 8.70387 77.2467 9.29082 82.6734 11.0922C85.0206 7.86992 88.1058 5.25641 91.6709 3.47033C95.236 1.68424 99.1772 0.777532 103.165 0.82607C107.152 0.874607 111.07 1.87698 114.591 3.74931C118.111 5.62164 121.132 8.30948 123.4 11.5879C125.668 14.8663 127.117 18.6399 127.627 22.593C128.136 26.5461 127.691 30.5636 126.328 34.3094C124.965 38.0552 122.725 41.4204 119.794 44.1232C116.863 46.8261 113.327 48.788 109.482 49.8449C109.18 57.3265 106.739 64.5649 102.448 70.7028C98.157 76.8407 92.196 81.621 85.2708 84.4775C78.3457 87.3341 70.7465 88.1473 63.3732 86.8208C55.9999 85.4943 49.1615 82.0837 43.6676 76.9929C38.1738 71.9021 34.2548 65.3444 32.3746 58.0963C30.4945 50.8482 30.7321 43.2134 33.0591 36.0961C35.3862 28.9788 39.7054 22.6771 45.5051 17.9373C51.3048 13.1975 58.3421 10.2181 65.7836 9.35209L65.8113 9.37289Z" fill="white"/>
<path d="M70.2853 87.9528C60.1994 87.886 50.5174 83.9831 43.2073 77.0376C35.8972 70.092 31.5076 60.625 30.9308 50.5608C30.354 40.4966 33.6333 30.5906 40.102 22.8562C46.5708 15.1218 55.7436 10.1395 65.7559 8.92211C71.3887 8.25856 77.0985 8.82142 82.4931 10.572C84.531 7.8512 87.094 5.56639 90.0307 3.85273C92.9673 2.13907 96.218 1.03135 99.5904 0.595075C102.963 0.158804 106.389 0.402839 109.665 1.31275C112.941 2.22266 116.002 3.77998 118.666 5.89259C121.291 7.95635 123.48 10.5203 125.107 13.4358C126.733 16.3513 127.764 19.5605 128.141 22.8773C128.801 28.8458 127.34 34.8562 124.014 39.857C120.688 44.8578 115.709 48.5306 109.947 50.233C109.43 60.4016 105.027 69.9839 97.6468 77.0027C90.2667 84.0214 80.4726 87.941 70.2853 87.9528ZM65.8946 9.85106C58.5435 10.7013 51.5902 13.6395 45.8585 18.3178C40.1268 22.9961 35.8568 29.2183 33.5544 36.2474C31.2521 43.2765 31.0137 50.8179 32.8677 57.9782C34.7217 65.1384 38.5903 71.6176 44.0152 76.6481C49.4401 81.6785 56.194 85.0495 63.4768 86.3616C70.7596 87.6737 78.2661 86.872 85.1071 84.0515C91.948 81.231 97.8368 76.5098 102.076 70.4473C106.315 64.3847 108.726 57.2349 109.024 49.8447C109.03 49.7421 109.068 49.6439 109.132 49.5642C109.197 49.4844 109.286 49.4273 109.385 49.4011C115.004 47.8207 119.88 44.2987 123.144 39.4619C126.409 34.6251 127.85 28.7875 127.211 22.9882C126.646 18.0944 124.616 13.4851 121.387 9.76323C118.157 6.04137 113.879 3.38021 109.112 2.12786C104.345 0.875514 99.3111 1.09028 94.6682 2.74407C90.0252 4.39786 85.9898 7.41367 83.0896 11.397C83.0284 11.4782 82.9435 11.5385 82.8467 11.5695C82.7498 11.6005 82.6457 11.6008 82.5486 11.5703C77.1936 9.78071 71.5096 9.19368 65.9016 9.85106H65.8946Z" fill="#231F20"/>
<path d="M72.1997 101.117C72.0768 101.116 71.9591 101.068 71.8702 100.983C71.7814 100.898 71.7281 100.782 71.7211 100.66L70.2506 75.2106C70.2469 75.1477 70.2556 75.0848 70.2762 75.0253C70.2968 74.9658 70.329 74.911 70.3709 74.864C70.4128 74.817 70.4636 74.7787 70.5203 74.7513C70.577 74.724 70.6386 74.708 70.7015 74.7045C70.7651 74.6988 70.8292 74.7061 70.8899 74.726C70.9507 74.7458 71.0067 74.7777 71.0547 74.8199C71.1027 74.862 71.1417 74.9134 71.1692 74.9711C71.1967 75.0287 71.2122 75.0913 71.2147 75.1551L72.6852 100.604C72.691 100.733 72.6463 100.858 72.5608 100.954C72.4753 101.05 72.3556 101.108 72.2274 101.117H72.1997Z" fill="#231F20"/>
<path d="M86.87 106.761C86.8103 106.763 86.7509 106.751 86.6966 106.726L72.1304 101.145C68.6622 101.915 62.9398 103.301 62.156 103.849C62.1041 103.89 62.0444 103.919 61.9805 103.936C61.9167 103.952 61.8501 103.956 61.785 103.945C61.7198 103.935 61.6575 103.911 61.602 103.875C61.5465 103.84 61.499 103.793 61.4624 103.738C61.423 103.686 61.3947 103.625 61.3793 103.561C61.3638 103.498 61.3616 103.431 61.3726 103.366C61.3836 103.301 61.4077 103.24 61.4434 103.184C61.4791 103.129 61.5257 103.082 61.5803 103.045C62.7872 102.185 71.0969 100.355 72.0402 100.147C72.1305 100.119 72.2273 100.119 72.3177 100.147L86.9879 105.783C87.0922 105.825 87.1788 105.901 87.233 106C87.2872 106.098 87.3056 106.212 87.2852 106.322C87.2648 106.433 87.2067 106.533 87.1208 106.605C87.035 106.677 86.9267 106.718 86.8145 106.719L86.87 106.761Z" fill="#231F20"/>
<path d="M86.8699 101.118H72.1996C72.0709 101.118 71.9474 101.066 71.8563 100.975C71.7653 100.884 71.7141 100.761 71.7141 100.632C71.7141 100.504 71.7653 100.38 71.8563 100.289C71.9474 100.198 72.0709 100.147 72.1996 100.147H86.8699C86.9986 100.147 87.1221 100.198 87.2132 100.289C87.3043 100.38 87.3554 100.504 87.3554 100.632C87.3554 100.761 87.3043 100.884 87.2132 100.975C87.1221 101.066 86.9986 101.118 86.8699 101.118Z" fill="#231F20"/>
<path d="M106.326 91.9808H90.5877C90.4589 91.9808 90.3354 91.9297 90.2444 91.8387C90.1533 91.7477 90.1022 91.6242 90.1022 91.4955C90.1022 91.3668 90.1533 91.2434 90.2444 91.1524C90.3354 91.0614 90.4589 91.0103 90.5877 91.0103H106.326C106.455 91.0103 106.578 91.0614 106.669 91.1524C106.761 91.2434 106.812 91.3668 106.812 91.4955C106.812 91.6242 106.761 91.7477 106.669 91.8387C106.578 91.9297 106.455 91.9808 106.326 91.9808Z" fill="#231F20"/>
<path d="M125.498 30.2256L144.032 38.1702L123.056 36.8877C123.056 36.8877 122.571 32.6728 125.498 30.2256Z" fill="white"/>
<path d="M144.032 38.6556L123.056 37.3661C122.943 37.3603 122.836 37.3146 122.753 37.2372C122.671 37.1598 122.619 37.0556 122.606 36.9432C122.606 36.7561 122.127 32.4371 125.214 29.8582C125.283 29.8003 125.367 29.7626 125.456 29.7491C125.545 29.7357 125.637 29.7471 125.72 29.782L144.254 37.7266C144.355 37.7716 144.438 37.8501 144.489 37.9489C144.54 38.0477 144.555 38.1609 144.532 38.2696C144.51 38.3783 144.45 38.4759 144.364 38.5461C144.278 38.6164 144.171 38.655 144.059 38.6556H144.032ZM123.514 36.4302L141.285 37.5186L125.588 30.7872C123.618 32.6243 123.466 35.3973 123.514 36.4302Z" fill="#231F20"/>
<path d="M123.056 36.8877L138.476 42.4822L123.466 40.5481C123.466 40.5481 121.933 39.9449 123.056 36.8877Z" fill="white"/>
<path d="M138.476 42.9814H138.413L123.424 41.0473H123.306C123.223 41.0473 121.329 40.2361 122.613 36.7699C122.656 36.6499 122.746 36.5521 122.861 36.4976C122.977 36.4431 123.109 36.4363 123.23 36.4787L138.649 42.0733C138.76 42.1154 138.852 42.1961 138.908 42.3006C138.964 42.405 138.981 42.5261 138.954 42.6417C138.923 42.7428 138.859 42.8307 138.772 42.8921C138.686 42.9534 138.582 42.9848 138.476 42.9814ZM123.625 40.0906L134.196 41.4771L123.362 37.5463C122.772 39.4043 123.466 39.9658 123.625 40.0767V40.0906Z" fill="#231F20"/>
<path d="M115.35 27.3763C116.408 27.3763 117.265 26.1938 117.265 24.735C117.265 23.2763 116.408 22.0938 115.35 22.0938C114.293 22.0938 113.436 23.2763 113.436 24.735C113.436 26.1938 114.293 27.3763 115.35 27.3763Z" fill="#231F20"/>
<path d="M123.001 28.3124C124.058 28.3124 124.915 27.1298 124.915 25.6711C124.915 24.2123 124.058 23.0298 123.001 23.0298C121.944 23.0298 121.087 24.2123 121.087 25.6711C121.087 27.1298 121.944 28.3124 123.001 28.3124Z" fill="#231F20"/>
<path d="M83.5128 47.7511C83.5128 47.7511 59.2359 81.4569 53.4857 60.9575C47.7355 40.458 58.681 32.5342 58.681 32.5342" fill="white"/>
<path d="M59.9711 68.0563C59.6014 68.0555 59.2324 68.0231 58.8682 67.9592C56.0937 67.474 54.1654 65.1862 53.021 61.0891C50.0176 50.3645 51.6337 43.0646 53.4926 38.8704C55.5388 34.2603 58.2856 32.236 58.4035 32.1459C58.5076 32.0884 58.6292 32.0712 58.7452 32.0974C58.8611 32.1236 58.9635 32.1914 59.0327 32.288C59.102 32.3846 59.1334 32.5032 59.121 32.6214C59.1086 32.7396 59.0532 32.8491 58.9653 32.9292C58.8613 33.0055 48.3806 40.9363 53.9574 60.8326C54.9839 64.5138 56.6972 66.5935 59.0347 67.0095C67.7813 68.5624 82.9718 47.6816 83.1244 47.4667C83.1615 47.4124 83.2095 47.3663 83.2653 47.3314C83.321 47.2964 83.3834 47.2733 83.4485 47.2636C83.5136 47.2538 83.58 47.2576 83.6436 47.2746C83.7072 47.2917 83.7666 47.3217 83.818 47.3627C83.8721 47.4 83.918 47.4478 83.9531 47.5033C83.9881 47.5588 84.0115 47.6208 84.0219 47.6856C84.0323 47.7504 84.0294 47.8167 84.0134 47.8803C83.9975 47.944 83.9687 48.0037 83.929 48.056C83.2978 48.881 69.3628 68.0563 59.9711 68.0563Z" fill="#231F20"/>
<path d="M212.049 125.867C212.049 125.867 178.172 120.661 178.061 128.356C177.95 136.051 194.854 150.914 205.411 152.405" fill="white"/>
<path d="M205.397 152.89H205.314C194.556 151.371 177.43 136.252 177.569 128.355C177.578 127.907 177.687 127.467 177.889 127.066C178.091 126.665 178.379 126.315 178.734 126.04C184.456 121.187 210.994 125.222 212.125 125.395C212.244 125.423 212.349 125.494 212.417 125.596C212.486 125.697 212.514 125.82 212.496 125.941C212.477 126.062 212.414 126.171 212.318 126.248C212.222 126.324 212.101 126.361 211.979 126.352C211.702 126.31 184.748 122.234 179.379 126.782C179.13 126.966 178.926 127.205 178.783 127.48C178.64 127.755 178.561 128.059 178.554 128.369C178.443 135.739 195.305 150.498 205.487 151.94C205.606 151.96 205.713 152.024 205.788 152.119C205.863 152.214 205.899 152.333 205.89 152.453C205.882 152.574 205.829 152.686 205.741 152.77C205.654 152.853 205.538 152.901 205.418 152.904L205.397 152.89Z" fill="#231F20"/>
<path d="M201.152 187.178C201.051 187.178 200.953 187.146 200.871 187.087C200.789 187.029 200.728 186.946 200.695 186.851C200.662 186.756 200.66 186.653 200.688 186.556C200.717 186.459 200.774 186.374 200.854 186.312L213.866 176.357C213.917 176.315 213.975 176.284 214.038 176.266C214.101 176.248 214.167 176.243 214.232 176.251C214.298 176.26 214.36 176.281 214.416 176.315C214.473 176.349 214.522 176.393 214.56 176.447C214.602 176.497 214.634 176.555 214.653 176.618C214.672 176.682 214.677 176.748 214.669 176.813C214.66 176.879 214.638 176.941 214.604 176.998C214.569 177.054 214.524 177.102 214.47 177.14L201.464 187.102C201.371 187.16 201.261 187.186 201.152 187.178Z" fill="#231F20"/>
<path d="M206.007 196.641C205.89 196.639 205.778 196.595 205.69 196.518C205.602 196.44 205.545 196.334 205.529 196.218C205.411 195.275 202.581 190.152 200.777 187.053L186.829 180.121C186.771 180.093 186.72 180.055 186.678 180.007C186.635 179.96 186.603 179.905 186.582 179.845C186.562 179.785 186.553 179.721 186.557 179.658C186.562 179.595 186.578 179.533 186.607 179.476C186.635 179.418 186.674 179.367 186.722 179.325C186.77 179.283 186.826 179.25 186.886 179.23C186.947 179.209 187.011 179.2 187.075 179.205C187.139 179.209 187.201 179.226 187.259 179.254L201.339 186.228C201.423 186.27 201.493 186.335 201.54 186.415C202.026 187.254 206.299 194.61 206.486 196.079C206.502 196.206 206.467 196.334 206.389 196.435C206.311 196.536 206.196 196.603 206.07 196.62L206.007 196.641Z" fill="#231F20"/>
<path d="M263.925 116.404C259.263 113.113 253.936 110.884 248.319 109.874C247.799 105.922 246.339 102.153 244.063 98.8806C241.786 95.6083 238.759 92.9286 235.234 91.0656C231.709 89.2025 227.788 88.2103 223.801 88.1721C219.814 88.1338 215.875 89.0505 212.315 90.8455C208.754 92.6405 205.676 95.2616 203.337 98.4895C200.998 101.717 199.467 105.458 198.871 109.399C198.275 113.34 198.632 117.366 199.912 121.14C201.193 124.915 203.359 128.328 206.229 131.094C202.913 137.81 201.593 145.336 202.424 152.779C203.256 160.222 206.205 167.271 210.922 173.09C215.638 178.91 221.925 183.256 229.038 185.614C236.15 187.972 243.789 188.243 251.051 186.395C258.313 184.547 264.892 180.657 270.01 175.187C275.128 169.716 278.57 162.894 279.927 155.529C281.285 148.164 280.502 140.564 277.671 133.629C274.839 126.695 270.079 120.717 263.953 116.404H263.925Z" fill="white"/>
<path d="M241.271 188.1C234.562 188.082 227.966 186.365 222.101 183.109C216.235 179.853 211.291 175.164 207.729 169.48C204.168 163.797 202.106 157.304 201.736 150.608C201.365 143.913 202.699 137.232 205.612 131.191C202.745 128.352 200.595 124.872 199.339 121.039C198.082 117.206 197.756 113.129 198.386 109.145C199.016 105.161 200.585 101.384 202.964 98.1249C205.342 94.8661 208.462 92.2193 212.065 90.4026C215.668 88.586 219.652 87.6517 223.688 87.6768C227.724 87.7018 231.696 88.6856 235.276 90.5468C238.857 92.4081 241.943 95.0935 244.281 98.3815C246.618 101.67 248.14 105.466 248.721 109.458C254.295 110.502 259.579 112.737 264.21 116.009C270.627 120.525 275.56 126.843 278.384 134.162C281.208 141.481 281.797 149.473 280.076 157.127C278.355 164.78 274.401 171.752 268.715 177.159C263.028 182.566 255.865 186.166 248.131 187.504C245.866 187.898 243.571 188.097 241.271 188.1ZM223.57 88.6601C218.686 88.6503 213.911 90.1009 209.858 92.8254C205.806 95.55 202.662 99.4238 200.83 103.949C198.998 108.474 198.562 113.443 199.579 118.217C200.595 122.992 203.018 127.353 206.535 130.74C206.609 130.811 206.659 130.903 206.678 131.004C206.697 131.105 206.683 131.209 206.639 131.302C203.361 137.936 202.054 145.37 202.874 152.723C203.693 160.076 206.605 167.04 211.263 172.79C215.922 178.54 222.132 182.835 229.158 185.165C236.184 187.496 243.731 187.764 250.904 185.939C258.078 184.114 264.578 180.272 269.634 174.868C274.69 169.464 278.09 162.725 279.431 155.448C280.773 148.172 279.999 140.664 277.201 133.814C274.404 126.964 269.7 121.059 263.648 116.799C259.04 113.537 253.767 111.333 248.208 110.345C248.107 110.328 248.014 110.279 247.943 110.206C247.871 110.132 247.826 110.037 247.812 109.936C247.042 104.054 244.157 98.6525 239.697 94.7382C235.237 90.8239 229.506 88.6637 223.57 88.6601Z" fill="#231F20"/>
<path d="M237.429 203.636H237.332C237.206 203.611 237.095 203.537 237.023 203.43C236.952 203.324 236.926 203.193 236.95 203.067L241.972 178.076C241.985 178.014 242.01 177.955 242.045 177.903C242.081 177.85 242.126 177.806 242.179 177.771C242.232 177.736 242.291 177.712 242.353 177.7C242.415 177.688 242.479 177.689 242.541 177.701C242.603 177.714 242.661 177.739 242.714 177.774C242.766 177.81 242.811 177.855 242.846 177.908C242.881 177.961 242.905 178.02 242.917 178.082C242.928 178.144 242.928 178.208 242.915 178.27L237.9 203.227C237.882 203.34 237.825 203.442 237.739 203.517C237.653 203.592 237.543 203.634 237.429 203.636Z" fill="#231F20"/>
<path d="M247.216 207.872C247.093 207.868 246.975 207.822 246.883 207.74C246.189 207.047 240.751 204.911 237.394 203.657L222.224 207.158C222.161 207.177 222.094 207.183 222.028 207.175C221.962 207.168 221.898 207.147 221.841 207.114C221.783 207.081 221.733 207.036 221.694 206.983C221.654 206.93 221.626 206.869 221.611 206.804C221.595 206.74 221.594 206.673 221.605 206.607C221.617 206.542 221.642 206.48 221.679 206.425C221.715 206.369 221.763 206.322 221.819 206.286C221.874 206.25 221.937 206.226 222.002 206.215L237.318 202.686C237.409 202.662 237.504 202.662 237.595 202.686C238.497 203.026 246.467 206.007 247.549 207.019C247.64 207.111 247.692 207.236 247.692 207.365C247.692 207.495 247.64 207.62 247.549 207.712C247.461 207.805 247.343 207.862 247.216 207.872Z" fill="#231F20"/>
<path d="M237.429 203.636H237.359L222.835 201.556C222.708 201.537 222.594 201.469 222.517 201.366C222.441 201.264 222.408 201.135 222.426 201.008C222.434 200.946 222.455 200.886 222.487 200.832C222.518 200.777 222.561 200.73 222.611 200.692C222.661 200.654 222.719 200.626 222.78 200.61C222.841 200.594 222.904 200.591 222.967 200.599L237.491 202.679C237.618 202.687 237.736 202.746 237.82 202.841C237.904 202.937 237.947 203.062 237.938 203.189C237.93 203.316 237.872 203.434 237.776 203.518C237.681 203.602 237.556 203.644 237.429 203.636Z" fill="#231F20"/>
<path d="M201.152 187.178C201.016 187.177 200.887 187.122 200.791 187.025L190.144 175.448C190.087 175.406 190.04 175.352 190.007 175.29C189.973 175.227 189.953 175.158 189.949 175.088C189.945 175.017 189.956 174.946 189.982 174.881C190.008 174.815 190.048 174.755 190.099 174.707C190.15 174.658 190.212 174.621 190.279 174.598C190.346 174.576 190.417 174.568 190.488 174.576C190.558 174.584 190.626 174.607 190.686 174.644C190.747 174.681 190.798 174.731 190.838 174.789L201.492 186.367C201.583 186.459 201.635 186.584 201.635 186.713C201.635 186.843 201.583 186.968 201.492 187.06C201.397 187.14 201.276 187.182 201.152 187.178Z" fill="#231F20"/>
<path d="M201.533 106.193L181.453 101.52L200.458 113.201C200.458 113.201 202.928 109.735 201.533 106.193Z" fill="white"/>
<path d="M200.458 113.694C200.37 113.694 200.284 113.67 200.209 113.624L181.196 101.908C181.102 101.846 181.031 101.753 180.998 101.645C180.965 101.536 180.971 101.42 181.014 101.315C181.058 101.211 181.137 101.125 181.237 101.072C181.338 101.02 181.453 101.004 181.564 101.028L201.638 105.7C201.714 105.716 201.785 105.751 201.845 105.802C201.904 105.853 201.95 105.918 201.977 105.991C203.462 109.742 200.985 113.312 200.881 113.465C200.837 113.537 200.775 113.596 200.701 113.636C200.626 113.676 200.543 113.696 200.458 113.694ZM184.214 102.671L200.299 112.55C200.833 111.614 202.005 109.132 201.138 106.608L184.214 102.671Z" fill="#231F20"/>
<path d="M200.458 113.201L181.425 115.461L198.377 116.217C198.377 116.217 200.007 116.466 200.458 113.201Z" fill="white"/>
<path d="M198.419 116.702H198.301L181.432 115.953C181.313 115.944 181.202 115.891 181.12 115.805C181.037 115.719 180.989 115.606 180.985 115.487C180.981 115.368 181.02 115.251 181.096 115.16C181.172 115.068 181.28 115.007 181.397 114.99L200.458 112.723C200.532 112.713 200.607 112.721 200.677 112.746C200.747 112.772 200.81 112.814 200.861 112.868C200.913 112.922 200.951 112.987 200.974 113.057C200.997 113.128 201.003 113.204 200.992 113.277C200.493 116.466 198.877 116.702 198.419 116.702ZM187.397 115.246L198.384 115.731C198.447 115.731 199.425 115.78 199.89 113.763L187.397 115.246Z" fill="#231F20"/>
<path d="M218.273 104.275C218.829 102.926 218.487 101.507 217.51 101.104C216.532 100.702 215.289 101.469 214.733 102.818C214.177 104.166 214.519 105.586 215.497 105.989C216.474 106.391 217.717 105.624 218.273 104.275Z" fill="#231F20"/>
<path d="M210.846 102.229C211.402 100.881 211.061 99.4609 210.083 99.0584C209.105 98.6558 207.862 99.4229 207.306 100.772C206.75 102.12 207.092 103.54 208.07 103.943C209.047 104.345 210.29 103.578 210.846 102.229Z" fill="#231F20"/>
<path d="M242.555 125.915C242.555 125.915 279.393 105.638 282.237 112.848C285.081 120.057 266.353 144.342 248.645 149.902" fill="white"/>
<path d="M248.645 150.38C248.524 150.39 248.405 150.353 248.31 150.279C248.215 150.204 248.153 150.096 248.134 149.977C248.116 149.857 248.143 149.736 248.211 149.636C248.278 149.536 248.381 149.465 248.499 149.438C261.171 145.465 275.176 131.302 280.302 120.571C281.876 117.271 282.383 114.595 281.786 113.028C281.686 112.79 281.533 112.578 281.34 112.406C281.147 112.235 280.918 112.108 280.669 112.037C273.56 109.479 243.096 126.172 242.77 126.338C242.714 126.369 242.654 126.388 242.591 126.395C242.529 126.403 242.465 126.397 242.405 126.38C242.282 126.345 242.179 126.263 242.118 126.151C242.056 126.04 242.041 125.909 242.076 125.787C242.111 125.664 242.194 125.561 242.305 125.5C243.574 124.806 273.449 108.418 280.975 111.129C281.354 111.244 281.703 111.442 281.996 111.71C282.289 111.977 282.518 112.307 282.667 112.674C283.395 114.519 282.868 117.396 281.155 120.993C275.939 131.912 261.678 146.318 248.769 150.367C248.729 150.376 248.687 150.381 248.645 150.38Z" fill="#231F20"/>
</g>
<defs>
<clipPath id="clip0_224_651">
<rect width="283" height="226" fill="white"/>
</clipPath>
</defs>
</svg>
