<svg width="299" height="171" viewBox="0 0 299 171" fill="none" xmlns="http://www.w3.org/2000/svg">
<g clip-path="url(#clip0_172_184)">
<path d="M140.23 42.8801V102.077C140.23 116.632 128.413 128.445 113.855 128.445H54.8384L40.933 148.482L37.1465 153.965V128.445H31.4668C17.6266 128.445 6.13667 117.742 5.15742 103.97C5.09213 103.318 5.09213 102.73 5.09213 102.077V42.8801C5.09213 28.3256 16.9085 16.5122 31.4015 16.5122C31.4015 16.5122 31.4015 16.5122 31.4668 16.5122H113.79C128.413 16.5122 140.23 28.3256 140.23 42.8801Z" fill="white"/>
<path d="M113.855 16.5124C128.413 16.5124 140.23 28.3257 140.23 42.8803V102.078C140.23 116.632 128.413 128.446 113.855 128.446H54.8384L40.933 148.483L37.1465 153.965V128.446H31.4668C17.6266 128.446 6.13668 117.742 5.15742 103.97C5.09214 103.318 5.09214 102.73 5.09214 102.078V42.8803C5.09214 28.3257 16.9085 16.5124 31.4015 16.5124C31.4015 16.5124 31.4015 16.5124 31.4668 16.5124H113.855ZM113.855 15.5986H31.4668C16.3862 15.5986 4.17816 27.8036 4.17816 42.8803V102.078C4.17816 102.73 4.17816 103.383 4.24345 104.036C5.28799 118.264 17.1696 129.294 31.4668 129.294H36.2325V153.9C36.2325 154.291 36.4937 154.618 36.8854 154.748C36.9506 154.748 37.0812 154.814 37.1465 154.814C37.4076 154.814 37.7341 154.683 37.8646 154.422L41.6511 148.939L55.2954 129.294H113.79C128.87 129.294 141.078 117.089 141.078 102.012V42.8803C141.078 27.8036 128.87 15.5986 113.855 15.5986Z" fill="#231F20"/>
<path d="M297.76 58.284V117.481C297.76 131.383 286.923 142.935 273.082 143.784V169.369L271.516 167.084L256.566 145.546L255.39 143.849H188.997C174.438 143.849 162.622 132.036 162.622 117.481V58.284C162.622 43.7294 174.438 31.916 188.997 31.916H271.32C285.943 31.916 297.76 43.7294 297.76 58.284Z" fill="white"/>
<path d="M271.385 31.9158C285.943 31.9158 297.76 43.7292 297.76 58.2838V117.481C297.76 131.383 286.922 142.935 273.082 143.784V169.369L271.516 167.084L256.566 145.546L255.39 143.849H188.997C174.438 143.849 162.622 132.036 162.622 117.481V58.2838C162.622 43.7292 174.438 31.9158 188.997 31.9158H271.385ZM271.385 31.0674H188.997C173.916 31.0674 161.773 43.2723 161.708 58.3491V117.481C161.708 132.558 173.916 144.698 188.997 144.763H254.868L255.782 146.068L270.732 167.606L272.299 169.891C272.495 170.152 272.756 170.282 273.017 170.282C273.082 170.282 273.213 170.282 273.278 170.217C273.67 170.086 273.931 169.76 273.931 169.369V144.632C287.902 143.262 298.608 131.514 298.608 117.481V58.2838C298.608 43.2723 286.4 31.0674 271.385 31.0674Z" fill="#231F20"/>
<path d="M16.9085 46.9922L17.6266 36.6799C17.6266 36.6799 21.2172 26.5635 20.7603 25.1929C20.3033 23.8223 17.1697 24.8666 15.6028 30.8059C15.6028 30.8059 13.0568 17.3609 11.8164 17.0998C10.576 16.8387 9.40087 17.6872 9.53144 19.6452C9.72729 21.4727 10.0537 23.3002 10.4454 25.0624C10.4454 25.0624 8.68275 16.904 7.11594 17.6219C5.54912 18.3399 7.11594 26.1067 7.11594 26.1067C7.11594 26.1067 5.48384 18.4704 4.24345 19.3841C3.00305 20.2979 5.15742 27.5425 5.15742 27.5425C5.15742 27.5425 1.56681 18.2746 0.783405 20.82C-1.37091e-06 23.3654 3.78646 32.5028 3.91703 35.8315C4.0476 39.1601 4.50458 53.4536 4.50458 53.4536L16.9085 46.9922Z" fill="white"/>
<path d="M4.63515 54.041C4.56987 54.041 4.50458 54.041 4.4393 53.9757C4.30873 53.9104 4.24345 53.7799 4.24345 53.5841C4.24345 53.4536 3.78646 39.2253 3.65589 35.962C3.59061 34.5913 2.87249 32.1764 2.15436 29.631C1.04454 25.8455 0.0652817 22.3211 0.522269 20.7547C0.71812 20.102 1.10982 20.0368 1.30568 20.0368C2.0238 20.0368 2.87249 21.2768 3.72118 22.9738C3.46004 21.2116 3.46004 19.6452 4.11288 19.123C4.30873 18.9272 4.63515 18.9272 4.831 18.9925C5.28799 19.1883 5.74498 19.841 6.13668 20.7547C6.0714 19.0578 6.26725 17.6219 7.05065 17.2303C7.31179 17.0997 7.63821 17.0997 7.83406 17.2303C8.4869 17.6871 8.94388 18.3398 9.20502 19.0577C9.20502 18.2745 9.53144 17.4913 10.119 16.9692C10.6413 16.5123 11.3594 16.3818 12.0775 16.5123C13.1873 16.7734 14.6889 23.039 15.864 28.8478C17.0391 25.6497 18.8017 24.1486 20.0421 24.1486C20.6297 24.0833 21.152 24.4749 21.2825 24.9971C21.7395 26.4329 18.8017 34.8524 18.1489 36.6799L17.3002 46.9921C17.3002 47.1226 17.2349 47.2532 17.1044 47.3837L4.89629 54.041C4.831 54.041 4.76572 54.041 4.63515 54.041ZM1.37096 20.9505V21.0158C0.979256 22.3211 2.0238 26.1066 3.00306 29.37C3.78646 31.9806 4.4393 34.4608 4.56987 35.8967C4.70043 38.7684 5.09214 49.8638 5.15742 52.8009L16.5168 46.6005L17.2349 36.6146C17.2349 36.5494 17.2349 36.5493 17.2349 36.4841C18.9976 31.589 20.6297 26.0413 20.3686 25.3234C20.3686 25.2581 20.3033 25.0623 19.9769 25.1276C19.0629 25.1276 17.1696 26.7593 16.0598 30.9364C15.9945 31.1322 15.7987 31.2627 15.6028 31.2627C15.407 31.2627 15.2111 31.1322 15.1459 30.8711C13.9707 24.736 12.3386 18.0135 11.6205 17.4913C11.2288 17.4261 10.8371 17.4913 10.576 17.7524C10.119 18.2745 9.85786 18.9272 9.98843 19.5799C10.119 21.4726 10.9024 24.9318 10.9024 24.9318C10.9677 25.1929 10.7718 25.3887 10.576 25.4539C10.3801 25.5192 10.119 25.3234 10.0537 25.1276C9.2703 21.4726 7.96463 18.0787 7.37707 18.0135C6.65895 18.4051 6.92009 22.4516 7.63821 26.0413C7.70349 26.3024 7.50764 26.4982 7.2465 26.5635C6.98537 26.6287 6.78952 26.4329 6.72423 26.2371C6.00611 23.039 5.02685 20.2326 4.50458 19.841C4.0476 20.3631 4.56987 23.8875 5.61441 27.4772C5.67969 27.7383 5.54913 27.9341 5.35327 27.9993C5.15742 28.0646 4.89629 27.9341 4.76572 27.7383C3.65589 24.8013 2.08908 21.4726 1.37096 20.9505Z" fill="#231F20"/>
<path d="M141.013 83.0195C141.013 83.0195 146.171 79.6256 147.15 77.4718C148.129 75.318 148.129 71.1409 149.174 69.1176C150.218 67.0943 151.981 70.0314 150.871 75.8401C150.871 75.8401 158.379 63.4394 159.162 64.9405C159.945 66.4417 159.162 66.6375 157.203 70.684C157.203 70.684 158.705 66.3764 160.402 67.3554C162.1 68.3344 157.856 73.6863 157.856 73.6863C157.856 73.6863 161.186 68.9218 162.1 70.684C163.014 72.4462 158.705 76.8844 158.705 76.8844C158.705 76.8844 163.275 71.2062 163.536 73.2947C163.797 75.3833 158.313 82.4321 147.15 91.3737" fill="white"/>
<path d="M147.15 91.7656C147.019 91.7656 146.889 91.7003 146.823 91.635C146.693 91.4392 146.693 91.2434 146.889 91.1129C158.313 81.9755 163.34 75.1224 163.144 73.4255C163.144 73.3602 163.144 73.3602 163.144 73.295C162.883 73.295 161.904 74.0782 160.794 75.253C160.272 75.9709 159.684 76.6236 159.031 77.2762C158.836 77.4068 158.64 77.4068 158.444 77.211C158.313 77.0804 158.313 76.8846 158.444 76.7541C158.836 76.232 159.488 75.4488 160.207 74.7308C161.316 73.295 162.165 71.7285 161.773 71.0106C161.708 70.8148 161.578 70.8148 161.512 70.8148C160.859 70.7495 159.75 71.9243 158.836 73.0991C158.509 73.556 158.183 73.9476 158.118 74.0782C157.987 74.274 157.726 74.274 157.595 74.1434C157.399 74.0129 157.399 73.7518 157.53 73.6213C157.66 73.4255 157.922 73.0992 158.248 72.6423C159.358 71.0759 160.533 69.0526 160.337 68.1388C160.337 68.0083 160.272 67.943 160.141 67.8778C160.011 67.7472 159.815 67.7472 159.619 67.8125C159.293 68.0083 158.966 68.2694 158.77 68.5957C158.444 69.2484 158.052 69.9663 157.53 71.0106C157.465 71.2064 157.204 71.2717 157.008 71.2064C156.812 71.1411 156.747 70.8801 156.812 70.6843C157.138 69.7705 157.595 68.922 158.118 68.1388L158.248 67.943C159.031 66.5072 159.227 66.1808 158.836 65.3976C157.791 65.9198 154.2 71.2064 151.197 76.232C151.067 76.4278 150.871 76.493 150.74 76.3625C150.545 76.2972 150.479 76.1014 150.479 75.9056C151.328 71.5327 150.414 69.2484 149.892 69.0526C149.761 68.9873 149.631 69.2484 149.5 69.4442C148.978 70.7495 148.651 72.1201 148.521 73.556C148.39 74.9919 147.998 76.4278 147.542 77.7984C146.497 80.0175 141.47 83.3461 141.209 83.5419C141.013 83.6724 140.817 83.6072 140.687 83.4114C140.556 83.2156 140.621 82.9545 140.817 82.8892C140.883 82.8892 145.909 79.4953 146.823 77.5373C147.28 76.232 147.607 74.9266 147.737 73.556C147.868 72.0549 148.26 70.619 148.782 69.2484C149.304 68.2694 149.892 68.3999 150.153 68.4652C151.132 68.7915 151.85 71.0106 151.524 74.274C153.874 70.4885 157.726 64.6797 158.966 64.6797C159.162 64.6797 159.358 64.8102 159.488 65.006C159.88 65.6587 159.945 66.4419 159.619 67.0946C159.945 67.0293 160.272 67.0946 160.598 67.2904C160.925 67.4862 161.121 67.7472 161.186 68.1388C161.251 68.9873 160.99 69.7705 160.598 70.4885C160.925 70.2927 161.251 70.1621 161.643 70.1621C162.035 70.1621 162.361 70.4232 162.557 70.7495C162.818 71.5327 162.753 72.3812 162.361 73.0339C162.687 72.7728 163.079 72.6423 163.471 72.7075C163.797 72.8381 164.058 73.1644 164.058 73.4908C164.319 75.8404 158.64 83.085 147.476 91.8961C147.346 91.7003 147.215 91.7656 147.15 91.7656Z" fill="#231F20"/>
<path d="M50.3991 12.9227C48.7017 16.904 47.9183 21.1463 47.3961 25.4539L49.4851 22.1253C48.1795 24.1486 48.767 28.2604 48.8976 30.5448C49.0934 34.004 49.7463 37.4631 50.7908 40.7265C51.1172 39.0295 51.5742 37.3978 52.2923 35.8314L55.0343 42.5539C55.6218 44.2509 56.4705 45.8826 57.5151 47.3837C61.3015 52.083 69.8537 52.4093 75.2723 51.2998C79.7768 50.3207 87.7415 46.6005 86.8275 40.5959L87.2192 43.2066C90.2875 38.181 91.3321 32.2417 90.157 26.4982L94.1393 31.8501C94.6616 25.5845 93.2906 19.2536 90.2223 13.7711C87.1539 8.28869 83.6939 5.28639 78.21 2.15357C76.6432 1.23983 74.1624 0.782959 73.379 2.47991C69.5273 -0.130781 64.3046 -0.130783 60.1264 1.95777C55.9482 4.04632 52.8146 7.76655 50.8561 11.9436C50.6603 12.3352 50.5297 12.5963 50.3991 12.9227Z" fill="white"/>
<path d="M69.5926 52.3441C64.7616 52.3441 59.7347 51.0388 57.0581 47.7102C55.9482 46.209 55.0995 44.5773 54.512 42.8151L52.2271 37.0716C51.7701 38.3117 51.4437 39.5518 51.1825 40.8571C51.1172 41.1182 50.9214 41.2487 50.6602 41.2487C50.4644 41.2487 50.3338 41.1182 50.3338 40.9224C49.2893 37.5937 48.6364 34.1346 48.4406 30.6101C48.4406 30.2838 48.3753 29.8922 48.3753 29.4353C48.2447 27.9342 48.1795 26.4331 48.2447 24.9319L47.7878 25.7151C47.6572 25.9109 47.4613 25.9762 47.2655 25.9109C47.0696 25.8456 46.9391 25.6498 47.0043 25.454C47.4613 21.8643 48.1795 17.1651 50.0727 12.7922C50.2033 12.4659 50.3338 12.2048 50.4644 11.8785C52.6188 7.17923 56.0135 3.52428 59.9306 1.63153C64.3699 -0.52229 69.5273 -0.391755 73.2485 1.95786C73.5096 1.56626 73.9013 1.30519 74.3583 1.17466C75.664 0.717788 77.3613 1.30519 78.4059 1.8926C84.3467 5.22122 87.6109 8.41931 90.614 13.6407C93.7476 19.1884 95.1185 25.5846 94.5963 31.9808C94.5963 32.1766 94.4657 32.3071 94.2699 32.3724C94.074 32.4376 93.8782 32.3724 93.8129 32.2418L90.9404 28.3911C91.5279 33.6777 90.3528 39.0296 87.5456 43.5331C87.4803 43.6636 87.2845 43.7941 87.0886 43.7289C87.0233 43.7289 87.0233 43.7289 86.9581 43.6636C85.4565 48.0365 79.5157 50.9082 75.3375 51.822C73.379 52.1483 71.4858 52.3441 69.5926 52.3441ZM52.2271 35.4399C52.4229 35.4399 52.5535 35.5705 52.6188 35.701L55.2954 42.4235C55.8829 44.1205 56.6664 45.6869 57.7109 47.1227C61.4974 51.7567 70.1148 51.8872 75.0111 50.843C79.7768 49.7987 87.0233 46.1437 86.2399 40.6613C86.1747 40.4002 86.3705 40.2044 86.6316 40.1392C86.8928 40.0739 87.0886 40.2697 87.1539 40.5308L87.3498 41.8361C89.8958 37.2021 90.6792 31.785 89.6347 26.5636C89.5694 26.3025 89.7653 26.1067 90.0264 26.0414C90.2223 26.0414 90.3528 26.1067 90.4834 26.2372L93.7476 30.6101C94.0087 24.8014 92.6378 19.0579 89.7653 14.0323C86.8928 8.94145 83.6939 5.87389 77.9489 2.61053C76.9696 2.0884 75.5987 1.63153 74.6194 1.95786C74.2277 2.0884 73.9013 2.34946 73.7707 2.6758C73.7054 2.80633 73.6402 2.8716 73.5096 2.93687C73.379 3.00214 73.2485 2.93687 73.1179 2.8716C69.5926 0.456719 64.5657 0.260915 60.3223 2.34946C56.6011 4.17695 53.3369 7.63611 51.2478 12.1395C51.1172 12.4006 50.9867 12.7269 50.8561 12.988C49.4851 16.3166 48.5712 19.8411 48.1142 23.4308L49.0934 21.8643C49.224 21.6685 49.5504 21.6685 49.7463 21.7991C49.8768 21.9296 49.9421 22.1254 49.8768 22.3212C48.8323 23.9529 49.0934 27.0205 49.2893 29.3048C49.2893 29.6964 49.3546 30.088 49.3546 30.4796C49.4851 33.3514 49.9421 36.1579 50.7255 38.8991C50.9867 37.7895 51.3784 36.68 51.8354 35.6357C51.9006 35.5705 52.0312 35.4399 52.2271 35.4399Z" fill="#231F20"/>
<path d="M96.3589 128.446H56.4052C53.7939 100.577 50.138 55.216 53.9244 49.5378C54.7078 48.4282 55.7524 47.4492 56.9275 46.7966C57.4498 46.4702 58.0373 46.2092 58.6249 46.0133C61.4974 44.8385 65.088 44.3164 68.7439 44.2511C71.6816 44.1859 74.5541 44.3817 77.4266 44.7733H77.4919C79.9727 45.0996 82.3882 45.6218 84.7384 46.405C85.0648 46.5355 85.326 46.666 85.6524 46.7966C89.0471 48.4935 94.531 107.626 96.3589 128.446Z" fill="white"/>
<path d="M107.066 128.446H54.8384L51.7701 132.884L40.9983 148.483C40.4107 142.87 39.8231 137.583 39.3009 132.492C37.4729 114.674 36.2978 100.316 35.7103 88.8286C35.7103 88.7634 35.7103 88.6328 35.7103 88.5676C34.731 67.8126 35.8408 56.3908 39.4314 50.5168C40.8024 48.2977 42.6304 46.4702 44.7847 45.0344C47.7225 43.1416 51.052 41.9668 54.512 41.5099C55.883 41.3141 57.2539 41.1836 58.5596 41.1836C59.4083 41.1836 59.8653 41.1836 59.8653 41.1836C59.8653 41.1836 62.8031 41.0531 66.9812 40.9878H68.548C72.2692 40.9878 76.7085 41.0531 80.8867 41.3794C82.9105 41.5099 84.9343 41.771 86.7622 42.0321H86.8928L87.6762 42.1626C89.8959 42.4889 92.1155 43.2069 94.1393 44.1859C94.9227 44.6428 95.7061 46.0134 96.4895 47.9714C96.4895 48.0366 96.5548 48.0366 96.5548 48.1019C97.2729 50.1252 97.8605 52.1485 98.3175 54.237C101.19 66.5073 103.54 87.5886 105.172 105.145C105.564 109.518 105.956 113.695 106.217 117.481C106.478 120.483 106.674 123.224 106.87 125.574C106.935 126.488 107 127.532 107.066 128.446Z" fill="#65E3FF"/>
<path d="M58.6902 50.7124L77.5572 91.3739L78.1448 54.3021L58.6902 50.7124Z" fill="white"/>
<path d="M77.5572 91.8306C77.3613 91.8306 77.2308 91.7 77.1655 91.5695L58.2985 50.908C58.2332 50.7775 58.2332 50.5817 58.3637 50.4512C58.429 50.3206 58.6249 50.2554 58.7555 50.2554L78.21 53.7798C78.4059 53.8451 78.6017 53.9756 78.6017 54.2367L78.0142 91.3737C78.0142 91.5695 77.8836 91.7653 77.6878 91.8306H77.5572ZM59.4736 51.3649L77.1655 89.4157L77.6878 54.6935L59.4736 51.3649Z" fill="#231F20"/>
<path d="M77.3613 42.4886L78.1447 54.2367C78.1447 54.2367 75.0111 61.0897 67.3729 58.8706C59.7347 56.6515 58.6902 50.647 58.6902 50.647C58.6902 50.647 58.2985 28.4561 58.2985 27.934C58.2985 27.2813 63.3906 23.4958 64.1087 22.5821C66.0672 20.0367 67.5688 17.0996 68.4175 14.0321L68.4827 17.3607C70.6371 15.6638 72.3345 13.3794 73.3137 10.834C74.4236 13.3794 77.1655 14.75 79.5157 16.2512C85.2607 19.9714 85.9788 29.6309 84.7384 35.8966C83.5633 41.9012 77.3613 42.4886 77.3613 42.4886Z" fill="white"/>
<path d="M70.3107 59.7848C69.2662 59.7848 68.2216 59.6543 67.2424 59.3932C59.4083 57.1088 58.2332 51.1043 58.2332 50.8432C58.1679 48.4936 57.8415 28.5218 57.8415 28.065C57.8415 27.6081 58.6249 26.8249 61.3668 24.5405C62.2155 23.8879 62.9989 23.1699 63.7823 22.3867C65.7408 19.9066 67.1771 17.0348 67.9605 13.9672C68.0258 13.7062 68.2869 13.5756 68.548 13.6409C68.7439 13.7062 68.8745 13.8367 68.8745 14.0325L68.9397 16.4474C70.7024 14.881 72.0734 12.8577 72.9221 10.6386C72.9873 10.3775 73.3138 10.3123 73.5096 10.3775C73.6402 10.4428 73.7055 10.5081 73.7708 10.6386C74.6847 12.6619 76.7085 13.9672 78.7323 15.2073L79.7769 15.86C85.9135 19.8413 86.3705 30.0882 85.1954 35.9623C84.1509 41.2489 79.3199 42.5543 77.8183 42.8153L78.6018 54.1718C78.6018 54.2371 78.6018 54.3024 78.5365 54.3676C78.5365 54.4982 76.0557 59.7848 70.3107 59.7848ZM68.0258 16.6432C67.1771 18.8623 65.9367 21.0161 64.5004 22.9088C63.717 23.6921 62.8684 24.4753 61.9544 25.1932C60.714 26.1722 58.886 27.7386 58.7555 28.1302C58.7555 28.5218 59.0166 43.0764 59.1472 50.7127C59.1472 50.8432 60.257 56.3909 67.5035 58.4795C71.4858 59.7848 75.8598 57.9573 77.6878 54.1718L76.9044 42.489C76.9044 42.2279 77.1002 42.0321 77.2961 42.0321C77.5572 42.0321 83.1716 41.3795 84.2815 35.8317C85.3913 30.1535 84.9996 20.4287 79.2546 16.6432C78.9282 16.4474 78.6018 16.1863 78.2101 15.9905C76.3821 14.8157 74.4889 13.6409 73.379 11.8787C72.3345 14.163 70.7677 16.1863 68.7439 17.7527C68.548 17.8833 68.2869 17.8833 68.0911 17.6875C68.0258 17.6222 68.0258 17.4917 68.0258 17.4264V16.6432Z" fill="#231F20"/>
<path d="M77.5572 48.2977C74.6194 48.4935 71.8122 47.4492 69.7231 45.3607C66.4589 41.9015 66.8506 40.0088 66.8506 40.0088C66.8506 40.0088 72.2039 43.2722 77.3613 42.4889L77.5572 48.2977Z" fill="#231F20"/>
<path d="M76.9044 48.7544C74.0972 48.7544 71.4205 47.6448 69.462 45.6868C66.1325 42.1624 66.3937 40.2044 66.4589 40.0086C66.4589 39.8781 66.5895 39.7475 66.7201 39.6823C66.8506 39.617 66.9812 39.617 67.1118 39.6823C67.1771 39.6823 72.3998 42.8803 77.2961 42.0971C77.4266 42.0971 77.5572 42.0971 77.6225 42.1624C77.6878 42.2277 77.7531 42.3582 77.7531 42.4887L77.9489 48.2975C77.9489 48.4933 77.8183 48.6891 77.5572 48.7544C77.5572 48.7544 77.2961 48.7544 76.9044 48.7544ZM67.3729 40.8571C67.5688 41.6403 68.1563 43.0761 70.0496 45.0994C71.9428 46.9269 74.4889 47.9712 77.1002 47.9059L76.9044 43.0109C72.922 43.4677 68.9397 41.6403 67.3729 40.8571Z" fill="#231F20"/>
<path d="M76.1862 23.3003C76.1862 23.3003 79.5157 30.2186 78.3406 31.1976C77.1655 32.1766 74.4889 31.0018 74.4889 31.0018" fill="white"/>
<path d="M77.035 32.0461C76.121 31.9808 75.207 31.785 74.3583 31.4587C74.0972 31.3934 73.9666 31.1323 74.0319 30.9365C74.0972 30.6755 74.3583 30.5449 74.5542 30.6102C74.5542 30.6102 74.6195 30.6102 74.6195 30.6755C75.2723 30.9365 77.2961 31.5892 78.0795 30.9365C78.5365 30.5449 77.4919 27.0205 75.7946 23.5613C75.664 23.3655 75.7946 23.1045 75.9904 22.9739C76.1863 22.8434 76.4474 22.9739 76.578 23.1697C77.6225 25.3236 79.9074 30.5449 78.6018 31.5892C78.2101 31.9155 77.6225 32.0461 77.035 32.0461Z" fill="#231F20"/>
<path d="M72.5994 22.0047C72.715 21.0384 72.4605 20.2134 72.0309 20.162C71.6014 20.1106 71.1593 20.8523 71.0437 21.8187C70.928 22.785 71.1826 23.61 71.6121 23.6614C72.0417 23.7128 72.4837 22.9711 72.5994 22.0047Z" fill="#231F20"/>
<path d="M81.4962 22.7689C81.6119 21.8026 81.3574 20.9775 80.9278 20.9262C80.4982 20.8748 80.0562 21.6165 79.9405 22.5828C79.8249 23.5491 80.0794 24.3742 80.509 24.4256C80.9386 24.477 81.3806 23.7352 81.4962 22.7689Z" fill="#231F20"/>
<path d="M64.5005 25.0627C63.8476 23.8879 62.9989 22.7783 62.0197 21.8646C60.7793 20.8203 58.886 20.8203 57.6457 21.9299C56.9275 22.5825 56.4053 23.3657 56.1441 24.3447C54.969 28.3913 57.3192 31.1325 60.8446 32.5684" fill="white"/>
<path d="M60.8445 32.9597C60.7792 32.9597 60.714 32.9597 60.6487 32.8945C56.4052 31.1975 54.5773 27.9994 55.6871 24.1487C55.9482 23.1044 56.5358 22.1906 57.3192 21.538C58.7555 20.2979 60.8445 20.2979 62.2808 21.538C63.3253 22.4517 64.2393 23.5613 64.8921 24.8666C65.0227 25.0624 64.8921 25.3235 64.6963 25.454C64.5004 25.5845 64.2393 25.454 64.1087 25.2582C63.5212 24.0834 62.6725 23.1044 61.6932 22.2559C60.5834 21.3422 58.9513 21.3422 57.9068 22.3212C57.2539 22.9086 56.7969 23.6265 56.5358 24.5403C55.1648 29.3048 59.1472 31.4586 60.9751 32.1765C61.171 32.2418 61.3015 32.5029 61.2362 32.7639C61.171 32.8945 60.9751 32.9597 60.8445 32.9597Z" fill="#231F20"/>
<path d="M75.7945 38.3119C73.3137 38.3119 72.5956 35.5054 72.5303 34.0695C72.5303 33.939 72.5956 33.8084 72.6609 33.7432C72.7262 33.6779 72.8568 33.6126 72.9873 33.6779L79.3851 34.6569C79.6463 34.7222 79.7768 34.918 79.7116 35.1791V35.2443C79.4504 36.2886 78.21 38.3119 75.7945 38.3119ZM73.4443 34.5917C73.5749 35.5707 74.0319 37.4634 75.7945 37.4634C77.1002 37.3981 78.2753 36.6149 78.7323 35.3749L73.4443 34.5917Z" fill="#231F20"/>
<path d="M96.4895 47.8408C96.4895 47.8408 115.487 87.7191 118.751 88.5023C124.431 89.8729 144.93 78.3206 144.93 78.3206L151.72 90.2645C151.72 90.2645 130.698 117.22 115.748 113.369C104.65 110.497 93.3559 85.1736 93.3559 85.1736L96.4895 47.8408Z" fill="#65E3FF"/>
<path d="M44.7194 45.0343C44.7194 45.0343 43.6096 40.792 19.5199 74.9267C19.5199 53.8454 20.4338 43.729 20.4338 43.729L2.93777 46.0786C2.93777 46.0786 -4.63516 105.406 9.79257 107.43C24.2203 109.453 40.6718 81.3229 40.6718 81.3229L44.7194 45.0343Z" fill="#65E3FF"/>
<path d="M8.61748 40.531C8.35634 40.531 8.16049 40.3352 8.16049 40.0741C8.16049 34.5916 15.1459 30.6104 15.4723 30.4798C15.6681 30.3493 15.9293 30.4146 16.0598 30.6756C16.1904 30.8714 16.1251 31.1325 15.864 31.263C15.7987 31.3283 9.00918 35.1791 9.00918 40.1394C9.07447 40.2699 8.87861 40.4657 8.61748 40.531Z" fill="#231F20"/>
<path d="M106.87 125.9C106.609 125.9 106.413 125.705 106.413 125.509C104.846 100.381 97.9258 54.7592 97.8605 54.3024C97.7952 54.0413 97.9911 53.8455 98.2522 53.7802C98.5133 53.715 98.7092 53.9108 98.7745 54.1718C98.8398 54.6287 105.695 100.316 107.327 125.509C107.327 125.639 107.131 125.835 106.87 125.9Z" fill="#231F20"/>
<path d="M22.8493 103.187C22.7188 103.187 22.5882 103.122 22.5229 103.057C22.3271 102.861 22.3271 102.6 22.5229 102.404C22.6535 102.274 36.2978 88.4369 45.4376 75.3835C45.5681 75.1877 45.8293 75.1224 46.0251 75.253C46.0251 75.253 46.0251 75.253 46.0904 75.253C46.2862 75.3835 46.3515 75.7098 46.221 75.9056C37.0159 89.0243 23.3716 102.926 23.241 103.057C23.1105 103.122 22.9799 103.187 22.8493 103.187Z" fill="#231F20"/>
<path d="M150.871 82.106C150.806 82.106 150.74 82.106 150.74 82.0408C150.545 81.9755 150.479 81.7144 150.545 81.5186C151.654 78.9079 150.545 75.9709 150.545 75.9709C150.479 75.7751 150.545 75.5141 150.74 75.4488C150.936 75.3835 151.197 75.4488 151.263 75.6446C151.328 75.7751 152.503 78.908 151.263 81.7797C151.197 81.9755 151.067 82.106 150.871 82.106Z" fill="#231F20"/>
<path d="M59.0819 91.1129C58.886 91.1129 55.5565 90.656 52.9452 86.3484C50.3338 82.0407 51.3131 73.0991 51.3784 72.7075C51.3784 72.5117 51.5742 72.3159 51.8354 72.3159L64.4351 72.577C64.631 72.577 64.8269 72.7075 64.8921 72.9686C64.9574 73.2949 66.1978 80.9964 64.8921 84.6514C63.5865 88.3064 59.5389 91.0476 59.4083 91.1781C59.2777 91.1129 59.2124 91.1129 59.0819 91.1129ZM52.2271 73.1644C52.0965 74.9919 51.5742 82.3018 53.7286 85.8262C55.883 89.3506 58.3638 90.0033 59.0166 90.1339C59.7347 89.6117 62.9336 87.1968 64.0434 84.1945C65.1533 81.1923 64.3046 74.9266 64.1087 73.3602L52.2271 73.1644Z" fill="#231F20"/>
<path d="M255.586 33.0906C255.586 33.0906 261.527 20.494 270.993 29.4356C278.762 36.7455 266.88 54.5635 275.041 57.37C275.041 57.37 267.468 56.1299 265.444 49.9295C263.42 43.7291 264.008 41.9669 264.008 41.9669C264.008 41.9669 260.091 44.3165 256.37 42.2932C252.648 40.27 255.586 33.0906 255.586 33.0906Z" fill="white"/>
<path d="M275.106 57.7617H275.041C274.714 57.6964 267.207 56.3911 265.183 50.0602C263.812 45.9483 263.616 43.664 263.616 42.6197C262.31 43.2071 259.242 44.2514 256.239 42.6197C252.322 40.4006 255.064 33.2212 255.195 32.8949C255.325 32.6338 258.067 26.8903 262.963 25.9113C265.64 25.3892 268.447 26.4334 271.189 29.0441C275.302 32.8949 274.192 39.4869 273.148 45.2304C272.168 50.7781 271.385 55.6079 275.106 56.9132C275.302 56.9785 275.433 57.2395 275.367 57.4353C275.433 57.6964 275.302 57.7617 275.106 57.7617ZM264.073 41.5754C264.138 41.5754 264.269 41.5754 264.334 41.6407C264.465 41.7712 264.53 41.9018 264.465 42.0976C264.465 42.0976 264.008 43.9903 265.901 49.8643C267.141 53.5846 270.536 55.4773 272.886 56.3258C270.993 53.9762 271.711 49.6686 272.495 45.2304C273.474 39.6174 274.519 33.2865 270.732 29.6968C268.121 27.2819 265.575 26.3029 263.159 26.7598C258.72 27.6082 256.109 32.9602 255.978 33.2865C255.847 33.6128 253.367 40.2048 256.631 41.967C260.091 43.8598 263.812 41.706 263.877 41.6407C263.943 41.5754 264.008 41.5754 264.073 41.5754Z" fill="#231F20"/>
<path d="M263.094 40.531C262.963 41.5753 262.18 42.3585 261.201 42.6196C259.83 42.9459 258.002 42.1627 256.827 41.1184C255.782 40.1394 254.933 38.8994 254.411 37.5288C253.432 35.3097 250.168 27.0207 256.043 29.4356C261.201 31.5894 263.943 37.0719 263.094 40.531Z" fill="#231F20"/>
<path d="M260.548 43.0767C259.046 43.0115 257.675 42.4241 256.565 41.3798C255.456 40.3355 254.607 39.0954 254.085 37.6596C253.367 36.0932 251.212 30.8718 252.844 29.1748C253.497 28.4569 254.672 28.4569 256.174 29.1096C261.397 31.2634 264.334 36.9416 263.42 40.5966C263.224 41.7714 262.376 42.6851 261.266 42.9462C261.07 43.0767 260.809 43.0767 260.548 43.0767ZM254.281 29.4359C253.954 29.4359 253.628 29.5012 253.432 29.7622C252.453 30.8065 253.432 34.4615 254.803 37.4638C255.325 38.7691 256.109 39.9439 257.088 40.9229C258.132 41.8367 259.83 42.6199 261.135 42.3588C261.984 42.0977 262.637 41.3798 262.767 40.5313C263.551 37.2027 260.809 31.916 255.978 29.958C255.39 29.6317 254.868 29.5012 254.281 29.4359Z" fill="#231F20"/>
<path d="M232.737 30.9368C232.737 30.9368 226.796 18.3402 217.33 27.2818C209.496 34.5917 221.443 52.4097 213.282 55.2162C213.282 55.2162 220.855 53.9761 222.879 47.7757C224.903 41.5753 224.315 39.7478 224.315 39.7478C224.315 39.7478 228.232 42.0974 231.953 40.0742C235.675 38.0509 232.737 30.9368 232.737 30.9368Z" fill="white"/>
<path d="M213.282 55.6079C213.086 55.6079 212.891 55.4121 212.891 55.2163C212.891 55.0205 213.021 54.8899 213.152 54.8247C216.873 53.5193 216.024 48.7548 215.11 43.1418C214.131 37.3331 213.021 30.7411 217.069 26.8903C219.876 24.2796 222.618 23.2353 225.295 23.7575C230.191 24.6712 232.998 30.48 233.063 30.7411C233.194 31.0674 236.001 38.2468 232.019 40.4659C229.081 42.0976 226.013 41.0533 224.642 40.4659C224.642 41.5102 224.446 43.7945 223.075 47.9063C221.116 54.2373 213.609 55.5426 213.282 55.6079ZM223.989 24.4754C221.9 24.4754 219.745 25.5197 217.591 27.543C213.805 31.0674 214.914 37.4636 215.828 43.0766C216.612 47.58 217.33 51.8224 215.437 54.172C217.722 53.3235 221.182 51.4308 222.422 47.7106C224.381 41.8365 223.858 39.9438 223.858 39.9438C223.793 39.7479 223.924 39.4869 224.119 39.4216C224.25 39.3563 224.381 39.4216 224.446 39.4869C224.446 39.4869 228.232 41.706 231.692 39.8132C234.957 37.9857 232.476 31.459 232.345 31.1327C232.215 30.8063 229.538 25.4544 225.099 24.606C224.772 24.4754 224.381 24.4754 223.989 24.4754Z" fill="#231F20"/>
<path d="M225.229 38.4427C225.36 39.4869 226.143 40.2702 227.122 40.5312C228.493 40.8576 230.321 40.0744 231.497 39.0301C232.541 38.0511 233.39 36.811 233.912 35.4404C234.891 33.2213 238.155 24.9324 232.28 27.3472C227.122 29.5011 224.446 34.9835 225.229 38.4427Z" fill="#231F20"/>
<path d="M227.775 40.9883C227.514 40.9883 227.253 40.9883 227.057 40.923C225.947 40.6619 225.033 39.6829 224.903 38.5081C224.054 34.8531 226.927 29.1749 232.149 27.0211C233.716 26.3684 234.826 26.4337 235.479 27.0863C237.111 28.7833 234.957 34.0047 234.238 35.5711C233.651 36.9417 232.802 38.247 231.758 39.2913C230.648 40.2703 229.277 40.8577 227.775 40.9883ZM234.108 27.3474C233.52 27.4127 232.998 27.5432 232.476 27.739C227.579 29.7623 224.903 34.9837 225.686 38.3123C225.817 39.1608 226.404 39.8787 227.318 40.1398C228.624 40.4009 230.321 39.6177 231.366 38.7039C232.345 37.7249 233.129 36.5501 233.651 35.2447C235.022 32.2425 236.001 28.5875 235.022 27.6085C234.695 27.4127 234.369 27.2821 234.108 27.3474Z" fill="#231F20"/>
<path d="M235.74 26.3028C230.974 28.7177 226.861 31.9158 226.404 38.9647C225.947 46.3398 225.556 55.3467 231.627 59.9807C237.698 64.4841 245.859 65.2021 252.583 61.7429C259.242 58.0879 263.29 51.0391 263.094 43.4681C262.572 27.9998 246.838 20.6898 235.74 26.3028Z" fill="white"/>
<path d="M243.509 64.3539C239.135 64.4191 234.826 62.9833 231.366 60.3726C224.968 55.4775 225.556 45.9485 226.013 38.9649C226.47 31.5245 231.105 28.2611 235.544 25.9768C241.42 23.105 248.34 23.4314 253.889 26.8253C259.764 30.2844 263.224 36.3543 263.486 43.4684C263.681 51.1699 259.503 58.4146 252.714 62.1348C249.907 63.5707 246.708 64.3539 243.509 64.3539ZM235.675 26.3031L235.871 26.6295C231.366 28.9138 227.188 31.9814 226.731 38.9649C226.339 45.7527 225.752 55.0207 231.758 59.6546C237.698 64.0928 245.663 64.7455 252.322 61.3516C258.85 57.7619 262.833 50.8436 262.637 43.4684C262.441 36.6153 259.046 30.8066 253.432 27.4779C248.079 24.2146 241.42 23.9535 235.805 26.6947L235.675 26.3031Z" fill="#231F20"/>
<path d="M188.083 72.9037C187.756 68.1392 186.712 63.5053 184.819 59.1324C184.557 58.4797 183.905 57.6965 183.252 58.0228C183.643 60.0461 183.97 62.0694 184.362 64.0274C180.64 61.5472 177.441 58.4144 174.895 54.7594C174.7 54.3678 174.373 54.0415 173.981 53.8457C173.59 53.6499 173.067 53.7804 172.872 54.172C172.806 54.4984 172.872 54.89 173.067 55.2163C174.177 57.1743 175.418 59.0671 176.854 60.764C175.026 58.0228 173.067 55.2163 170.195 53.6499C170.521 56.7827 171.697 59.785 173.59 62.3304L168.955 57.1743C168.563 56.7175 167.845 56.1953 167.322 56.5869C166.8 56.9785 167.192 57.7617 167.518 58.2839L170.717 63.0484C169.085 61.6125 167.388 60.2419 165.625 59.0018C165.952 61.9388 168.171 64.2885 170.521 65.9854C172.872 67.6824 175.548 69.053 177.507 71.272C178.682 72.7079 179.661 74.2743 180.51 75.906" fill="white"/>
<path d="M180.575 76.3627C180.445 76.3627 180.314 76.2974 180.249 76.1669C179.465 74.5352 178.486 73.0341 177.311 71.5982C175.875 70.1623 174.308 68.857 172.545 67.8127C171.827 67.3558 171.109 66.8337 170.391 66.3768C167.257 64.1577 165.56 61.6776 165.299 59.1321C165.299 59.0016 165.364 58.8058 165.495 58.7405C165.625 58.6753 165.821 58.6753 165.952 58.7405C166.931 59.4585 167.975 60.2417 168.889 61.0249L167.257 58.5447C166.604 57.631 166.604 56.7825 167.192 56.3257C167.779 55.8688 168.563 56.1299 169.346 56.9131L171.24 59.0669C170.456 57.3699 169.999 55.5425 169.803 53.715C169.803 53.5844 169.869 53.4539 169.999 53.3234C170.13 53.2581 170.26 53.2581 170.391 53.3234C171.109 53.715 171.827 54.2371 172.48 54.7592C172.415 54.4982 172.415 54.3024 172.545 54.0413C172.676 53.7802 172.872 53.5844 173.133 53.4539C173.459 53.3234 173.851 53.3234 174.177 53.5192C174.634 53.7802 174.961 54.1066 175.222 54.5634C177.572 57.8921 180.51 60.8291 183.839 63.1787C183.513 61.4818 183.186 59.7848 182.925 58.0879C182.925 57.8921 182.991 57.7615 183.121 57.6963C183.382 57.5657 183.709 57.5005 183.97 57.631C184.557 57.8921 184.949 58.4142 185.21 59.0016C187.104 63.4398 188.213 68.0737 188.474 72.9035C188.474 73.0993 188.344 73.2951 188.083 73.2951C187.887 73.2951 187.691 73.1646 187.691 72.9035C187.43 68.2043 186.32 63.6356 184.492 59.2627C184.362 58.8711 184.1 58.61 183.774 58.3489C184.1 60.2417 184.427 62.0692 184.819 63.9619C184.884 64.1577 184.688 64.3535 184.492 64.4188C184.362 64.4188 184.296 64.4188 184.231 64.3535C180.445 61.8734 177.18 58.6753 174.569 55.0203C174.373 54.694 174.112 54.4329 173.786 54.2371C173.655 54.1718 173.459 54.1718 173.329 54.2371C173.263 54.2371 173.198 54.3024 173.198 54.3676C173.133 54.4982 173.263 54.8245 173.394 55.0203C173.72 55.673 174.112 56.2604 174.504 56.8478C175.483 58.0226 176.397 59.3279 177.18 60.5028C177.311 60.6986 177.246 60.9596 177.115 61.0902C176.919 61.2207 176.658 61.1554 176.528 61.0249C175.548 59.8501 174.634 58.61 173.851 57.3699C172.937 56.2604 171.827 55.2161 170.652 54.4329C171.044 57.2394 172.219 59.8501 173.916 62.1344C174.047 62.3302 174.047 62.526 173.851 62.6566C173.655 62.7871 173.459 62.7871 173.329 62.5913L168.693 57.3699C168.367 57.0436 167.91 56.652 167.649 56.8478C167.388 57.0436 167.649 57.5657 167.91 57.9573L171.109 62.7218C171.24 62.9176 171.174 63.1134 171.044 63.244C170.913 63.3745 170.652 63.3745 170.521 63.244C169.15 62.0692 167.714 60.8944 166.278 59.7848C166.8 61.8081 168.367 63.7008 170.848 65.5283C171.566 66.0505 172.284 66.5073 173.002 66.9642C176.528 68.857 179.335 71.9245 180.967 75.5795C181.097 75.7753 181.032 76.0363 180.836 76.1016C180.706 76.2974 180.64 76.3627 180.575 76.3627Z" fill="#231F20"/>
<path d="M218.244 72.4466C215.11 75.3837 208.06 86.4791 201.662 98.0314L188.409 70.2276L177.637 73.4256C177.637 73.4256 187.365 124.856 197.027 126.945C206.689 129.033 219.745 106.125 219.745 106.125L234.434 65.7241C234.434 65.7894 222.944 68.0737 218.244 72.4466Z" fill="#65E3FF"/>
<path d="M255.195 131.775C255.717 137.584 256.174 142.544 256.5 145.546L255.325 143.849H220.072C219.158 135.887 217.787 121.854 217.395 109.91C217.199 102.992 217.33 96.8569 218.113 92.8756C220.007 83.4119 227.188 76.5589 231.758 73.165C233.129 72.1207 234.304 71.3375 234.957 70.9459L235.479 70.6195C235.936 70.0974 236.458 69.6405 237.046 69.1837C241.681 65.6592 247.36 67.6825 251.277 69.3142L251.8 69.51C252.518 69.8363 253.171 70.0974 253.758 70.3585C254.019 70.489 254.281 70.5543 254.476 70.6195C257.871 71.7291 258.002 74.8619 254.476 86.0226C252.975 90.7218 253.171 102.47 253.889 114.479C254.281 120.418 254.738 126.488 255.195 131.775Z" fill="white"/>
<path d="M236.001 68.9224C235.871 69.5098 235.74 70.0972 235.544 70.6193C235.348 71.1415 235.152 71.7289 234.891 72.3815C234.761 72.6426 234.695 72.9037 234.565 73.0995C232.606 82.1063 230.778 102.666 230.256 109.78C230.126 112.064 229.734 115.784 229.277 120.745C229.212 121.724 229.081 122.703 229.016 123.747C229.016 123.812 229.016 123.812 229.016 123.877C228.885 124.987 228.82 126.096 228.689 127.271C228.689 127.336 228.689 127.402 228.689 127.467C228.624 128.315 228.559 129.164 228.493 130.078C228.428 130.861 228.363 131.579 228.298 132.362C227.971 135.886 227.71 139.737 227.449 143.784H211.259C211.911 137.192 212.629 130.404 213.217 124.008C213.543 120.81 213.87 117.742 214.131 114.74C215.567 100.251 216.742 88.5678 217.395 85.2392C217.656 83.9338 217.983 82.6937 218.309 81.5189C220.79 72.9689 225.099 69.0529 228.82 67.2254C229.081 67.0949 229.407 66.9644 229.669 66.8338C231.17 66.2464 232.737 65.8548 234.304 65.7896H234.434C234.826 65.7896 235.218 65.7896 235.414 65.7896H235.479C235.609 65.7896 235.74 65.7895 235.936 65.8548C236.066 66.1811 236.197 66.5728 236.132 66.9644C236.197 67.6823 236.132 68.2697 236.001 68.9224Z" fill="#65E3FF"/>
<path d="M235.871 61.5473L234.826 72.5122C234.826 72.5122 235.414 78.7126 242.203 77.4725C246.316 76.6893 249.776 74.0786 251.735 70.3584L252.648 51.3004C252.714 50.5172 251.669 47.9717 252.453 40.9881C244.357 40.1397 238.482 33.4824 238.482 33.4824C238.482 33.4824 235.348 37.3984 233.977 38.6385C232.933 39.5523 231.953 40.5965 231.17 41.7061C229.864 43.7294 229.669 46.3401 229.538 48.6897C229.342 51.4962 229.342 54.2374 229.603 57.0439C230.321 62.3305 235.871 61.5473 235.871 61.5473Z" fill="white"/>
<path d="M240.44 78.0599C239.135 78.1252 237.829 77.7336 236.785 76.9503C235.479 75.8408 234.63 74.2744 234.434 72.5775L235.414 62.0042C233.912 62.0694 232.476 61.6778 231.235 60.8294C230.126 59.9156 229.407 58.6103 229.277 57.1091C229.016 54.3026 228.95 51.4962 229.212 48.6897C229.342 46.4706 229.538 43.5988 230.909 41.5103C231.692 40.3355 232.672 39.2912 233.781 38.3775C235.087 37.2026 238.221 33.2866 238.221 33.2866C238.351 33.0908 238.612 33.0908 238.808 33.2213C238.808 33.2213 238.808 33.2213 238.874 33.2866C238.939 33.3519 244.749 39.8786 252.583 40.6618C252.714 40.6618 252.779 40.7271 252.844 40.7923C252.91 40.8576 252.91 40.9881 252.91 41.0534C252.322 46.34 252.779 49.0813 252.975 50.3214C253.04 50.6477 253.105 50.974 253.105 51.3004C253.105 51.3004 253.105 51.6267 252.191 70.3584C252.191 70.4236 252.191 70.4889 252.191 70.4889C250.168 74.2744 246.577 76.9504 242.334 77.7988C241.746 77.9946 241.093 78.0599 240.44 78.0599ZM235.218 72.5775C235.414 74.0133 236.197 75.3839 237.307 76.2977C238.547 77.2114 240.179 77.4725 242.203 77.0809C246.12 76.2977 249.515 73.8175 251.408 70.2931C251.473 68.9225 252.322 51.4309 252.322 51.3004C252.322 51.0393 252.257 50.7782 252.257 50.5171C251.8 47.5149 251.735 44.4473 252.126 41.3797C245.141 40.466 239.983 35.5057 238.612 34.1351C237.829 35.1141 235.479 37.9858 234.369 38.9649C233.324 39.8786 232.41 40.8576 231.627 41.9672C230.387 43.9252 230.191 46.4706 230.06 48.7549C229.864 51.4962 229.864 54.3026 230.126 57.0439C230.191 58.2839 230.778 59.3935 231.758 60.1767C233.455 61.482 235.805 61.1557 235.805 61.1557C235.936 61.1557 236.066 61.1557 236.132 61.2862C236.197 61.3515 236.262 61.482 236.262 61.6126L235.218 72.5775Z" fill="#231F20"/>
<path d="M235.414 66.9642C235.414 66.9642 239.853 67.5516 242.986 64.8104C246.12 62.0692 245.924 59.0669 245.924 59.0669C245.924 59.0669 240.832 61.8734 235.805 61.547L235.414 66.9642Z" fill="#231F20"/>
<path d="M236.523 67.3561C236.132 67.3561 235.74 67.3561 235.414 67.2908C235.218 67.2908 235.087 67.095 235.087 66.8992L235.479 61.4821C235.479 61.2863 235.675 61.0905 235.871 61.1557C240.702 61.4821 245.728 58.7408 245.794 58.7408C245.924 58.6756 246.055 58.6756 246.185 58.7408C246.316 58.8061 246.381 58.9366 246.381 59.0672C246.381 59.1977 246.512 62.3305 243.313 65.137C241.354 66.6382 238.939 67.4214 236.523 67.3561ZM235.871 66.5729C236.98 66.6382 240.31 66.6382 242.791 64.4844C244.292 63.2443 245.271 61.5473 245.598 59.6546C244.162 60.3725 240.245 62.0042 236.262 61.8737L235.871 66.5729Z" fill="#231F20"/>
<path d="M241.093 46.144C241.093 46.144 237.111 51.1044 237.829 52.0834C238.547 53.0624 240.963 52.6708 240.963 52.6708" fill="white"/>
<path d="M239.983 53.1277C239.135 53.1277 238.09 52.9971 237.568 52.2792C236.719 51.1696 239.526 47.4494 240.832 45.883C240.963 45.7525 241.224 45.6872 241.354 45.8177C241.485 45.9483 241.55 46.2093 241.42 46.3399C239.461 48.82 237.894 51.4307 238.221 51.8223C238.743 52.475 240.44 52.3445 241.028 52.2792C241.224 52.2792 241.42 52.4097 241.42 52.6055C241.42 52.8013 241.289 52.9971 241.159 52.9971C240.767 53.1277 240.375 53.1277 239.983 53.1277Z" fill="#231F20"/>
<path d="M234.547 44.6746C234.629 44.031 234.435 43.4759 234.113 43.4349C233.791 43.3939 233.464 43.8824 233.382 44.526C233.299 45.1696 233.494 45.7247 233.816 45.7657C234.138 45.8068 234.465 45.3183 234.547 44.6746Z" fill="#231F20"/>
<path d="M244.626 44.6736C244.708 44.03 244.514 43.4749 244.192 43.4339C243.87 43.3929 243.542 43.8814 243.46 44.525C243.378 45.1687 243.573 45.7237 243.895 45.7647C244.216 45.8058 244.544 45.3173 244.626 44.6736Z" fill="#231F20"/>
<path d="M237.894 55.2162L240.767 54.7593C240.767 54.7593 240.963 58.9364 239.396 59.1322C237.829 59.328 237.894 55.2162 237.894 55.2162Z" fill="white"/>
<path d="M239.265 59.4588C238.939 59.4588 238.678 59.3283 238.482 59.1325C237.503 58.2188 237.503 55.4775 237.568 55.1512C237.568 54.9554 237.698 54.8249 237.894 54.7596L240.767 54.3027C240.897 54.3027 240.963 54.3027 241.093 54.368C241.159 54.4333 241.224 54.5638 241.224 54.6291C241.224 55.0859 241.42 59.1325 239.526 59.3936L239.265 59.4588ZM238.286 55.5428C238.286 56.5871 238.482 58.1535 238.939 58.6104C239.004 58.6756 239.135 58.7409 239.265 58.7409C240.114 58.6104 240.375 56.5218 240.31 55.2165L238.286 55.5428Z" fill="#231F20"/>
<path d="M249.515 45.3609C250.429 43.4682 252.91 43.0113 254.738 43.5334C255.978 43.8598 256.892 44.904 257.088 46.1441C257.153 46.9273 257.088 47.7105 256.892 48.4285C256.566 49.7991 255.978 51.1044 255.195 52.2792C254.803 52.8666 254.281 53.3888 253.693 53.7151C252.91 54.1067 251.93 53.9762 251.278 53.3235" fill="white"/>
<path d="M252.779 54.3676C252.126 54.3676 251.473 54.1065 251.016 53.6497C250.821 53.5191 250.821 53.2581 250.951 53.1275C251.082 52.9317 251.343 52.9317 251.539 53.0623C252.061 53.5844 252.844 53.7149 253.562 53.3886C254.085 53.0623 254.607 52.6054 254.933 52.018C255.717 50.9084 256.304 49.6031 256.566 48.2978C256.761 47.5798 256.827 46.8619 256.761 46.1439C256.631 45.0344 255.782 44.1207 254.672 43.8596C252.975 43.3374 250.69 43.7943 249.907 45.4913C249.841 45.6871 249.58 45.7523 249.384 45.6871C249.188 45.6218 249.123 45.3607 249.188 45.1649C250.168 43.1416 252.844 42.5542 254.933 43.1417C256.304 43.468 257.349 44.6428 257.545 46.0787C257.61 46.8619 257.61 47.7104 257.349 48.4936C257.022 49.9294 256.435 51.3 255.586 52.4749C255.195 53.1275 254.607 53.7149 253.954 54.0413C253.562 54.3023 253.171 54.3676 252.779 54.3676Z" fill="#231F20"/>
<path d="M271.45 167.084L258.002 147.7L256.5 145.546L255.325 143.849H239.722C240.245 139.607 240.767 135.364 241.354 131.122C241.681 128.838 242.007 126.553 242.334 124.269C242.595 122.311 242.921 120.418 243.182 118.525C243.313 117.742 243.443 116.894 243.509 116.111C246.447 96.7262 249.45 79.6262 250.821 71.8594C250.886 71.3373 251.016 70.9457 251.082 70.4888C251.147 70.0319 251.212 69.6403 251.278 69.2487C251.539 68.0086 251.669 67.356 251.669 67.356L251.93 67.4212C254.411 68.0086 256.827 68.7266 259.242 69.575C262.898 70.8804 266.554 72.6426 267.207 74.7311C269.492 81.9105 269.1 112.521 269.557 130.73C269.622 134.973 269.753 138.562 270.014 140.977C270.145 142.674 270.406 144.567 270.667 147.7C270.993 151.551 271.32 157.359 271.45 167.084Z" fill="#65E3FF"/>
<path d="M248.862 120.353C245.533 119.765 242.464 118.264 239.396 116.894C238.155 116.372 236.85 115.915 235.544 115.458C234.043 115.001 232.541 114.087 230.909 114.022C229.93 114.022 230.191 115.393 230.517 115.98C230.909 116.437 231.366 116.828 231.888 117.155C232.867 117.807 234.826 118.982 235.218 120.157C233.977 120.483 232.672 120.353 231.366 120.483C229.995 120.614 228.624 120.81 227.253 121.136C225.882 121.462 224.576 121.723 223.271 122.05C222.161 122.376 220.855 122.441 219.811 122.964C219.55 123.094 219.288 123.29 219.223 123.616C219.158 124.661 221.508 124.53 222.096 124.465L232.802 123.29C229.081 123.616 225.36 124.334 221.704 125.313C221.378 125.378 221.051 125.574 220.79 125.835C219.876 127.206 223.728 127.271 224.119 127.271C226.078 127.336 228.036 127.271 230.06 127.141L225.229 127.924C224.185 128.12 223.075 128.25 222.03 128.577C221.443 128.707 220.921 128.968 220.464 129.36C220.398 129.425 220.333 129.49 220.333 129.556C220.333 129.686 220.464 129.751 220.529 129.817C221.443 130.208 222.422 130.339 223.401 130.339C225.425 130.404 227.384 130.273 229.407 129.947L223.467 130.6C222.944 130.6 222.422 130.796 222.03 131.122C221.965 131.448 222.096 131.84 222.357 132.036C222.683 132.231 223.01 132.297 223.336 132.362C225.556 132.623 227.71 132.362 229.93 132.362C232.345 132.362 234.695 132.232 237.046 131.905C241.746 131.318 246.316 129.947 250.559 127.859" fill="white"/>
<path d="M225.817 132.819C225.033 132.819 224.25 132.753 223.467 132.688C223.075 132.688 222.618 132.558 222.291 132.297C221.834 131.97 221.639 131.448 221.769 130.926C221.769 130.861 221.834 130.861 221.834 130.795C221.9 130.73 221.965 130.665 222.096 130.6C221.573 130.534 221.051 130.404 220.529 130.143C220.268 130.078 220.072 129.816 220.072 129.555C220.072 129.36 220.137 129.164 220.268 129.033C220.79 128.576 221.378 128.25 222.03 128.185C222.814 127.989 223.662 127.858 224.446 127.663H224.25C222.096 127.597 220.855 127.271 220.464 126.618C220.268 126.292 220.333 125.9 220.529 125.639C220.79 125.313 221.182 125.052 221.639 124.987L222.226 124.856C221.834 124.921 219.941 125.052 219.223 124.334C219.027 124.138 218.897 123.877 218.897 123.551C218.962 123.094 219.288 122.768 219.68 122.572C220.398 122.245 221.182 122.05 221.965 121.919C222.357 121.854 222.748 121.723 223.14 121.658C224.446 121.266 225.817 120.94 227.122 120.679C228.428 120.418 229.864 120.222 231.235 120.026C231.758 119.961 232.215 119.961 232.737 119.961C233.324 119.961 233.977 119.896 234.565 119.831C233.847 118.982 232.998 118.264 232.019 117.742L231.431 117.35C230.909 117.024 230.452 116.632 230.06 116.176C229.669 115.588 229.538 114.805 229.799 114.152C229.995 113.826 230.387 113.565 230.778 113.63C231.888 113.695 232.998 114.022 234.043 114.544C234.565 114.74 235.022 114.936 235.479 115.131C236.785 115.523 238.09 116.045 239.331 116.567C239.918 116.828 240.506 117.089 241.028 117.285C243.509 118.329 246.055 119.504 248.731 119.961C248.927 120.026 249.123 120.222 249.058 120.418C248.993 120.614 248.797 120.744 248.601 120.744C245.859 120.287 243.248 119.113 240.767 118.003L239.069 117.285C237.829 116.763 236.589 116.306 235.283 115.915C234.761 115.784 234.238 115.523 233.716 115.327C232.802 114.87 231.758 114.609 230.713 114.479C230.517 114.479 230.517 114.544 230.452 114.609C230.321 115.001 230.387 115.458 230.648 115.784C230.974 116.176 231.366 116.502 231.823 116.763L232.41 117.155C233.52 117.938 235.087 118.982 235.414 120.092C235.479 120.287 235.348 120.483 235.152 120.549C234.304 120.744 233.52 120.81 232.672 120.81C232.215 120.81 231.692 120.81 231.301 120.875C229.93 121.005 228.559 121.201 227.253 121.528C225.947 121.854 224.642 122.115 223.336 122.441C222.944 122.572 222.487 122.637 222.096 122.768C221.378 122.898 220.659 123.094 219.941 123.355C219.68 123.486 219.615 123.616 219.615 123.616C219.615 123.681 219.615 123.747 219.68 123.747C220.007 124.073 221.116 124.138 222.03 124.008L232.672 122.963H232.737C232.933 122.963 233.129 123.094 233.194 123.29C233.194 123.486 233.063 123.681 232.867 123.747C229.146 124.073 225.49 124.791 221.834 125.705C221.573 125.77 221.377 125.835 221.182 126.031C221.116 126.096 221.116 126.161 221.116 126.227C221.247 126.488 222.291 126.814 224.185 126.879C226.078 126.945 228.102 126.879 230.06 126.749C230.256 126.749 230.452 126.879 230.452 127.075C230.452 127.271 230.321 127.467 230.126 127.532L225.295 128.315C224.25 128.511 223.14 128.642 222.096 128.968C221.639 129.033 221.247 129.229 220.855 129.49C221.704 129.751 222.553 129.947 223.401 129.882C224.315 129.882 225.295 129.882 226.209 129.816L229.342 129.49C229.538 129.49 229.734 129.621 229.799 129.816C229.799 130.012 229.669 130.208 229.473 130.273C228.428 130.404 227.384 130.534 226.274 130.6L223.467 130.926C223.075 130.926 222.683 131.057 222.357 131.252C222.357 131.383 222.422 131.579 222.618 131.644C222.879 131.774 223.14 131.84 223.467 131.905C224.903 132.036 226.339 132.101 227.775 131.97C228.493 131.97 229.212 131.905 229.995 131.905H230.126C232.41 131.905 234.761 131.774 237.046 131.448C241.681 130.861 246.185 129.49 250.364 127.467C250.559 127.336 250.755 127.467 250.886 127.597C251.016 127.793 250.886 128.054 250.69 128.119C246.447 130.208 241.811 131.579 237.111 132.166C234.761 132.492 232.345 132.623 229.93 132.623C229.212 132.623 228.493 132.623 227.775 132.688C227.057 132.753 226.535 132.819 225.817 132.819Z" fill="#231F20"/>
<path d="M267.207 74.666C267.207 74.666 295.148 125.444 285.095 128.838C280.982 130.208 244.292 132.362 244.292 132.362L240.375 116.502L267.86 112.26L267.207 74.666Z" fill="#65E3FF"/>
<path d="M233.977 51.0394C233.781 51.0394 233.586 51.0394 233.39 51.0394C229.864 50.713 227.188 47.5802 227.514 44.0558C227.841 40.5314 230.974 37.8554 234.5 38.1817C238.025 38.5081 240.702 41.6409 240.375 45.1653C240.245 46.8623 239.396 48.4287 238.09 49.5382C236.98 50.5172 235.544 51.0394 233.977 51.0394ZM233.977 38.8997C230.844 38.8997 228.298 41.4451 228.298 44.5779C228.298 47.7108 230.844 50.2562 233.977 50.2562C236.915 50.2562 239.396 48.0371 239.657 45.1001C239.918 41.9672 237.633 39.226 234.5 38.9649C234.304 38.8997 234.173 38.8997 233.977 38.8997Z" fill="#231F20"/>
<path d="M246.577 51.1046C246.381 51.1046 246.185 51.1046 245.99 51.1046C242.464 50.713 239.853 47.5149 240.245 43.9904C240.636 40.5313 243.639 37.9859 247.099 38.2469C250.625 38.5733 253.301 41.7061 252.975 45.2305C252.714 48.5591 249.907 51.1046 246.577 51.1046ZM246.577 38.9649C243.443 38.9649 240.897 41.445 240.832 44.5778C240.832 47.7107 243.313 50.2561 246.447 50.3214C247.817 50.3214 249.123 49.8645 250.168 48.9507C251.343 47.9717 252.061 46.6011 252.191 45.1C252.453 41.9672 250.168 39.2259 247.034 38.9649C246.903 38.9649 246.708 38.9649 246.577 38.9649Z" fill="#231F20"/>
<path d="M240.44 117.024C240.245 117.024 240.049 116.894 240.049 116.633C240.049 116.437 240.179 116.241 240.44 116.241L267.533 112.064L261.005 83.9338C260.94 83.738 261.07 83.5422 261.266 83.4769C261.462 83.4117 261.658 83.5422 261.723 83.738L268.317 112.26C268.317 112.39 268.317 112.456 268.251 112.586C268.186 112.651 268.121 112.717 267.99 112.782L240.44 117.024Z" fill="#231F20"/>
<path d="M213.152 124.465C212.891 124.465 212.76 124.269 212.76 124.008C212.825 123.616 217.852 82.1061 217.852 81.5187L218.244 81.584L218.309 81.1924C218.636 81.2576 218.636 81.2577 217.852 88.3065L213.543 124.138C213.543 124.269 213.348 124.465 213.152 124.465Z" fill="#231F20"/>
<path d="M206.95 108.017C206.819 108.017 206.689 107.952 206.623 107.821L190.172 74.8616C190.107 74.6658 190.172 74.4047 190.368 74.3394C190.564 74.2741 190.759 74.3394 190.89 74.5352L207.341 107.495C207.472 107.691 207.341 107.952 207.146 108.017C207.08 108.017 207.015 108.017 206.95 108.017Z" fill="#231F20"/>
<path d="M264.073 42.3585C263.877 42.3585 263.681 42.228 263.616 42.0322C263.616 41.8364 263.747 41.6406 263.943 41.6406C263.943 41.6406 265.314 41.249 267.86 38.7688C267.99 38.6383 268.251 38.6383 268.447 38.7688C268.578 38.8993 268.578 39.1604 268.447 39.2909C265.771 41.9669 264.269 42.3585 264.204 42.3585C264.204 42.3585 264.138 42.3585 264.073 42.3585Z" fill="#231F20"/>
<path d="M167.518 138.04L171.762 126.422L161.643 135.821C157.269 134.581 152.764 133.993 148.194 133.993C131.221 133.993 117.511 142.152 117.511 152.268C117.511 162.385 131.286 170.543 148.194 170.543C165.103 170.543 178.878 162.385 178.878 152.268C178.878 146.525 174.438 141.369 167.518 138.04Z" fill="white"/>
<path d="M148.194 170.935C131.025 170.935 117.054 162.58 117.054 152.268C117.054 141.956 131.025 133.602 148.194 133.602C152.699 133.602 157.203 134.189 161.512 135.364L171.435 126.161C171.631 126.031 171.892 126.031 172.023 126.161C172.153 126.292 172.153 126.422 172.088 126.618L167.975 137.844C175.157 141.434 179.269 146.655 179.269 152.268C179.335 162.515 165.364 170.935 148.194 170.935ZM148.194 134.385C131.482 134.385 117.903 142.348 117.903 152.203C117.903 162.058 131.482 170.021 148.194 170.021C164.907 170.021 178.486 162.058 178.486 152.203C178.486 146.851 174.438 141.826 167.322 138.432C167.127 138.366 166.996 138.105 167.127 137.909L170.717 127.989L161.904 136.147C161.773 136.278 161.643 136.278 161.512 136.213C157.138 134.972 152.699 134.385 148.194 134.385Z" fill="#D1D3D4"/>
<path d="M168.563 145.937H127.826C127.565 145.937 127.434 145.676 127.434 145.48C127.434 145.285 127.63 145.154 127.826 145.089H168.563C168.824 145.089 168.955 145.35 168.955 145.546C168.889 145.807 168.759 145.937 168.563 145.937Z" fill="#D1D3D4"/>
<path d="M168.563 152.921H127.826C127.565 152.921 127.369 152.725 127.369 152.464C127.369 152.203 127.565 152.007 127.826 152.007H168.563C168.824 152.007 169.02 152.203 169.02 152.464C169.02 152.725 168.759 152.921 168.563 152.921Z" fill="#D1D3D4"/>
<path d="M156.159 159.904H127.76C127.499 159.904 127.303 159.709 127.303 159.448C127.303 159.187 127.499 158.991 127.76 158.991H156.159C156.42 158.991 156.616 159.187 156.616 159.448C156.616 159.709 156.42 159.904 156.159 159.904Z" fill="#D1D3D4"/>
<path d="M128.479 28.4563L124.823 38.5075L133.505 30.4143C137.292 31.4586 141.144 31.9807 145.061 31.9807C159.684 31.9807 171.501 24.9319 171.501 16.2514C171.501 7.57082 159.684 0.521973 145.061 0.521973C130.437 0.521973 118.621 7.57082 118.621 16.2514C118.686 21.2117 122.538 25.5846 128.479 28.4563Z" fill="white"/>
<path d="M124.823 38.8991C124.757 38.8991 124.627 38.8991 124.562 38.8338C124.366 38.7033 124.3 38.5075 124.431 38.3117L127.956 28.7174C121.754 25.6498 118.229 21.1464 118.229 16.3166C118.229 7.4403 130.307 0.130371 145.126 0.130371C159.945 0.130371 172.023 7.37503 172.023 16.3166C172.023 25.2582 159.945 32.4376 145.126 32.4376C141.274 32.4376 137.423 31.9155 133.636 30.8712L125.084 38.7685C125.084 38.8991 124.953 38.8991 124.823 38.8991ZM145.126 0.978846C130.764 0.978846 119.078 7.8319 119.078 16.2514C119.078 20.8201 122.603 25.1277 128.674 28.0647C128.87 28.1953 128.936 28.3911 128.87 28.5869L125.867 36.8758L133.244 30.0227C133.375 29.8922 133.505 29.8922 133.636 29.9575C137.357 31.0017 141.209 31.5239 145.126 31.5239C159.488 31.5239 171.174 24.6708 171.174 16.2514C171.174 7.8319 159.488 0.978846 145.126 0.978846Z" fill="#D1D3D4"/>
<path d="M165.038 12.2699H129.915C129.654 12.2699 129.523 12.0088 129.523 11.813C129.523 11.6172 129.719 11.4867 129.915 11.4214H165.038C165.299 11.4214 165.429 11.6825 165.429 11.8783C165.364 12.0741 165.233 12.2699 165.038 12.2699Z" fill="#D1D3D4"/>
<path d="M154.266 19.9715H129.915C129.654 19.9715 129.523 19.7104 129.523 19.5146C129.523 19.3188 129.719 19.1883 129.915 19.123H154.266C154.527 19.123 154.657 19.3841 154.657 19.5799C154.657 19.7757 154.462 19.9063 154.266 19.9715Z" fill="#D1D3D4"/>
</g>
<defs>
<clipPath id="clip0_172_184">
<rect width="299" height="171" fill="white"/>
</clipPath>
</defs>
</svg>
