<svg transform="scale(1)" id="_0050_hiking" data-name="0050_hiking" xmlns="http://www.w3.org/2000/svg" viewBox="0 0 500 500" class="show_show__wrapper__graphic__5Waiy "><title>React</title><defs><style>.cls-1{fill:#fff;}.cls-2{fill:#d1d3d4;}.cls-3{fill:#231f20;}.cls-4{fill:#68e1fd;}</style></defs><g id="Background"><path class="cls-1" d="M34.22,387.4s84-186.33,98.76-184.34S243.71,326.94,243.71,326.94,341.9,142.08,359.09,146.85,464.71,349.42,464.71,349.42Z"></path><path class="cls-2" d="M34.22,388.13a.73.73,0,0,1-.67-1c8.57-19,83.72-184.78,99.26-184.78l.27,0c14.42,1.94,101.14,111.39,110.51,123.27,3.71-7,26.47-49.41,50.73-90.87,36.12-61.72,57.33-90.71,65-88.59C376.6,151,461.76,341,465.38,349.13a.73.73,0,0,1,0,.66.71.71,0,0,1-.56.36l-430.5,38Zm98.46-184.36c-10.87,0-63.8,108.58-97.28,182.79l428.23-37.77c-3.17-7.06-23.78-52.83-45.94-98.55-40-82.48-54-101.36-58.8-102.69a2.37,2.37,0,0,0-.61-.07c-15.09,0-87.08,129.25-113.93,179.8a.7.7,0,0,1-.58.38.72.72,0,0,1-.64-.27C210,285.31,144.36,205.33,132.89,203.78Z"></path><path class="cls-1" d="M182.21,368.32a1269.49,1269.49,0,0,0,127.7-32.06c43.82-13.46,94-11.3,139.46-9.67a7.2,7.2,0,0,1,8,5.4c3.52,7.7,6.86,15.64,7.94,24.05,8.28,64.23-94.14,55.93-132.84,58.56q-89.91,6.09-180,7.62c-28.78.48-105.67,9.9-117-29A49.42,49.42,0,0,1,34.22,387a1.17,1.17,0,0,1,1-.44c17.88-1.84,36.06-1.35,53.87-3.5q40.62-4.87,80.87-12.37Q176.08,369.52,182.21,368.32Z"></path><path class="cls-2" d="M110.82,424.31c-32.38,0-68.45-4.65-76.08-30.85a51.13,51.13,0,0,1-1.24-6.37.67.67,0,0,1,.08-.46,1.86,1.86,0,0,1,1.54-.82c8.41-.86,17-1.22,25.36-1.57,9.38-.39,19.08-.79,28.5-1.92,26.91-3.23,54.11-7.4,80.82-12.37q6.13-1.14,12.27-2.35a1269.88,1269.88,0,0,0,127.62-32c42.94-13.19,92.69-11.39,136.58-9.81l3.12.11a10.13,10.13,0,0,1,5.33,1.22c1.73,1.13,2.64,3.14,3.31,4.6,3.44,7.54,6.89,15.62,8,24.27,1.7,13.23-1.2,24.33-8.64,33C437,412.72,386,413.87,352.24,414.63c-7.65.18-14.26.33-19.72.7-59.7,4-120.28,6.61-180.08,7.62-3.69.06-8.11.27-13.24.51C130.77,423.85,121,424.31,110.82,424.31ZM35,387.3a45.12,45.12,0,0,0,1.14,5.76c9.69,33.3,68.09,30.57,103,28.94,5.14-.24,9.57-.45,13.29-.51,59.77-1,120.33-3.57,180-7.62,5.49-.37,12.12-.52,19.79-.7,33.48-.75,84.06-1.9,104.09-25.19,7.15-8.32,9.94-19,8.29-31.85-1.09-8.44-4.49-16.41-7.88-23.84-.77-1.69-1.52-3.16-2.79-4a9,9,0,0,0-4.58-1l-3.13-.11c-43.77-1.58-93.38-3.37-136.09,9.75A1272.84,1272.84,0,0,1,182.35,369h0q-6.14,1.22-12.28,2.35c-26.75,5-54,9.15-80.92,12.39-9.48,1.14-19.2,1.54-28.61,1.93-8.31.35-16.9.7-25.28,1.56Z"></path><path class="cls-1" d="M331.12,353l44.35-75.86c1.82-3.11,4.31-6.62,7.91-6.58a9.42,9.42,0,0,1,4.82,1.87c22.39,14.52,29.5,43.78,46.6,64.28"></path><path class="cls-2" d="M331.12,353.73a.68.68,0,0,1-.36-.1.73.73,0,0,1-.27-1l44.35-75.86c2-3.43,4.59-6.94,8.47-6.94h.08a10.07,10.07,0,0,1,5.2,2c13.88,9,22.07,23.81,30,38.13,5,9.05,10.19,18.4,16.77,26.29a.74.74,0,0,1-.1,1,.73.73,0,0,1-1-.09c-6.66-8-11.87-17.42-16.91-26.52-8.21-14.82-15.95-28.82-29.52-37.61a8.83,8.83,0,0,0-4.43-1.76c-3.11,0-5.46,3.12-7.27,6.22l-44.35,75.86A.73.73,0,0,1,331.12,353.73Z"></path><path class="cls-2" d="M234.47,346.6a.71.71,0,0,1-.32-.07.73.73,0,0,1-.34-1l9.24-18.94a.74.74,0,0,1,1-.33.73.73,0,0,1,.33,1l-9.24,18.93A.72.72,0,0,1,234.47,346.6Z"></path><path class="cls-2" d="M113.72,297.71a.47.47,0,0,1-.17,0,.71.71,0,0,1-.53-.51,134.2,134.2,0,0,1-4.57-42.48L87.94,285.07a.74.74,0,0,1-1,.2.73.73,0,0,1-.2-1l22-32.59a.74.74,0,0,1,.84-.28.71.71,0,0,1,.49.74,132.58,132.58,0,0,0,4,43.37c10.58-12.05,15.91-28.16,20.63-42.42a.69.69,0,0,1,.73-.5.74.74,0,0,1,.68.57A43.89,43.89,0,0,0,145,271.55c.27.33.61.7.9.7h0c.45,0,.76-.84.9-1.57l3.84-19.78a.73.73,0,0,1,.61-.59.75.75,0,0,1,.75.39,58.25,58.25,0,0,0,25.4,25.3,116.29,116.29,0,0,0-1.25-22.52.73.73,0,0,1,1.44-.22,117.57,117.57,0,0,1,1.22,23.93.74.74,0,0,1-.36.59.76.76,0,0,1-.69,0,59.77,59.77,0,0,1-26.08-24.62L148.23,271c-.34,1.77-1.21,2.8-2.36,2.75a2.79,2.79,0,0,1-2-1.24,45.48,45.48,0,0,1-8.56-16.55c-4.71,14.19-10.26,29.84-21,41.56A.74.74,0,0,1,113.72,297.71Z"></path><path class="cls-2" d="M328.54,205.69a2.58,2.58,0,0,1-.38,0,2.27,2.27,0,0,1-1.38-.92,4.82,4.82,0,0,1-.4-3.84c1.1-5.69,2.4-11.43,3.86-17.06a.73.73,0,0,1,1.41.36c-1.45,5.61-2.74,11.32-3.84,17a3.67,3.67,0,0,0,.15,2.7.83.83,0,0,0,.47.34c.37.09.82-.24,1.18-.53,2.83-2.22,4.93-5.26,7-8.2,2.18-3.16,4-5.57,5.84-7.81.14-.17.42-.46.76-.82.65-.67,2.61-2.72,2.68-3.33a.71.71,0,0,1,.58-.82.74.74,0,0,1,.86.6,18,18,0,0,0,6.62,10.63c.77.58,1.85,1.19,2.64.79a3,3,0,0,0,1.11-1.47A42.53,42.53,0,0,0,361,182.91a.73.73,0,0,1,.54-.58.75.75,0,0,1,.75.27c3,3.84,6.12,7.65,9.35,11.3.37.42.91,1.15,1.59,2.08,1.9,2.59,6.37,8.67,8.34,8a1.05,1.05,0,0,0,.65-.72c1.15-2.94-1.75-11.43-2.69-13.18a.76.76,0,0,1,0-.59.74.74,0,0,1,.4-.43l2.77-1.18a.74.74,0,0,1,1,.39.73.73,0,0,1-.38,1l-2.08.88c1.2,2.78,3.7,10.41,2.42,13.68a2.51,2.51,0,0,1-1.53,1.57c-2.78,1-6.32-3.46-10-8.48-.63-.87-1.18-1.62-1.51-2-2.9-3.28-5.73-6.68-8.43-10.12a44.08,44.08,0,0,1-3.14,9.14A4.18,4.18,0,0,1,357.2,196c-.81.4-2.19.57-4.17-.94a19.42,19.42,0,0,1-6.68-9.59c-.51.65-1.22,1.42-2.12,2.36a8.87,8.87,0,0,0-.69.74c-1.83,2.21-3.61,4.59-5.77,7.71s-4.26,6.16-7.25,8.52A3.33,3.33,0,0,1,328.54,205.69Z"></path><path class="cls-2" d="M258,401a.73.73,0,0,1-.11-1.45,54.39,54.39,0,0,1,13.37-.39.73.73,0,0,1,.66.8.75.75,0,0,1-.79.66,53,53,0,0,0-13,.37Z"></path><path class="cls-2" d="M212.58,385a.74.74,0,0,1-.67-.44.73.73,0,0,1,.38-1,21.61,21.61,0,0,1,7.38-1.72.7.7,0,0,1,.76.69.73.73,0,0,1-.69.77,20.09,20.09,0,0,0-6.87,1.6A.79.79,0,0,1,212.58,385Z"></path><path class="cls-2" d="M422.93,341.5a.73.73,0,0,1-.25-1.42,36.52,36.52,0,0,1,20.7-1.25.73.73,0,0,1,.54.88.72.72,0,0,1-.87.54,34.93,34.93,0,0,0-19.86,1.2A.8.8,0,0,1,422.93,341.5Z"></path><path class="cls-1" d="M137.51,413.3a19.52,19.52,0,0,0-7.14.45"></path><path class="cls-2" d="M130.37,414.48a.73.73,0,0,1-.18-1.44,20.1,20.1,0,0,1,7.41-.46.73.73,0,0,1-.18,1.45,18.7,18.7,0,0,0-6.87.43Z"></path><path class="cls-1" d="M84.08,402.41q1.19-2.32,2.58-4.54a11.65,11.65,0,0,1,3.14-3.62,4.6,4.6,0,0,1,4.58-.53,7,7,0,0,1,2,1.78l5.77,6.72"></path><path class="cls-2" d="M84.09,403.14a.62.62,0,0,1-.33-.08.73.73,0,0,1-.33-1c.79-1.56,1.67-3.11,2.61-4.6a12.45,12.45,0,0,1,3.35-3.84,5.34,5.34,0,0,1,5.32-.57,7.59,7.59,0,0,1,2.2,1.95l5.77,6.72a.74.74,0,0,1-.08,1,.73.73,0,0,1-1-.08L95.8,396a6.28,6.28,0,0,0-1.75-1.6,3.92,3.92,0,0,0-3.84.48,11.22,11.22,0,0,0-2.94,3.41c-.91,1.45-1.76,3-2.53,4.48A.72.72,0,0,1,84.09,403.14Z"></path><path class="cls-1" d="M379,391.4c8-2.09,16.21-2.87,24.41-3.65a6.92,6.92,0,0,1,4.14.46"></path><path class="cls-2" d="M379,392.13a.73.73,0,0,1-.19-1.43c8.06-2.12,16.43-2.91,24.54-3.68a7.65,7.65,0,0,1,4.57.56.73.73,0,0,1-.73,1.27,6.2,6.2,0,0,0-3.71-.37c-8,.76-16.36,1.55-24.3,3.63A.55.55,0,0,1,379,392.13Z"></path><path class="cls-1" d="M385.31,389.25a61.14,61.14,0,0,1,6.26-8.47,6,6,0,0,1,2.88-2.12c2.4-.56,4.47,1.75,5.65,3.92s2.44,4.73,4.86,5.24"></path><path class="cls-2" d="M385.31,390a.67.67,0,0,1-.38-.11.73.73,0,0,1-.24-1,62.22,62.22,0,0,1,6.33-8.58,6.63,6.63,0,0,1,3.27-2.34c2.29-.55,4.7,1.06,6.45,4.28l.19.35c1.09,2,2.22,4.11,4.18,4.53a.73.73,0,0,1,.56.86.74.74,0,0,1-.87.57c-2.61-.56-4-3.06-5.16-5.27l-.19-.34c-.53-1-2.45-4.11-4.83-3.56a5.31,5.31,0,0,0-2.5,1.89,59.25,59.25,0,0,0-6.18,8.37A.73.73,0,0,1,385.31,390Z"></path></g><g id="Character"><path class="cls-1" d="M338.43,217.9s12.44,1.42,18.36-3.43,13.39-6.52,14.81-5.1,1.18,11.73,0,12.68-34.12,12.08-34.83,12.2"></path><path class="cls-3" d="M336.77,235a.73.73,0,0,1-.12-1.45c1.8-.43,33.16-11.19,34.52-12.07.8-1,1-10.45-.09-11.57-1-1-7.91.29-13.82,5.14-6.1,5-18.39,3.66-18.91,3.6a.74.74,0,0,1-.65-.81.74.74,0,0,1,.81-.64c.12,0,12.21,1.33,17.82-3.28,5.9-4.83,13.89-6.94,15.79-5,1.51,1.51,1.15,8.43,1.13,8.72-.23,4.27-1,4.85-1.19,5-1.4,1.12-34.92,12.31-35.17,12.35Z"></path><path class="cls-1" d="M352.41,217.55c.47-.48,5-6.16,8.29-9.6s3.79-3.91,4.86-2.6S360,216.13,360,216.13"></path><path class="cls-3" d="M352.41,218.28a.72.72,0,0,1-.52-.22.74.74,0,0,1,0-1c.12-.11.68-.8,1.28-1.52,1.74-2.1,4.64-5.62,7-8.07s3.36-3.58,4.45-3.49a2.12,2.12,0,0,1,1.49.93c.94,1.15-.92,5.07-5.53,11.66a.74.74,0,0,1-1,.18.72.72,0,0,1-.18-1c2.84-4.06,5.75-9.05,5.55-10-.26-.29-.37-.3-.37-.3h0c-.4,0-1.76,1.41-3.34,3.05-2.33,2.41-5.21,5.89-6.93,8-.84,1-1.22,1.47-1.38,1.62A.68.68,0,0,1,352.41,218.28Z"></path><line class="cls-1" x1="352.41" y1="378.74" x2="368.81" y2="206.94"></line><path class="cls-3" d="M352.41,379.47h-.07a.73.73,0,0,1-.66-.8l16.41-171.8a.76.76,0,0,1,.79-.66.73.73,0,0,1,.66.8l-16.4,171.8A.74.74,0,0,1,352.41,379.47Z"></path><polygon class="cls-3" points="371.39 200.69 365.68 200.69 363.93 229.32 369.14 229.32 371.39 200.69"></polygon><path class="cls-3" d="M369.14,230h-5.21a.72.72,0,0,1-.53-.23.67.67,0,0,1-.19-.54L365,200.64a.72.72,0,0,1,.72-.68h5.73a.76.76,0,0,1,.53.23.74.74,0,0,1,.19.55l-2.25,28.63A.73.73,0,0,1,369.14,230Zm-4.44-1.45h3.77l2.14-27.18h-4.25Z"></path><path class="cls-1" d="M366.14,210.35a1.71,1.71,0,0,0-.68.39,1.3,1.3,0,0,0,.24,1.76,3.9,3.9,0,0,0,1.83.7,3.35,3.35,0,0,0-1.57.32,1.18,1.18,0,0,0-.59,1.36c.36.86,1.7.62,2.42,1.2a4.72,4.72,0,0,0-1.59.19,1.64,1.64,0,0,0-1.09,1.08,1.67,1.67,0,0,0,.84,1.71,5,5,0,0,0,1.94.56c-1,0-2.17.58-2.25,1.58s.85,1.63,1.73,2a7.58,7.58,0,0,0,4,.36,3.93,3.93,0,0,0,2.68-1.57,4.78,4.78,0,0,0,.54-1.74,20,20,0,0,0-.08-6.41c-.27-1.56-1-3.82-2.75-4.21A11.85,11.85,0,0,0,366.14,210.35Z"></path><path class="cls-3" d="M370,224.37a8.23,8.23,0,0,1-2.9-.53c-1.13-.43-2.3-1.36-2.2-2.69a2.11,2.11,0,0,1,.74-1.42l-.09,0a2.41,2.41,0,0,1-1.16-2.51,2.15,2.15,0,0,1,.91-1.26,1.65,1.65,0,0,1-.61-.75,1.82,1.82,0,0,1,.59-2l-.07-.07a2.18,2.18,0,0,1-.74-1.54,1.72,1.72,0,0,1,.45-1.26,2.34,2.34,0,0,1,1-.57,12.43,12.43,0,0,1,6-.79c1.68.36,2.83,2,3.31,4.79a20.61,20.61,0,0,1,.08,6.65,5.19,5.19,0,0,1-.64,2,4.6,4.6,0,0,1-3.16,1.91A8.44,8.44,0,0,1,370,224.37Zm.58-14.16a13.28,13.28,0,0,0-4.2.83h0a1.16,1.16,0,0,0-.4.2.24.24,0,0,0-.05.2.76.76,0,0,0,.25.51,3.23,3.23,0,0,0,1.48.53.73.73,0,0,1-.11,1.45,2.84,2.84,0,0,0-1.23.23c-.21.11-.32.35-.28.44s.43.24.79.33a3.41,3.41,0,0,1,1.41.58.74.74,0,0,1,.23.81.73.73,0,0,1-.69.49,4.34,4.34,0,0,0-1.35.14.94.94,0,0,0-.62.57,1,1,0,0,0,.52.92,4.28,4.28,0,0,0,1.65.45.73.73,0,0,1-.06,1.45c-.72,0-1.52.4-1.56.92s.62,1,1.25,1.22a6.88,6.88,0,0,0,3.62.32,3.32,3.32,0,0,0,2.19-1.23,4.06,4.06,0,0,0,.43-1.47,19.13,19.13,0,0,0-.06-6.18c-.22-1.22-.78-3.31-2.19-3.62A5.38,5.38,0,0,0,370.59,210.21Zm-4.45.14h0Z"></path><path class="cls-1" d="M220.79,300.08s-10.07,46.41-38.49,77.4l-19.8-5.69,29.15-79.29Z"></path><path class="cls-3" d="M182.3,378.21l-.2,0-19.8-5.69a.72.72,0,0,1-.45-.37.73.73,0,0,1,0-.58L191,292.25a.73.73,0,0,1,.87-.46L221,299.37a.73.73,0,0,1,.53.86c-.1.47-10.44,47-38.66,77.74A.75.75,0,0,1,182.3,378.21Zm-18.84-6.9,18.61,5.34c25.86-28.44,36.46-70.21,37.85-76l-27.82-7.24Z"></path><path class="cls-1" d="M276.67,285.55s9.49,12.63,21.11,15.48c0,0-12.71,49.59-8.92,73.92L304,376.53s31.43-74.55,24.48-85.61c-8.32-13.24-32.7-32.22-32.7-32.22Z"></path><path class="cls-3" d="M304,377.26H304l-15.16-1.57a.74.74,0,0,1-.65-.62c-3.52-22.61,7.23-67.36,8.76-73.51-11.4-3.18-20.43-15.05-20.82-15.56a.74.74,0,0,1,0-.86l19.15-26.86a.75.75,0,0,1,.49-.3.76.76,0,0,1,.55.15c1,.78,24.57,19.21,32.87,32.41,7.07,11.25-23.14,83.22-24.43,86.28A.73.73,0,0,1,304,377.26Zm-14.53-3,14.06,1.47c1.3-3.1,8.36-20.16,14.63-38.13,11.46-32.81,11.6-43.3,9.7-46.31-7.43-11.83-28.14-28.56-31.93-31.57l-18.38,25.79c1.75,2.19,10.33,12.33,20.37,14.79a.71.71,0,0,1,.46.33.73.73,0,0,1,.08.56C298.36,301.7,286.05,350.19,289.5,374.28Z"></path><path class="cls-3" d="M286.53,366.34l-3.24,23.06,14.87,1.74v-2.53a46.39,46.39,0,0,1,4.76,1.58c2.86,1.11,19.26.95,19.26.95s3.05-4.9-3.43-8.53-11.63-.47-13.16-1.9,3.05-13.26,2.48-12.79S286.53,366.34,286.53,366.34Z"></path><path class="cls-3" d="M319.73,391.88c-4.79,0-14.75-.12-17.07-1-1.63-.63-3-1.06-3.78-1.3v1.57a.72.72,0,0,1-.81.72l-14.87-1.74a.71.71,0,0,1-.49-.28.7.7,0,0,1-.14-.54l3.24-23.06a.7.7,0,0,1,.79-.62c7.54.74,19.87,1.82,21.2,1.63a.77.77,0,0,1,.71.06c.54.35.48.52-.4,3.37-.65,2.12-2.65,8.58-2,9.52.32.29,1.41.17,2.56.06A16.11,16.11,0,0,1,319.1,382c2.38,1.33,3.84,3,4.34,4.93a6.28,6.28,0,0,1-.65,4.61.75.75,0,0,1-.61.35Zm-21.57-4a.5.5,0,0,1,.17,0,46.36,46.36,0,0,1,4.85,1.6c2.18.84,13.73.93,18.55.91a4.94,4.94,0,0,0,.29-3.17c-.4-1.53-1.62-2.88-3.63-4a14.68,14.68,0,0,0-9.57-1.54c-1.63.17-2.91.31-3.72-.45-1.17-1.09-.37-4.56,1.62-11,.18-.56.35-1.13.48-1.57-2,0-6.91-.27-20.05-1.55l-3,21.64,13.32,1.55v-1.71a.72.72,0,0,1,.28-.57A.74.74,0,0,1,298.16,387.89Z"></path><path class="cls-3" d="M182.3,377.48c-.63.15-20.85-5.22-20.85-5.22l-6.16,23.54s9.64,3.47,10.58,2.68a4.32,4.32,0,0,0,1.27-1.73s1.58,2.52,4,3,17.37,3.79,18.32,1.74S179.3,393.11,179,388.38,182.3,377.48,182.3,377.48Z"></path><path class="cls-3" d="M186.73,402.88c-2.62,0-7.17-.63-15-2.25l-.81-.17a6.92,6.92,0,0,1-3.7-2.39,5.31,5.31,0,0,1-.9,1c-.31.26-1.27,1.06-11.29-2.56a.72.72,0,0,1-.46-.87l6.16-23.53a.69.69,0,0,1,.34-.44.7.7,0,0,1,.55-.08c7.4,2,19.47,5.1,20.61,5.19a.73.73,0,0,1,.68,1.1c0,.06-3.52,6-3.22,10.48.15,2.32,3.56,5.38,6.3,7.83s4.71,4.23,4.06,5.63C189.77,402.45,188.91,402.88,186.73,402.88ZM167.14,396a.72.72,0,0,1,.61.34s1.45,2.27,3.48,2.67l.82.17c14.28,3,16.42,2.24,16.73,1.94,0-.55-2.26-2.56-3.74-3.9-3.09-2.76-6.59-5.9-6.78-8.82-.26-3.85,1.91-8.48,2.92-10.41-1.9-.38-6.7-1.54-19.21-4.86l-5.81,22.19c4,1.42,8.58,2.76,9.36,2.52a3.52,3.52,0,0,0,.93-1.34.71.71,0,0,1,.6-.49Z"></path><path class="cls-3" d="M207.79,253S177,245.11,174.19,236s37.59-123,43-126.55,69,23.11,69,23.11-40.23,113.87-47.81,118S207.79,253,207.79,253Z"></path><path class="cls-3" d="M217.69,254c-5.32,0-9.55-.28-9.95-.3l-.13,0c-1.27-.32-31.18-8.1-34.11-17.54-2-6.42,15-56,18.41-65.82,8.16-23.52,21.51-59.33,24.84-61.56,1-.67,3.66-2.46,37.16,10.13,16.4,6.16,32.34,12.85,32.5,12.92a.72.72,0,0,1,.41.91c-4.13,11.68-40.55,114.25-48.15,118.37C234.24,253.52,224.94,254,217.69,254Zm-9.78-1.75c1.37.09,23,1.41,30.06-2.45,6-3.23,35.91-84.86,47.25-116.93-24.51-10.26-64-25.34-67.66-22.91-2.28,1.53-13.17,28.81-24.28,60.82-12.17,35.07-19.56,61.16-18.39,64.92C177.52,244.21,206.34,251.88,207.91,252.29Z"></path><path class="cls-3" d="M190.3,181.19s-10.1,3.27-9-8.1,18.32-57.81,23.46-60,11.56-1.87,13.24,5.86S202.94,188,190.3,181.19Z"></path><path class="cls-3" d="M192.33,182.45a4.75,4.75,0,0,1-2.1-.49c-1.08.29-4.78,1.07-7.34-1-1.9-1.53-2.67-4.21-2.31-8,.6-6.25,5.74-21.81,10.26-33.64,2.9-7.6,10-25.44,13.63-27s7.08-1.65,9.67-.31c2.33,1.19,3.87,3.44,4.57,6.68,1.51,6.94-10.58,53.25-22.42,62.14A6.62,6.62,0,0,1,192.33,182.45Zm-2-2a.73.73,0,0,1,.35.09c1.45.78,3,.52,4.76-.8,11.15-8.37,23.33-54,21.88-60.68-.6-2.79-1.89-4.7-3.81-5.69-2.21-1.14-5.28-1-8.44.35-4.37,1.89-21.8,46.87-23,59.43-.32,3.23.28,5.48,1.77,6.68,2.34,1.89,6.24.67,6.28.65A.83.83,0,0,1,190.3,180.46Z"></path><path class="cls-3" d="M219.1,110.84a5.38,5.38,0,0,1-2.79-4.44A15.85,15.85,0,0,1,217,101a123.18,123.18,0,0,1,5.78-18.59,9.83,9.83,0,0,1,3.1-4.46,9.69,9.69,0,0,1,4.86-1.34c17.47-1.39,34.47,5.47,50.37,12.86,4.3,2,8.84,4.3,11.14,8.45,2.81,5,1.48,11.3.07,16.9-2.06,8.24-4.18,16.62-8.6,23.87a12.44,12.44,0,0,1-4.21,4.6,11.62,11.62,0,0,1-7,1c-7.55-.79-14.39-4.59-21.32-7.71-6.25-2.82-12.74-5.15-18.66-8.61s-11.34-8.25-14-14.56a8.48,8.48,0,0,1-.8-5.12,3.85,3.85,0,0,1,3.69-3.13"></path><path class="cls-3" d="M274.57,145.13a19.47,19.47,0,0,1-2.1-.11c-6.34-.67-12.21-3.43-17.89-6.09-1.22-.57-2.43-1.14-3.65-1.69-1.88-.85-3.79-1.65-5.69-2.45a111.64,111.64,0,0,1-13.05-6.19c-7.05-4.13-11.87-9.14-14.32-14.91a11.1,11.1,0,0,1-1-3.76,6.78,6.78,0,0,1-1.3-3.46,16.47,16.47,0,0,1,.74-5.66,124.67,124.67,0,0,1,5.81-18.7,8.41,8.41,0,0,1,8.57-6.24c18.1-1.43,35.67,5.92,50.73,12.93,4.71,2.19,9.12,4.51,11.48,8.76,2.86,5.16,1.64,11.44.14,17.43-2.05,8.19-4.17,16.66-8.69,24.07a13.23,13.23,0,0,1-4.47,4.85A10.59,10.59,0,0,1,274.57,145.13Zm-56-33.72a13.35,13.35,0,0,0,.61,1.72c2.32,5.47,6.94,10.25,13.72,14.22a111.31,111.31,0,0,0,12.88,6.1c1.91.8,3.82,1.61,5.71,2.46,1.23.56,2.45,1.13,3.68,1.71,5.57,2.61,11.32,5.31,17.42,5.95a10.9,10.9,0,0,0,6.57-.92,12.11,12.11,0,0,0,3.94-4.34c4.4-7.22,6.49-15.59,8.52-23.68,1.49-5.94,2.61-11.67,0-16.37-2.15-3.86-6.34-6.05-10.82-8.14-14.89-6.93-32.26-14.21-50-12.8a9.13,9.13,0,0,0-4.51,1.22,9.37,9.37,0,0,0-2.85,4.14,124.66,124.66,0,0,0-5.73,18.49,15.26,15.26,0,0,0-.71,5.16,5.74,5.74,0,0,0,.22,1.11,4.44,4.44,0,0,1,4.24-3,.73.73,0,0,1,.67.78.74.74,0,0,1-.78.67,3.15,3.15,0,0,0-2.93,2.57,4.74,4.74,0,0,0-.12.94,3.42,3.42,0,0,0,1.08.79.72.72,0,0,1,.35,1,.71.71,0,0,1-1,.36Z"></path><path class="cls-4" d="M292.7,154.9s10.93,57,21.36,58.38,29.48.8,29.48.8l.61,21.87s-19.45,11.78-42.82-1.49-26.74-46.91-26.74-46.91Z"></path><path class="cls-1" d="M268.3,221l44.32,43.39-34.81,29.7-30.33-29.7-19.27,42.33-44.5-3.59s25.52-75.14,31.2-89Z"></path><path class="cls-3" d="M228.21,307.44h-.06l-44.5-3.59a.74.74,0,0,1-.64-1c.26-.76,25.6-75.33,31.23-89.09a.74.74,0,0,1,.77-.45l53.38,6.91a.8.8,0,0,1,.42.21l44.32,43.39a.8.8,0,0,1,.22.55.73.73,0,0,1-.26.53l-34.81,29.69a.71.71,0,0,1-1,0l-29.59-29L228.88,307A.74.74,0,0,1,228.21,307.44Zm-43.51-5L227.76,306l19.06-41.87a.7.7,0,0,1,.53-.41.72.72,0,0,1,.64.19l29.85,29.23,33.7-28.74L268,221.68l-52.58-6.81C209.73,229,187.55,294.08,184.7,302.47Z"></path><path class="cls-1" d="M270.38,95.3a16.67,16.67,0,0,0-9.76-9.69,25.38,25.38,0,0,0-14-1c-3.53.67-7.21,2.1-9.12,5.14a16.37,16.37,0,0,0-1.88,6.47,15.52,15.52,0,0,1-2,6.43c-1.24,1.89-3.62,3.23-5.78,2.56,4.63,4.37,12.42,5.8,17.43,1.86,4-3.12,5.72-9,10.46-10.72,3.7-1.36,7.75.35,11.31,2"></path><path class="cls-3" d="M238.31,110.15a16.39,16.39,0,0,1-10.91-4.39.74.74,0,0,1-.13-.9.72.72,0,0,1,.84-.32c1.9.58,3.93-.7,5-2.27s1.47-3.68,1.84-6.14a17,17,0,0,1,2-6.74c1.73-2.75,5-4.59,9.61-5.47a26,26,0,0,1,14.37,1,17.42,17.42,0,0,1,10.19,10.14.72.72,0,0,1-.45.92.73.73,0,0,1-.93-.45,16,16,0,0,0-9.34-9.26,24.58,24.58,0,0,0-13.57-.93c-4.24.8-7.15,2.42-8.65,4.81a16,16,0,0,0-1.77,6.18,16.42,16.42,0,0,1-2.07,6.74,7,7,0,0,1-4.24,3c4.25,2.91,10.53,3.87,14.83.49a22.23,22.23,0,0,0,4-4.64c1.8-2.5,3.66-5.09,6.65-6.19,3.89-1.43,8,.23,11.87,2a.73.73,0,1,1-.62,1.32c-3.59-1.7-7.38-3.25-10.75-2-2.57,1-4.22,3.25-6,5.68a23.22,23.22,0,0,1-4.29,4.93A11.9,11.9,0,0,1,238.31,110.15Z"></path><path class="cls-4" d="M261.07,93.69a19.37,19.37,0,0,1,5.52-2.31,9.13,9.13,0,0,1,6.34.67c1.69,1,2.41,3,.63,4.34a53.48,53.48,0,0,1-6.41,3.87,22.64,22.64,0,0,0-4.29,2.94c-1.06,1-2.18,2.48-3.75,2.62-4.85.42-4.45-6.61-2.24-9.06A14.6,14.6,0,0,1,260,94.31C260.38,94.1,260.72,93.89,261.07,93.69Z"></path><path class="cls-1" d="M298.44,106.81c-2.94-6.86-9.07-12.34-16.51-13.41-9.8-1.41-20.4,1.22-26.13,9.94s-5.52,22.86,3.33,29.59c7.32,5.56,17.85,7.64,26.66,4.85,9.37-3,15.25-14.57,14.44-23.89A23.12,23.12,0,0,0,298.44,106.81Z"></path><path class="cls-3" d="M277.51,139.75a31.5,31.5,0,0,1-18.82-6.24c-9.4-7.15-9.39-21.57-3.49-30.57C260.5,94.86,270.53,91,282,92.68c7.33,1,13.87,6.36,17.08,13.85h0a23.56,23.56,0,0,1,1.84,7.29c.81,9.37-5,21.52-14.94,24.66A28.45,28.45,0,0,1,277.51,139.75Zm-.64-46c-8.81,0-16.25,3.57-20.46,10C251,112,251,125.8,259.57,132.35a29.55,29.55,0,0,0,26,4.74c9.28-2.93,14.7-14.33,13.94-23.14a22.22,22.22,0,0,0-1.74-6.85h0c-3-7-9.11-12-15.94-13A34,34,0,0,0,276.87,93.75Z"></path><path class="cls-4" d="M295.4,150.24c-.46-1.4-41.13-24.87-58.09-15.55S211.2,216.9,211.2,216.9l36.05,10.52L268.3,221S307.71,188.06,295.4,150.24Z"></path><path class="cls-1" d="M276.45,141.06l-3.34,11.46s-3,4.8-10.16.78-6.79-9.62-6.79-9.62l7-21.14s13.83-3,15.64-15.82c0,0,1.91,11,13.73,12.79,0,0-3,11.07-5.56,16.75S276.45,141.06,276.45,141.06Z"></path><path class="cls-3" d="M268.2,155.63a11.57,11.57,0,0,1-5.61-1.69c-7.46-4.2-7.18-10.06-7.16-10.3a.58.58,0,0,1,0-.19l7-21.14a.7.7,0,0,1,.54-.48c.13,0,13.35-3.06,15.07-15.22a.72.72,0,0,1,.71-.62h0a.73.73,0,0,1,.72.6,15.49,15.49,0,0,0,13.12,12.2.74.74,0,0,1,.5.32.73.73,0,0,1,.09.59c-.12.45-3,11.19-5.59,16.86-2.38,5.2-8.64,5.36-10.65,5.27l-3.17,10.89a.75.75,0,0,1-.08.18A6.72,6.72,0,0,1,268.2,155.63Zm-11.32-11.82c0,.7.18,5.35,6.43,8.86,6.06,3.4,8.73.11,9.13-.47l3.31-11.34a.72.72,0,0,1,.78-.53c.07,0,7.42.76,9.77-4.37,2.15-4.7,4.58-13.26,5.3-15.86a16.78,16.78,0,0,1-12.68-10.55c-2.93,9.76-13,13-15.2,13.6Zm16.23,8.71h0Z"></path><path class="cls-1" d="M267,123a5.22,5.22,0,0,0-.94-3.16,9.12,9.12,0,0,0-2.31-2.11,3.84,3.84,0,0,0-1.53-.75A3.31,3.31,0,0,0,261,117a4.07,4.07,0,0,0-2.4,1.42,4.81,4.81,0,0,0-.71,2.17,9.1,9.1,0,0,0-.07,2.5,6.31,6.31,0,0,0,7.15,5.43"></path><path class="cls-3" d="M264.05,129.34a7,7,0,0,1-7-6.14,10,10,0,0,1,.06-2.7A5.53,5.53,0,0,1,258,118a4.74,4.74,0,0,1,2.82-1.71,3.94,3.94,0,0,1,1.49-.1,4.54,4.54,0,0,1,1.84.87,9.66,9.66,0,0,1,2.48,2.29,5.92,5.92,0,0,1,1.08,3.6.72.72,0,0,1-.73.71h0a.73.73,0,0,1-.71-.75,4.4,4.4,0,0,0-.81-2.72,8.26,8.26,0,0,0-2.13-1.93,3.35,3.35,0,0,0-1.23-.63,2.53,2.53,0,0,0-.92.08,3.35,3.35,0,0,0-2,1.14,4,4,0,0,0-.59,1.83,8.8,8.8,0,0,0-.07,2.31,5.58,5.58,0,0,0,6.33,4.81.73.73,0,1,1,.21,1.45A8.24,8.24,0,0,1,264.05,129.34Z"></path><path class="cls-1" d="M281.25,122.38s2.58,7,1.36,7.86-3.75-.54-3.75-.54"></path><path class="cls-3" d="M281.59,131.23a7.63,7.63,0,0,1-3.08-.88.74.74,0,0,1-.3-1,.73.73,0,0,1,1-.3c.87.46,2.42,1,3,.58.27-.52-.47-3.82-1.64-7a.73.73,0,0,1,.44-.94.72.72,0,0,1,.93.44c1.27,3.46,2.48,7.78,1.08,8.72A2.49,2.49,0,0,1,281.59,131.23Z"></path><ellipse class="cls-3" cx="278.19" cy="118.92" rx="1.45" ry="1.03" transform="matrix(0.03, -1, 1, 0.03, 152.22, 393.99)"></ellipse><ellipse class="cls-3" cx="284.87" cy="120.58" rx="1.45" ry="1.03" transform="translate(157.06 402.29) rotate(-88.54)"></ellipse><path class="cls-1" d="M282.49,133.7s-11.58,2.61-10.29-6.92"></path><path class="cls-3" d="M279.24,134.76a8.91,8.91,0,0,1-6-1.88c-1.52-1.39-2.1-3.48-1.74-6.2a.73.73,0,1,1,1.45.19c-.3,2.22.13,3.88,1.28,4.94,2.6,2.38,8.08,1.19,8.13,1.18a.73.73,0,0,1,.87.55.73.73,0,0,1-.55.87A16.57,16.57,0,0,1,279.24,134.76Z"></path><path class="cls-3" d="M276.45,141.06s-5.91-1.86-8.15-4.34c0,0,.15,7.47,6,11.2Z"></path><path class="cls-3" d="M274.33,148.65a.69.69,0,0,1-.39-.12c-6.14-3.89-6.36-11.48-6.37-11.8a.73.73,0,0,1,1.27-.5c2.08,2.31,7.77,4.12,7.83,4.14a.72.72,0,0,1,.47.9L275,148.13a.74.74,0,0,1-.69.52Zm-5.09-10.17a13.44,13.44,0,0,0,4.69,8.27l1.61-5.23A28.47,28.47,0,0,1,269.24,138.48Z"></path><line class="cls-1" x1="224.84" y1="242.1" x2="123.81" y2="398.48"></line><path class="cls-3" d="M123.81,399.21a.71.71,0,0,1-.39-.12.73.73,0,0,1-.22-1l101-156.38a.73.73,0,1,1,1.22.79l-101,156.38A.74.74,0,0,1,123.81,399.21Z"></path><path class="cls-3" d="M222.6,241.4s-14.69,22.86-14.8,23.69,3.4,3.56,3.4,3.56l17-25.35S224.79,240.51,222.6,241.4Z"></path><path class="cls-3" d="M211.2,269.37a.69.69,0,0,1-.44-.15c-3.86-3-3.73-3.92-3.68-4.23.11-.81,8.17-13.49,14.91-24a.67.67,0,0,1,.34-.28c2.51-1,6,1.69,6.34,2a.73.73,0,0,1,.14,1l-17,25.35a.69.69,0,0,1-.48.31Zm-2.65-4.21a13.49,13.49,0,0,0,2.49,2.43l16.18-24.13c-1.06-.74-2.91-1.77-4.14-1.45C217.56,250.6,209.43,263.41,208.55,265.16Z"></path><path class="cls-1" d="M198.14,208.24s12.25,30.07,14,31,7,1.81,8.27,3.08,8,10.47,7.79,12.48-2.72,2.73-2.72,2.73,1.45,2.18-.72,2.9a8.44,8.44,0,0,1-4.53,0s.36,4.17-2,3.08S205,252.25,196.88,240.84s-15-28.79-15.58-28.79"></path><path class="cls-3" d="M219,264.39a2.44,2.44,0,0,1-1-.25c-2.71-1.25-13.73-11.77-21.66-22.87-5.7-8-10.79-18.88-13.52-24.73-.84-1.81-1.64-3.52-1.9-3.92a.7.7,0,0,1-.29-.57.73.73,0,0,1,.73-.73c.63,0,.67.08,2.79,4.61,2.71,5.8,7.76,16.61,13.38,24.49,8.12,11.37,18.9,21.39,21.08,22.4.15.06.41.16.53.08.36-.25.51-1.49.43-2.44a.74.74,0,0,1,.27-.63.77.77,0,0,1,.67-.13,7.65,7.65,0,0,0,4.09,0c.54-.18.63-.43.66-.51a1.88,1.88,0,0,0-.32-1.3.74.74,0,0,1,.41-1.1s2.06-.62,2.19-2.1-6.13-10.45-7.58-11.89c-.62-.63-2.85-1.27-4.65-1.79a21.58,21.58,0,0,1-3.44-1.16c-1.8-.93-10.63-22.23-14.34-31.34a.73.73,0,0,1,.4-1,.72.72,0,0,1,.95.4c4.57,11.22,12.33,29.45,13.71,30.63a24,24,0,0,0,3.13,1c2.15.62,4.38,1.26,5.28,2.15s8.22,10.55,8,13.06a3.94,3.94,0,0,1-2.44,3.06,2.67,2.67,0,0,1,.09,1.78,2.31,2.31,0,0,1-1.58,1.42,8.43,8.43,0,0,1-4,.22,3.59,3.59,0,0,1-1.07,2.78A1.61,1.61,0,0,1,219,264.39Z"></path><path class="cls-3" d="M211.67,208.35a29.67,29.67,0,0,0,9.12,5.73c5.37,2,10.15,2.52,11.41,3.15s4.62,3,4.62,3L236,230.73s-2.13,3.86-5.9,3.44c-1.72-.18-22.25-7.07-24.86-10.12S211.67,208.35,211.67,208.35Z"></path><path class="cls-3" d="M230.66,234.93l-.65,0c-1.65-.18-22.53-7.09-25.33-10.38s4.83-14.4,6.4-16.59a.74.74,0,0,1,.53-.3.8.8,0,0,1,.57.2,28.92,28.92,0,0,0,8.87,5.57,54.81,54.81,0,0,0,8.42,2.36,15.89,15.89,0,0,1,3.05.82c1.3.65,4.57,2.92,4.71,3a.7.7,0,0,1,.31.65l-.83,10.53a.61.61,0,0,1-.08.3C236.53,231.24,234.45,234.93,230.66,234.93Zm-18.87-25.48c-3.52,5.05-7.49,12.39-6,14.12,2.42,2.84,22.68,9.7,24.39,9.88,2.87.31,4.72-2.34,5.11-2.95l.78-9.94c-.88-.61-3.21-2.19-4.19-2.68a17.47,17.47,0,0,0-2.71-.7,57.51,57.51,0,0,1-8.63-2.42A30.55,30.55,0,0,1,211.79,209.45Z"></path><path class="cls-4" d="M237.31,134.69s-58.54,17.86-63.75,45.82A73.9,73.9,0,0,0,182.09,230l26.47-12.48S196.3,196.15,202,184.3s33.17-17.06,33.17-17.06S249.41,139.09,237.31,134.69Z"></path><path class="cls-3" d="M207.28,209.89s17.69-5.63,33.09-27.57,9.24-54.21,8.77-53.71-7,1.79-7,1.79,6,20.49-2,37.32-33,36.25-32.86,36S207.28,209.89,207.28,209.89Z"></path><path class="cls-3" d="M207.28,210.62a.71.71,0,0,1-.44-.15.73.73,0,0,1-.29-.6c.07-2.48.1-5.24,0-5.87a.75.75,0,0,1,.08-.68.67.67,0,0,1,.25-.22c.9-.68,24.66-19.21,32.55-35.7s2.06-36.59,2-36.79a.73.73,0,0,1,.08-.58.7.7,0,0,1,.48-.34,49.31,49.31,0,0,0,6.65-1.65.67.67,0,0,1,.94,0c1.4,1.15,6.31,33.35-8.66,54.69-15.37,21.89-33.29,27.78-33.47,27.84A.85.85,0,0,1,207.28,210.62Zm.78-6.62c.06.75,0,2.14,0,4.83,3.89-1.54,18.72-8.37,31.75-26.93,13.8-19.67,10.14-47.64,9-52.33a49.83,49.83,0,0,1-5.66,1.39c1,3.9,4.92,22-2.29,37.07S212.4,200.93,208.06,204Z"></path><path class="cls-3" d="M287.17,145.19s4.38,25.84,2.25,42.43-15.79,26.89-15.79,26.89,16.86-9.06,21.3-32.19,0-34.4,0-34.4Z"></path><path class="cls-3" d="M273.63,215.24a.73.73,0,0,1-.44-1.31c.14-.1,13.44-10.33,15.51-26.4,2.09-16.29-2.2-42-2.25-42.22a.74.74,0,0,1,.25-.68.76.76,0,0,1,.71-.13l7.76,2.73a.71.71,0,0,1,.43.42c.19.47,4.47,11.73,0,34.8s-21.49,32.61-21.67,32.7A.67.67,0,0,1,273.63,215.24Zm14.45-69c.82,5.32,3.92,27,2.06,41.43A40.32,40.32,0,0,1,282.55,206a49.34,49.34,0,0,0,11.66-23.86c4-20.56.78-31.75.15-33.69Z"></path><path class="cls-3" d="M273.63,214.51c-.47,0-9.7,3.52-9.7,3.52s-1.67,10.5,1,12,13.27,0,13.27,0Z"></path><path class="cls-3" d="M269.68,231.46a11.86,11.86,0,0,1-5.09-.77c-3-1.69-1.67-10.93-1.37-12.77a.7.7,0,0,1,.46-.56c9.34-3.58,9.8-3.58,9.95-3.58a.74.74,0,0,1,.7.53l4.58,15.54a.68.68,0,0,1-.09.59.72.72,0,0,1-.51.33A68.7,68.7,0,0,1,269.68,231.46Zm-5.09-12.9c-.61,4.14-.79,10,.71,10.86,1.85,1.05,8.63.45,12,0l-4.13-14C271.58,215.93,267.45,217.47,264.59,218.56Z"></path><path class="cls-3" d="M231.2,223.7s25.93,1.39,32.11-2.71v6s-21.83,5.7-31.47,1.75Z"></path><path class="cls-3" d="M241.17,230.87a26.25,26.25,0,0,1-9.6-1.45.75.75,0,0,1-.45-.58l-.64-5.05a.72.72,0,0,1,.19-.59.76.76,0,0,1,.57-.23c.26,0,25.76,1.34,31.66-2.59A.73.73,0,0,1,264,221v6a.72.72,0,0,1-.54.7C262.83,227.86,251.17,230.87,241.17,230.87Zm-8.66-2.64c8.64,3.18,26.71-1,30.07-1.81V222.2c-7,3.12-26.16,2.46-30.55,2.27Z"></path><path class="cls-3" d="M247.48,265.11a.67.67,0,0,1-.33-.08.73.73,0,0,1-.32-1c.08-.16,8.12-16.08,8.6-22a.73.73,0,0,1,1.45.11c-.49,6.22-8.41,21.9-8.75,22.56A.71.71,0,0,1,247.48,265.11Z"></path><path class="cls-1" d="M214.21,141.36a.86.86,0,0,1-.27-.05.75.75,0,0,1-.43-1A58.53,58.53,0,0,0,217.25,119a.75.75,0,0,1,.71-.79.78.78,0,0,1,.8.71,59.3,59.3,0,0,1-3.84,22A.76.76,0,0,1,214.21,141.36Z"></path><path class="cls-1" d="M247.48,123.13l-.17,0c-5.34-1.25-28-8.67-29-9a.76.76,0,0,1-.48-.95.74.74,0,0,1,1-.48c.24.07,23.61,7.71,28.88,8.94a.76.76,0,0,1-.17,1.49Z"></path><path class="cls-1" d="M241.32,129.36a.75.75,0,0,1-.59-1.22,5.19,5.19,0,0,1,3.72-2.14,7.64,7.64,0,0,1,5.2,2.06.75.75,0,0,1,0,1.06.76.76,0,0,1-1.06,0s-2-1.83-4.08-1.66a3.68,3.68,0,0,0-2.64,1.57A.75.75,0,0,1,241.32,129.36Z"></path><path class="cls-1" d="M236,231.48h-.09a.75.75,0,0,1-.66-.83l.83-6.84a.76.76,0,1,1,1.5.18l-.83,6.84A.76.76,0,0,1,236,231.48Z"></path><path class="cls-3" d="M306.08,373.47l-.14,0-4.74-.94a.73.73,0,0,1,.29-1.43l4.73.94a.73.73,0,0,1-.14,1.45Z"></path><path class="cls-3" d="M305.72,377.26h-5.48a.73.73,0,0,1,0-1.46h5.48a.73.73,0,0,1,0,1.46Z"></path><path class="cls-3" d="M273.63,288.56a.71.71,0,0,1-.56-.26.73.73,0,0,1,.1-1l33.08-27.44a.72.72,0,0,1,1,.09.73.73,0,0,1-.09,1L274.09,288.4A.7.7,0,0,1,273.63,288.56Z"></path><path class="cls-3" d="M230.09,300.89a.75.75,0,0,1-.26-.05c-1.35-.41-26.49-3.93-43.09-6.2a.73.73,0,0,1,.2-1.44c9.91,1.36,42.34,5.82,43.44,6.29a.73.73,0,0,1,.38,1A.74.74,0,0,1,230.09,300.89Z"></path><path class="cls-3" d="M276.67,281.46a.74.74,0,0,1-.48-.18L252.75,261a.73.73,0,0,1-.07-1,.72.72,0,0,1,1-.07l23.44,20.33a.73.73,0,0,1-.47,1.28Z"></path></g></svg>