<svg transform="scale(1)" version="1.1" id="Layer_1" xmlns="http://www.w3.org/2000/svg" xmlns:xlink="http://www.w3.org/1999/xlink" x="0px" y="0px" viewBox="0 0 500 500" xml:space="preserve" class="show_show__wrapper__graphic__5Waiy "><title>React</title><style type="text/css">
	.st0{fill:#FFFFFF;}
	.st1{fill:#231F20;}
	.st2{fill:#68E1FD;}
	.st3{fill:#D1D3D4;}
</style><g id="Heart_Frame"><path class="st0" d="M443.3,197.4c-1.1,13-3.8,25.9-8.1,38.2c-6.9,19.7-18.3,36.7-32.1,52.3c-4.4,4.9-8.9,9.7-13.5,14.3
		c-10.3,10.3-21.1,19.9-32,29.5l-5.4,4.8c-9.3,8.2-18.5,16.3-27.8,24.5c-2.5,2.2-5,4.4-7.4,6.5c-10.1,8.9-20.2,17.8-30.4,26.8
		c-1.6,1.4-3.2,2.8-4.8,4.2c-2.2,2-4.4,3.9-6.6,5.9s-4.4,4-6.6,6c-5.8,5.3-11.4,10.7-17.1,16c-0.4,0.4-0.9,0.8-1.4,1.3
		c-2-1.9-3.9-3.7-5.9-5.5c-10.7-10.1-21.5-20.1-32.5-29.9c-3.1-2.9-6.3-5.7-9.5-8.5c-4-3.6-8-7.1-12.1-10.7c-3.5-3.1-7-6.1-10.5-9.2
		c-5.8-5-11.6-10.1-17.4-15.1c-12.3-10.6-24.6-21.2-36.5-32.2c-5.7-5.2-11.2-10.5-16.7-16c-6.5-6.5-12.7-13.3-18.6-20.4
		c-5.2-6.3-9.9-13-14.1-20C67,244.5,60.8,227,58.1,208.7c-2.2-13.5-3-27.2-2.4-40.9c1.8-41.7,27.5-76.9,65.8-89.5
		c41.3-13.6,77.7-4.1,108.9,25.9c7.1,7,13.4,14.9,18.6,23.5c0.3,0.4,0.6,0.9,1.1,1.6c1.9-2.9,3.7-5.7,5.6-8.3
		c12.6-17.7,28.4-31.7,48.5-40.4c15.2-6.6,31.9-9.3,48.4-7.9c25,2,46.6,11.6,64.1,29.6c14.9,15.3,23.6,33.8,26.7,54.9
		C445.3,170.6,444.5,184.1,443.3,197.4z"></path><path class="st1" d="M250,428.5c-0.2,0-0.4-0.1-0.5-0.2L247,426l-3.4-3.2c-10-9.5-20.6-19.2-32.5-29.8c-3.1-2.9-6.3-5.7-9.5-8.5
		c-4-3.6-8-7.1-12.1-10.7c-2.7-2.4-5.5-4.8-8.3-7.2l-2.2-1.9c-5.8-5-11.6-10.1-17.4-15.1l-3.3-2.8c-11-9.5-22.4-19.4-33.3-29.4
		c-5.9-5.4-11.5-10.8-16.7-16c-6.6-6.5-12.8-13.4-18.6-20.5c-5.2-6.4-9.9-13.1-14.1-20.1c-9.4-16-15.7-33.6-18.4-51.9
		c-2.1-13.6-2.9-27.3-2.4-41.1c1.8-42.1,27.8-77.5,66.2-90.1c40.8-13.4,77.6-4.6,109.6,26.1c7.2,7.1,13.4,15,18.6,23.6l0.5,0.7
		c0.4-0.6,0.8-1.2,1.2-1.8c1.3-2,2.5-3.8,3.8-5.7c13.4-18.9,29.4-32.2,48.8-40.6c15.3-6.6,32.1-9.4,48.7-7.9
		c25.6,2.1,47.3,12.1,64.6,29.8c14.7,15.1,23.8,33.6,26.9,55.3c1.9,12.7,1.4,25.4,0,40.4l0,0c-1.1,13.1-3.9,26-8.2,38.4
		c-6.3,18.1-16.9,35.2-32.2,52.5c-4.1,4.6-8.5,9.3-13.5,14.3c-9.7,9.7-19.8,18.9-32,29.6l-5.4,4.8c-6.9,6.1-13.8,12.1-20.7,18.2
		l-7.1,6.3c-2.5,2.2-5,4.4-7.4,6.5c-10.1,8.9-20.2,17.8-30.4,26.8L275.6,405c-2.3,2-4.5,4-6.6,6c-3.3,3-6.6,6.1-9.9,9.2
		c-2.4,2.3-4.8,4.5-7.3,6.8l-1.4,1.3C250.3,428.4,250.2,428.5,250,428.5z M157.1,73c-12.1,0.1-24.1,2.1-35.5,6
		c-37.9,12.5-63.5,47.4-65.3,88.9c-0.5,13.6,0.3,27.3,2.4,40.8c2.7,18.1,8.9,35.6,18.2,51.4c4.2,7,8.9,13.7,14,20
		c5.8,7.1,12,13.9,18.5,20.4c5.2,5.2,10.8,10.6,16.6,16c10.9,10,22.2,19.9,33.2,29.4l3.3,2.8c5.8,5,11.6,10,17.4,15.1l2.2,1.9
		c2.8,2.4,5.5,4.8,8.3,7.2c4,3.5,8.1,7.1,12.1,10.7c3.2,2.8,6.3,5.6,9.5,8.5c11.9,10.6,22.5,20.4,32.5,29.9c1.1,1.1,2.2,2.1,3.4,3.2
		l2,1.9l0.9-0.9c2.4-2.2,4.8-4.5,7.2-6.8c3.3-3.1,6.6-6.2,9.9-9.2c2.1-1.9,4.3-4,6.6-6l11.4-10.1c10.1-8.9,20.2-17.9,30.3-26.8
		c2.5-2.2,5-4.4,7.5-6.5l7.1-6.3c6.9-6.1,13.8-12.1,20.7-18.2l5.4-4.8c12.2-10.7,22.3-19.8,32-29.5c5-5,9.4-9.7,13.5-14.3
		c15.2-17.1,25.7-34.2,31.9-52c4.3-12.3,7-25.1,8.1-38.1l0,0c1.4-14.9,1.9-27.5,0-40.1c-3.1-21.3-12.1-39.6-26.5-54.5
		c-17-17.4-38.4-27.3-63.7-29.4c-16.4-1.4-32.9,1.3-48.1,7.8c-19.2,8.3-34.9,21.4-48.2,40.1c-1.3,1.8-2.5,3.7-3.8,5.6l-1.8,2.7
		c-0.1,0.2-0.3,0.3-0.6,0.3l0,0c-0.2,0-0.4-0.1-0.6-0.3l-0.2-0.3c-0.4-0.5-0.6-0.9-0.9-1.3c-5.1-8.5-11.3-16.4-18.4-23.3
		C207.9,83.6,183.5,73,157.1,73z"></path></g><g id="Family"><path class="st0" d="M286,151.8c0,0-9.2,60.7-15.8,74.2l24.8,4.2l2.1-5l2.8,6.6l25.5,3.8l-7.6-93.6L286,151.8z"></path><path class="st1" d="M325.4,236.3h-0.1l-25.5-3.8c-0.2,0-0.5-0.2-0.5-0.4l-2.1-5.1l-1.5,3.5c-0.1,0.3-0.4,0.5-0.8,0.4l-24.8-4.3
		c-0.4-0.1-0.6-0.4-0.6-0.8c0-0.1,0-0.1,0.1-0.2c6.5-13.3,15.6-73.4,15.7-74c0-0.3,0.2-0.5,0.5-0.6l31.9-9.8
		c0.4-0.1,0.7,0.1,0.9,0.4c0,0.1,0,0.1,0,0.2l7.6,93.6c0,0.2-0.1,0.4-0.2,0.6C325.8,236.2,325.6,236.3,325.4,236.3z M300.4,231.2
		l24.3,3.6l-7.5-91.9l-30.6,9.4c-0.9,5.8-9.1,58.7-15.4,73.1l23.4,4l1.9-4.5c0.1-0.2,0.4-0.4,0.6-0.4c0.3,0,0.5,0.2,0.6,0.4
		L300.4,231.2z"></path><path class="st0" d="M156.8,136.1c1.1-3.2,2.6-6.3,4.5-9.2c2.9-3.5,6.4-6.3,10.4-8.3c11.4-5.6,29.2-9.1,41.2-3.7
		c7.6,3.4,14.4,9.7,16,17.9c0.5,3.2,0.5,6.4,0.1,9.6c-1.9,20-16.5,24.6-31.5,34.2c-10.2,6.5-24.5,12.7-36.9,8.1
		c-9.5-3.5-13.9-14.6-14.9-23.9c-0.6-5.7-1.1-16.5,4-20.5c2.1-1.7,4.9-2.2,7.5-1.6C156.4,138.7,156.4,137.6,156.8,136.1z"></path><path class="st1" d="M169.9,187.2c-3.2,0-6.4-0.5-9.4-1.6c-9.7-3.6-14.3-15-15.4-24.5c-0.7-6.1-1.1-16.9,4.2-21.1
		c1.9-1.5,4.2-2.2,6.6-2c0-0.7,0.1-1.4,0.3-2l0,0c1.1-3.3,2.7-6.5,4.7-9.4c2.9-3.5,6.5-6.4,10.6-8.5c11.5-5.7,29.5-9.3,41.9-3.7
		c8.8,4,14.9,10.9,16.4,18.4c0.5,3.3,0.5,6.6,0.1,9.8c-1.6,16.9-12.1,23-24.2,30.1c-2.5,1.4-5.1,3-7.6,4.6
		C190.4,182.2,180.1,187.2,169.9,187.2z M155.1,139.4c-1.8,0-3.5,0.6-4.9,1.7c-5,3.9-4.2,15.2-3.7,19.9c1,9.1,5.4,20,14.5,23.3
		c12.3,4.6,26.5-1.9,36.2-8.1c2.6-1.7,5.2-3.2,7.7-4.6c11.8-6.9,22-12.9,23.5-29.1c0.4-3.1,0.4-6.3-0.1-9.4
		c-1.4-7.1-7.2-13.6-15.6-17.4c-11.9-5.4-29.4-1.9-40.7,3.7c-3.9,2-7.4,4.7-10.2,8.1c-1.8,2.8-3.3,5.8-4.4,8.9
		c-0.4,1.3-0.2,1.8-0.1,1.9l0,0h0.1c0.4,0.1,0.6,0.4,0.5,0.8c-0.1,0.4-0.4,0.6-0.8,0.5c0,0-0.1,0-0.1,0l0,0
		C156.4,139.4,155.8,139.4,155.1,139.4L155.1,139.4z"></path><path class="st2" d="M297.8,239.9l-15.5-1.6L297.8,239.9l-17.5,21.8l-4.1,49.8c0,0,0.2,3.6,0.6,10.1c0.3,5.2,0.7,12.2,1.3,20.7
		c0.9,14.8,2.2,34,3.7,56.1c-2.2,2-4.4,3.9-6.6,5.9s-4.4,4-6.6,6c-5.8,5.3-11.4,10.7-17.1,16c-0.4,0.4-0.9,0.8-1.4,1.3
		c-2-1.9-3.9-3.7-5.9-5.5c-10.7-10.1-21.5-20.1-32.5-29.9c-3.1-2.9-6.3-5.7-9.5-8.5c-4-3.6-8-7.1-12.1-10.7c-3.5-3.1-7-6.1-10.5-9.2
		c-5.8-5-11.6-10.1-17.4-15.1c-12.3-10.6-24.6-21.2-36.5-32.2c-5.7-5.2-11.2-10.5-16.7-16c-6.5-6.5-12.7-13.3-18.5-20.4
		c8.9-17.5,23.5-43.2,35.6-50.9c9.6-8,25.1-11.6,43.9-13.6c8.5-0.9,17.6-1.4,27.1-1.8l0,0l12.9-0.5c0,0,2,0.1,6.3,0.5
		s10.6,1,19.4,1.9C255.2,218.1,297.8,239.9,297.8,239.9z"></path><path class="st2" d="M389.9,273.1c-0.1,1.8-0.2,4-0.2,6.5l0,0c-0.1,5.9-0.1,13.7-0.1,22.6c-10.3,10.3-21.1,19.9-32,29.5l-5.4,4.8
		c-9.3,8.2-18.5,16.3-27.8,24.5c-2.5,2.2-5,4.4-7.4,6.5c-10.1,8.9-20.2,17.8-30.4,26.8c-1.6,1.4-3.2,2.8-4.8,4.2
		c-2.2,2-4.4,3.9-6.6,5.9s-4.4,4-6.6,6l-2.9,0.1c0,0-2.9-29.2-3.6-60c-0.1-4.2-0.2-8.4-0.2-12.5l-7.7,9.4l-0.5,0.6l-5.1,6.1
		l-20.2,24.4l-14.8-7.8c-4.8-2.6-9.9-5.2-13.5-7.1c-2-1-3.5-1.8-4.3-2.3l-0.7-0.4c1.1-2.4,2.3-4.6,3.6-6.9c0.7-1.3,1.5-2.7,2.4-4.3
		l0,0c1.1-2,2.4-4.3,3.8-6.7c2.1-3.7,4.3-7.7,6.7-11.9l0,0c3.2-5.6,6.5-11.5,9.8-17.3l0,0c4.4-7.6,8.6-15.1,12.2-21.3
		c3.9-6.8,7-12.2,8.6-14.9c0.4-0.6,0.7-1.1,0.9-1.5l2.8-4.6c3.3-5.5,6.8-11.1,11.1-15.7c0.3-0.3,0.6-0.7,1-1
		c6.7-6.8,15-11.6,24-15.2c4.2-1.6,8.4-3,12.7-4.1h0.2c3.3-0.8,6.6-1.6,9.8-2.1c0.8-0.1,1.6-0.3,2.3-0.4l1.4-0.2
		c3.1-0.6,6.3-1.1,9.5-1.5c2.3-0.3,4.6-0.5,6.9-0.7c3.4-0.2,6.9-0.3,10.3-0.1c3.8,0.2,7.7,0.9,11.4,1.9c4.4,1.3,8.7,3.2,12.5,5.8
		c1,0.7,2.1,1.4,3.3,2.1l0,0c3.1,1.9,6.5,4,9.8,6.3c2.8,1.9,5.5,4,8,6.3c2.2,1.9,4.1,4.1,5.7,6.5c1.7,2.4,2.8,5.1,3.5,8l0,0
		C389.9,269.3,390,271.2,389.9,273.1z"></path><path class="st1" d="M233.9,279.8c-0.1,0-0.2,0-0.4-0.1c-0.3-0.2-0.4-0.6-0.3-1c0.6-1.1,15.4-26.8,24.1-32.6
		c8.6-5.9,36.4-11.1,37.5-11.4c0.4-0.1,0.7,0.2,0.8,0.6c0.1,0.4-0.2,0.7-0.5,0.8c0,0,0,0,0,0c-0.3,0.1-28.6,5.4-37,11.1
		s-23.5,31.9-23.7,32.2C234.4,279.6,234.2,279.8,233.9,279.8z"></path><path class="st0" d="M215.7,207.1l2.4,29.2c0,0-2.6,16.3-20.8,13.6S173,227.9,173,227.9l-6-45.6c0,0,12.5-8.2,6-36.5
		c0,0,20.6,7.9,46.7,2.1c0,0,10.9,30.2,10.1,44.2S215.7,207.1,215.7,207.1z"></path><path class="st1" d="M201.1,251c-1.3,0-2.6-0.1-3.9-0.3c-18.4-2.7-24.9-22.4-24.9-22.6l-6-45.7c0-0.3,0.1-0.5,0.3-0.7
		c0,0,3-2.1,5.2-7.4c2-5,3.8-14,0.5-28.3c-0.1-0.2,0-0.5,0.2-0.7c0.2-0.2,0.5-0.2,0.7-0.1c0.2,0.1,20.8,7.8,46.3,2.1
		c0.3-0.1,0.7,0.1,0.8,0.4c0.4,1.2,11,30.5,10.1,44.5c-0.8,12.5-11.1,15.1-13.9,15.6l2.3,28.5c0,0.1,0,0.1,0,0.2
		C218.8,236.6,216.3,251,201.1,251z M167.7,182.6l6,45.2c0,0.1,6.3,19,23.8,21.5c16.8,2.4,19.8-11.6,20-13l-2.5-29.1
		c0-0.4,0.3-0.7,0.6-0.8c0.5,0,12.5-1.2,13.4-14.4c0.8-12.6-8.3-39.1-9.8-43.3c-15,3.2-30.6,2.6-45.3-1.9
		C179.3,171.9,169.8,180.9,167.7,182.6L167.7,182.6z"></path><path class="st1" d="M217.2,225.2c-6.5-1.8-12.6-4.9-17.9-9.1c-8.5-6.8-8.2-11.2-8.2-11.2s13.2,5.7,24.7,2.3L217.2,225.2z"></path><path class="st1" d="M217.2,225.9c-0.1,0-0.1,0-0.2,0c-6.6-1.8-12.8-5-18.2-9.2c-8.7-7-8.5-11.6-8.5-11.8c0-0.2,0.1-0.4,0.3-0.6
		c0.2-0.1,0.4-0.1,0.6,0c0.1,0,13.2,5.6,24.2,2.3c0.2-0.1,0.4,0,0.6,0.1c0.2,0.1,0.3,0.3,0.3,0.5l1.5,18c0,0.2-0.1,0.4-0.2,0.6
		C217.5,225.8,217.4,225.9,217.2,225.9z M192,205.9c0.5,1.6,2.1,5.1,7.8,9.6c5,3.9,10.6,6.8,16.7,8.7l-1.4-16.2
		C205.6,210.5,195.4,207.2,192,205.9z"></path><ellipse class="st1" transform="matrix(0.9991 -4.292191e-02 4.292191e-02 0.9991 -7.0041 8.3554)" cx="191.1" cy="167.3" rx="2.3" ry="3.2"></ellipse><ellipse class="st1" transform="matrix(0.105 -0.9945 0.9945 0.105 26.5622 362.853)" cx="214.9" cy="166.7" rx="3.2" ry="2.3"></ellipse><path class="st0" d="M204.1,168.6c0,0,6.6,11.1,4.7,13.8s-8.3,1.9-8.3,1.9"></path><path class="st1" d="M202.6,185.1c-0.7,0-1.4,0-2.1-0.1c-0.4,0-0.7-0.4-0.6-0.8c0,0,0,0,0,0c0.1-0.4,0.4-0.7,0.8-0.6
		c1.7,0.2,6.2,0.3,7.6-1.6c1.1-1.6-2.1-8.6-4.7-13c-0.2-0.3-0.1-0.8,0.2-1c0,0,0,0,0,0c0.3-0.2,0.8-0.1,1,0.2c0,0,0,0,0,0
		c1.1,1.9,6.7,11.7,4.6,14.6C208,184.7,204.7,185.1,202.6,185.1z"></path><path class="st0" d="M174.7,176.8c-0.8-2.4-2.4-4.4-4.5-5.8c-3-2-7-3.4-10.6-2.7s-5.7,4.6-6,8c-0.2,3.2,0.8,6.4,2.7,9
		c4.4,6,12,8.6,18.8,4.8"></path><path class="st1" d="M168.3,192.5c-5.1-0.1-9.8-2.7-12.7-6.9c-2.1-2.7-3.1-6.1-2.8-9.4c0.3-3.7,2.7-7.9,6.6-8.7
		c3.4-0.7,7.5,0.4,11.2,2.8c2.2,1.5,3.9,3.7,4.8,6.2c0.1,0.4-0.1,0.8-0.5,0.9c-0.3,0.1-0.7-0.1-0.8-0.4c-0.8-2.2-2.3-4.2-4.2-5.5
		c-3.3-2.2-7.1-3.2-10.1-2.6c-3.2,0.6-5.2,4.2-5.5,7.4c-0.2,3.1,0.7,6.1,2.6,8.5c4.4,6.1,11.8,8,17.9,4.6c0.3-0.2,0.8,0,0.9,0.3
		c0.1,0.3,0,0.7-0.3,0.9C173.2,191.9,170.8,192.5,168.3,192.5z"></path><path class="st0" d="M355.1,261.2c-1.3,1-2.3,2.3-3,3.8c-0.5,1.5-0.1,3.5,1.4,4.2s3.2-0.2,4.6-1.1l14.8-9.4l-10,8
		c-1.7,1.4-3.6,3.8-2.3,5.5c1.1,1.5,3.4,1,5.1,0.3c5.7-2.4,11-5.7,15.7-9.8l-12.3,10.8c-1.7,1.5-3.4,3.9-2.1,5.6
		c0.7,0.8,1.8,1.2,2.9,1.1c4,0.2,7.8-1.6,10.4-4.6l-4.6,4.7c-0.9,0.9-1.8,2.5-0.9,3.4c0.6,0.4,1.3,0.6,2,0.4c8.2-1,15.8-5.1,21-11.6
		c2.4-2.8,4-6.2,4.7-9.9c1.8-10.9-8.6-21.3-19.5-20.4C373,243,362.1,255.1,355.1,261.2z"></path><path class="st1" d="M376.1,284.7c-0.7,0-1.3-0.2-1.8-0.6c-1.2-1.1-0.4-2.9,0.7-4.1c-1.7,0.6-3.4,0.9-5.2,0.8
		c-1.3,0.1-2.5-0.4-3.3-1.4c-1.6-2,0.1-4.7,2.1-6.5l3.3-2.9c-1.9,1.1-3.9,2.1-6,2.9c-2.7,1.1-4.8,1-5.9-0.5
		c-1.6-2.1,0.2-4.7,2.4-6.4l0.7-0.6l-4.7,3c-1.6,1-3.5,2-5.2,1.2s-2.3-3.3-1.7-5c0.7-1.6,1.8-3,3.2-4c1.2-1,2.5-2.3,3.9-3.6
		c6.7-6.3,15.8-14.8,24.3-15.5c5.8-0.3,11.5,2,15.4,6.4c3.8,3.9,5.6,9.4,4.8,14.8c-0.7,3.7-2.4,7.2-4.8,10.1
		c-5.3,6.6-13,10.8-21.4,11.8C376.6,284.7,376.3,284.7,376.1,284.7z M379.2,277.5l-3.1,3.2c-0.7,0.7-1.5,1.9-0.9,2.5
		c0.5,0.3,1,0.3,1.5,0.2c8.1-0.9,15.5-5,20.5-11.3c2.3-2.7,3.9-6,4.6-9.6c0.7-5-0.9-10-4.5-13.7c-3.6-4.1-8.9-6.3-14.4-6
		c-8,0.6-17,9-23.5,15.2c-1.4,1.3-2.7,2.6-3.9,3.6l0,0c-1.2,0.9-2.2,2.1-2.8,3.5c-0.4,1.2-0.1,2.9,1,3.4s2.7-0.2,4-1.1l14.8-9.4
		c0.3-0.1,0.7,0,0.8,0.3c0.1,0.2,0.1,0.5-0.1,0.7l-10,8c-0.4,0.3-3.5,2.9-2.2,4.7c1,1.3,3.4,0.5,4.3,0.1c5.6-2.4,10.9-5.6,15.5-9.6
		l0,0c0.3-0.2,0.7-0.2,0.9,0.1c0.2,0.3,0.2,0.7-0.1,0.9L369.5,274c-1.6,1.4-3,3.4-2,4.7c0.6,0.6,1.5,0.9,2.4,0.9
		c3.1,0.1,6.1-0.9,8.4-2.9l1.5-1.5c0.2-0.2,0.6-0.2,0.9,0c0.3,0.2,0.3,0.6,0.1,0.9C380.2,276.6,379.7,277.1,379.2,277.5z
		 M355.2,261.2L355.2,261.2z"></path><path class="st1" d="M376.2,280.1c-0.4,0-0.7-0.3-0.7-0.7c0-0.2,0.1-0.4,0.2-0.5c0.1-0.1,9.6-8.8,16.6-15c0.3-0.3,0.7-0.2,1,0.1
		c0.3,0.3,0.2,0.7,0,1c0,0,0,0,0,0c-7,6.2-16.5,14.9-16.6,15C376.5,280.1,376.4,280.1,376.2,280.1z"></path><path class="st0" d="M316.9,367.6c-10.1,8.9-20.2,17.8-30.4,26.8c-1.6,1.4-3.2,2.8-4.8,4.2c-2.2,2-4.4,3.9-6.6,5.9s-4.4,4-6.6,6
		c-5.8,5.3-11.4,10.7-17.1,16c-0.4,0.4-0.9,0.8-1.4,1.3c-2-1.9-3.9-3.7-5.9-5.5c-10.7-10.1-21.5-20.1-32.5-29.9
		c-3.1-2.9-6.3-5.7-9.5-8.5c-4-3.6-8-7.1-12.1-10.7c1.1-3.6,2.2-7.1,3.5-10.4c1.2-3,2.5-6,4-8.9c1.2-2.4,2.6-4.7,4.1-6.9l0,0
		c1-1.5,2.1-2.8,3.3-4.1c1.4-1.5,2.8-2.9,4.3-4.2c4.7-4.2,10-7.7,15.7-10.4c5.5-2.6,11.3-4.5,17.3-5.8c1.6-0.3,3.2-0.6,4.8-0.9l0,0
		c1.7-0.3,3.3-0.5,4.9-0.6c3.5-0.4,7.1-0.6,10.6-0.5c2.6,0,5.1,0.1,7.6,0.3c2.3,0.2,4.4,0.5,6.5,0.8c5.4,0.8,10.7,2.2,15.8,4.3
		c2.3,0.9,4.5,2.2,6.4,3.8c2.1,2.1,3.9,4.5,5.2,7.2c0.9,1.6,1.9,3.4,2.8,5.4c0.5,1,1,2.1,1.5,3.2c1.2,2.8,2.5,5.9,3.8,9.1
		C313.7,358.8,315.3,363.1,316.9,367.6z"></path><path class="st1" d="M250,428.4c-0.2,0-0.3-0.1-0.4-0.2l-2.5-2.3l-3.4-3.2c-10-9.5-20.6-19.2-32.5-29.8c-3.1-2.9-6.3-5.7-9.5-8.5
		c-4-3.6-8-7.1-12.1-10.6c-0.2-0.2-0.3-0.4-0.2-0.7c1.1-3.6,2.3-7.1,3.6-10.5c1.2-3.1,2.5-6.1,4-9c1.2-2.4,2.6-4.7,4.1-6.9v-0.1
		c1-1.5,2.1-2.9,3.4-4.2c1.3-1.4,2.8-2.9,4.4-4.3c4.8-4.2,10.1-7.7,15.9-10.5c5.6-2.6,11.4-4.5,17.4-5.8c1.6-0.3,3.2-0.6,4.8-0.9
		s3.3-0.5,5-0.6c3.5-0.4,7.1-0.6,10.7-0.5c2.6,0,5.1,0.1,7.7,0.4c2.2,0.2,4.5,0.5,6.6,0.8c5.5,0.8,10.8,2.3,15.9,4.4
		c2.4,1,4.6,2.3,6.5,3.9c2.2,2.2,4,4.6,5.4,7.4c0.9,1.5,1.8,3.3,2.8,5.4c0.5,1,1,2.1,1.5,3.2c1.2,2.7,2.5,5.8,3.8,9.1
		c1.4,3.7,3,7.9,4.8,12.9c0.1,0.2,0,0.5-0.2,0.7c-10.2,8.9-20.3,17.8-30.4,26.7l-11.4,10.1c-2.3,2-4.5,4-6.6,6
		c-3.3,3-6.6,6.1-9.9,9.2c-2.4,2.3-4.8,4.5-7.2,6.8l-1.4,1.3C250.3,428.4,250.2,428.4,250,428.4z M190.8,373.1
		c3.9,3.4,7.9,6.9,11.8,10.4c3.2,2.8,6.3,5.6,9.5,8.5c11.9,10.6,22.5,20.4,32.5,29.9l3.4,3.2l2,1.9l1-0.9c2.4-2.3,4.8-4.5,7.2-6.8
		c3.3-3.1,6.6-6.2,9.9-9.2c2.1-1.9,4.3-3.9,6.6-6l11.4-10.1c10-8.8,20-17.7,30-26.5c-1.7-4.8-3.2-8.9-4.6-12.5
		c-1.3-3.3-2.5-6.3-3.8-9c-0.5-1.1-1-2.2-1.5-3.2c-1-2.1-1.9-3.8-2.8-5.4c-1.3-2.6-3-4.9-5.1-7c-1.9-1.5-4-2.8-6.2-3.7
		c-5-2.1-10.2-3.5-15.6-4.3c-2.1-0.3-4.3-0.6-6.5-0.8c-2.5-0.2-5-0.3-7.6-0.3c-3.5,0-7,0.2-10.5,0.5c-1.6,0.2-3.2,0.4-4.9,0.6
		s-3.2,0.5-4.8,0.9c-5.9,1.3-11.7,3.2-17.1,5.7c-5.7,2.6-10.9,6.1-15.6,10.2c-1.5,1.4-3,2.8-4.3,4.2c-1.2,1.3-2.3,2.7-3.3,4.1l0,0
		c0,0,0,0,0,0c-1.5,2.2-2.8,4.4-4,6.7c-1.5,2.9-2.8,5.8-3.9,8.8C193,366.3,191.8,369.7,190.8,373.1z"></path><path class="st0" d="M295.8,322.4c-1.1,0.6-2,1.6-2.7,2.7c-4.1,6.2-7.3,12.9-9.4,20c-0.5,1.6-0.5,3.9,1.1,4.3
		c1.2,0.3,2.2-0.9,2.9-1.9l6-8.8c-2.7,3.6-4.6,7.6-5.8,11.9c-0.3,0.8-0.3,1.6,0,2.4c0.6,0.9,1.7,1.3,2.7,0.9c1-0.4,1.8-1,2.5-1.8
		c2.8-2.9,5.3-6.1,7.3-9.6l-6,12.4c-0.5,1-1,2.5-0.1,3.2c0.4,0.4,1,0.5,1.6,0.5c2.5,0.1,3.5-1.2,5.2-3s4.3-4.2,5.4-6.4l-4.7,8.9
		c-0.7,1.1-1.1,2.3-1.2,3.6c-0.1,1.3,0.8,2.5,2.1,2.8c1,0,2-0.5,2.6-1.2c4.9-4.2,6.2-7.9,9.6-13.5c0.9,2.2,2,4.3,3.4,6.3
		c3.1-5.7,3.8-12.4,2-18.6c-1.6-5.1-5.1-9.5-9.7-12.2C307.2,323.3,299.5,320.7,295.8,322.4z"></path><path class="st1" d="M302.9,365.1h-0.3c-1.6-0.3-2.8-1.8-2.7-3.4c0.1-1.4,0.6-2.7,1.3-3.9l1.7-3.1l-0.2,0.2l-1.2,1.2l-0.4,0.4
		c-1.5,1.6-2.7,2.9-5.3,2.8c-0.7,0-1.4-0.2-2-0.7c-0.9-0.8-0.9-2.2,0-4l2.5-5.2c-0.9,1.1-1.9,2.1-2.8,3.2c-0.7,0.9-1.7,1.6-2.8,2
		c-1.3,0.4-2.8-0.1-3.5-1.2c-0.4-0.9-0.4-1.9,0-2.8c0.2-0.7,0.4-1.5,0.6-2.2c-0.6,0.8-1.8,2.1-3.3,1.8c-0.6-0.1-1.1-0.5-1.5-1.1
		c-0.5-1.3-0.6-2.7-0.1-4c2.2-7.1,5.4-13.9,9.5-20.2c0.7-1.2,1.7-2.2,2.9-2.9l0,0c4.2-1.9,12.3,1.2,15.4,2.9
		c4.8,2.8,8.3,7.3,10,12.6c1.9,6.4,1.1,13.3-2,19.2c-0.1,0.2-0.3,0.3-0.5,0.3c-0.2,0-0.4-0.1-0.5-0.2c-1.2-1.7-2.2-3.4-3-5.3
		c-0.5,0.9-1,1.7-1.4,2.5c-2.1,3.8-3.8,6.8-7.7,10.1C305,364.6,304,365,302.9,365.1z M307,349.7l-4.6,8.7c-0.6,1-1,2.1-1.1,3.3
		c-0.1,1,0.6,1.9,1.5,2.1c0.8,0,1.6-0.4,2.2-1c3.7-3.1,5.3-6.1,7.4-9.8c0.6-1.1,1.3-2.3,2-3.6c0.1-0.2,0.4-0.3,0.6-0.3
		c0.2,0,0.4,0.2,0.5,0.4c0.8,1.8,1.7,3.6,2.7,5.3c2.6-5.4,3.1-11.5,1.5-17.2c-1.6-5-4.9-9.2-9.4-11.8c-3.8-2.1-11.1-4.2-14.3-2.8
		l0,0c-1,0.6-1.8,1.4-2.4,2.4c-4.1,6.1-7.2,12.8-9.4,19.9c-0.4,1-0.4,2,0,3c0.1,0.2,0.4,0.4,0.6,0.5c0.6,0.1,1.4-0.4,2.2-1.6
		l4.2-6.2c0.6-0.9,1.2-1.8,1.8-2.7c0.2-0.3,0.6-0.3,0.9-0.1c0.3,0.2,0.3,0.6,0.1,0.9l-1.8,2.6c-1.7,2.8-3.1,5.9-3.9,9.1
		c-0.2,0.6-0.3,1.3,0,1.9c0.5,0.6,1.3,0.9,2,0.6c0.9-0.4,1.6-0.9,2.2-1.6c2.8-2.9,5.2-6,7.2-9.5c0.2-0.3,0.6-0.4,0.9-0.2
		c0.2,0.2,0.3,0.5,0.2,0.8l-6,12.4c-0.4,0.9-0.8,2-0.2,2.5c0.3,0.2,0.7,0.4,1.1,0.4c2,0.1,2.9-0.8,4.3-2.4l0.4-0.4
		c0.4-0.4,0.8-0.8,1.2-1.2c1.5-1.4,2.9-3.1,4-4.8l0.1-0.3c0.2-0.3,0.6-0.4,0.9-0.3c0.3,0.2,0.4,0.5,0.3,0.8c0,0,0,0,0,0
		C307,349.5,307,349.6,307,349.7z M295.8,322.4L295.8,322.4z"></path><path class="st1" d="M289.2,347.2c-0.1,0-0.2,0-0.3-0.1c-0.3-0.1-0.5-0.5-0.4-0.9c0.2-0.4,6.9-12.4,10.1-15.6c0.3-0.3,0.7-0.3,1,0
		c0,0,0,0,0,0c0.3,0.3,0.3,0.7,0,1c0,0,0,0,0,0c-3.1,3.1-9.6,14.7-9.9,15.2C289.8,347.1,289.5,347.3,289.2,347.2z"></path><path class="st1" d="M295.1,352.2c-0.4,0-0.7-0.3-0.7-0.7c0-0.1,0-0.2,0.1-0.3c2.3-4.6,10.3-16.5,10.7-17c0.2-0.3,0.6-0.4,1-0.2
		c0.3,0.2,0.4,0.6,0.2,1c0,0,0,0,0,0.1c-0.1,0.1-8.3,12.2-10.6,16.8C295.6,352.1,295.3,352.2,295.1,352.2z"></path><path class="st1" d="M301.8,358.8c-0.4,0-0.7-0.3-0.7-0.7c0-0.1,0-0.1,0-0.2c1.8-5.6,4.8-10.8,8.8-15.2c0.3-0.2,0.7-0.2,1,0.1
		c0.2,0.2,0.2,0.6,0,0.8c-0.1,0.1-6.1,6.6-8.5,14.7C302.4,358.5,302.1,358.7,301.8,358.8z"></path><path class="st1" d="M362.9,267.3c-0.4,0-0.7-0.3-0.7-0.7c0-0.2,0.1-0.4,0.2-0.5c0.1-0.1,10.3-8.9,19.2-15.1c0.3-0.2,0.7-0.2,1,0.1
		c0,0,0,0,0,0.1c0.2,0.3,0.2,0.7-0.1,1c0,0,0,0,0,0c-8.9,6.2-19,15-19.1,15C363.2,267.3,363.1,267.4,362.9,267.3z"></path><path class="st1" d="M369.5,272.7c-0.2,0-0.4-0.1-0.5-0.2c-0.2-0.3-0.2-0.8,0.1-1c0,0,0,0,0,0c0.1-0.1,12.8-10.5,20.5-15.2
		c0.4-0.2,0.8,0,0.9,0.3c0.1,0.3,0,0.6-0.2,0.8c-7.7,4.7-20.3,15-20.4,15.1C369.8,272.6,369.6,272.7,369.5,272.7z"></path><path class="st1" d="M125.7,317.5c-0.4,0-0.7-0.3-0.7-0.7c-0.3-11.6-0.1-22.5,0-30.5c0.1-6.3,0.2-10.9,0-12
		c-0.1-0.4,0.1-0.7,0.5-0.8c0,0,0,0,0,0c0.4-0.1,0.7,0.2,0.8,0.5c0,0,0,0,0,0c0.3,1.3,0.2,5.7,0.1,12.3c-0.2,8-0.3,18.9,0,30.5
		C126.4,317.3,126.1,317.6,125.7,317.5L125.7,317.5z"></path><path class="st1" d="M167.6,320.2c-0.1,0-0.2,0-0.3,0l-16.1-6.8c-0.3-0.1-0.4-0.4-0.4-0.6v-32.3c0-0.4,0.3-0.7,0.7-0.7c0,0,0,0,0,0
		h32.2c0.4,0,0.7,0.3,0.7,0.7l0,0v32.3c0,0.3-0.2,0.5-0.4,0.6l-16.1,6.8C167.8,320.2,167.7,320.2,167.6,320.2z M152.2,312.2
		l15.4,6.5l15.4-6.5v-31.1h-30.8L152.2,312.2z M183.7,312.7L183.7,312.7z"></path><path class="st0" d="M309.2,219.5l-1,26.5c0,0-0.1,16.5,16.6,11.8s22.2-19.7,22.2-19.7l-2-47.5c-0.1-2-0.9-21.6-0.6-39.1
		c-20.3-0.3-38.4-2-38.4-2c2,2-5.2,2.3-5.2,2.3c-3.3,0-6.5,0.5-9.6,1.5c-1.2,11.7-4.3,24.4-4,36c0.1,6.9,0.7,13.8,2.1,20.7
		C292,223,309.2,219.5,309.2,219.5z"></path><path class="st1" d="M319.3,259.4c-2.5,0.1-4.9-0.7-6.9-2.1c-4.9-3.7-4.9-10.9-4.9-11.2l1-25.8c-3.5,0.5-17.4,1.6-19.9-10.1
		c-1.3-6.8-2-13.8-2.1-20.8c-0.2-7.5,1.1-15.6,2.3-23.3c0.7-4.2,1.3-8.6,1.8-12.8c0-0.2,0.2-0.5,0.4-0.5c3.2-1,6.5-1.5,9.8-1.5
		c2.4-0.1,4.6-0.6,4.9-1c-0.1-0.1-0.1-0.1-0.1-0.2c-0.2-0.2-0.2-0.5-0.1-0.7c0.1-0.2,0.4-0.4,0.6-0.4c0.2,0,18.3,1.7,38.4,2
		c0.2,0,0.3,0.1,0.5,0.2c0.1,0.1,0.2,0.3,0.2,0.5c-0.3,15.2,0.3,32.2,0.6,38.8v0.3l1.9,47.5c0,0.1,0,0.2,0,0.2
		c-0.1,0.2-5.8,15.4-22.6,20.1C323.1,259.1,321.2,259.3,319.3,259.4z M309.2,218.9c0.2,0,0.3,0.1,0.4,0.2c0.1,0.1,0.2,0.3,0.2,0.5
		l-1,26.5c0,0,0,6.8,4.4,10.1c2.7,2.1,6.5,2.4,11.4,1.1c15.4-4.3,21.1-17.8,21.7-19.2c-1.9-47.4-1.9-47.4-1.9-47.4v-0.2
		c-0.3-6.5-0.9-23.1-0.6-38.2c-17.1-0.3-32.7-1.6-36.8-1.9c0,0.1,0,0.2-0.1,0.3c-0.5,1.4-4,1.8-6.1,1.9c-3,0-6.1,0.4-9,1.3
		c-0.4,4.1-1.1,8.3-1.7,12.4c-1.2,7.7-2.4,15.7-2.3,23.1c0.1,6.9,0.7,13.8,2,20.6c1,5.1,4.5,8.1,10.4,9.1
		C303.2,219.4,306.2,219.4,309.2,218.9L309.2,218.9z"></path><path class="st0" d="M312.5,179.2c0,0-8.8,13.2-6.7,15.5s8,0.8,8,0.8"></path><path class="st1" d="M309.8,196.6c-1.7,0-3.5-0.3-4.6-1.5c-2.3-2.5,4.5-13.1,6.7-16.3c0.2-0.3,0.6-0.4,1-0.2c0.3,0.2,0.4,0.6,0.2,1
		c0,0,0,0,0,0.1c-4.1,6.1-7.8,13.5-6.8,14.6c1.5,1.6,5.8,1,7.3,0.6c0.4-0.1,0.8,0.1,0.9,0.5c0.1,0.4-0.1,0.7-0.5,0.8c0,0,0,0,0,0
		C312.6,196.4,311.2,196.6,309.8,196.6z"></path><ellipse class="st1" transform="matrix(3.925982e-02 -0.9992 0.9992 3.925982e-02 112.8678 473.4358)" cx="302.6" cy="178" rx="2.9" ry="1.5"></ellipse><ellipse class="st1" transform="matrix(3.925982e-02 -0.9992 0.9992 3.925982e-02 132.1469 495.7688)" cx="323.9" cy="179.2" rx="2.9" ry="1.5"></ellipse><path class="st0" d="M304.4,168l1.7-5.8l3.1,5.9l17.3,1.8l3.3-7.6l1.3,9.3l8.8-0.8c0,0-8.6,43.6-3.2,68.6l36.5,1.3V234l4.4,6.6
		c0,0,10.4,2.9,21.4-8.2c0,0-23.3-47.2-26.4-67.3s-7.5-36.7-32.9-41.4s-42,1.4-52.4,14.6s-7,28.7-7,28.7S299.3,168.4,304.4,168z"></path><path class="st1" d="M380.9,241.7c-1.2,0-2.4-0.1-3.6-0.4c-0.2,0-0.3-0.2-0.4-0.3l-3.1-4.7v4.3c0,0.2-0.1,0.4-0.2,0.5
		c-0.1,0.1-0.3,0.2-0.5,0.2l-36.5-1.3c-0.3,0-0.6-0.2-0.7-0.6c-4.9-22.9,1.9-61.6,3-68l-7.9,0.7c-0.4,0-0.7-0.2-0.8-0.6l-0.9-6.8
		l-2.3,5.3c-0.1,0.3-0.4,0.4-0.7,0.4l-17.3-1.8c-0.2,0-0.4-0.2-0.5-0.4l-2.3-4.4l-1.3,4.2c-0.1,0.3-0.3,0.5-0.6,0.5
		c-5,0.5-23.5-0.9-24.3-0.9c-0.3,0-0.6-0.2-0.6-0.6c0-0.2-3.4-16,7.1-29.3c11.2-14.3,29.1-19.3,53-14.8
		c25.6,4.8,30.3,21.9,33.5,42.1c3.1,19.7,26.1,66.6,26.3,67.1c0.1,0.3,0.1,0.6-0.1,0.8C392,240.4,385,241.7,380.9,241.7z M377.9,240
		c1.6,0.3,10.6,1.6,20.1-7.7c-2.4-4.9-23.3-48.1-26.2-67c-3.2-20.4-7.6-36.3-32.4-40.9c-23.7-4.4-40.6,0.3-51.7,14.3
		c-9,11.4-7.4,24.9-6.9,27.6c3,0.2,18,1.2,23,0.9l1.6-5.3c0.1-0.3,0.3-0.5,0.6-0.5c0.3,0,0.6,0.1,0.7,0.4l3,5.6l16.4,1.7l3.1-7.2
		c0.2-0.4,0.6-0.5,0.9-0.4c0.2,0.1,0.4,0.3,0.4,0.5l1.2,8.6l8.1-0.7c0.2,0,0.4,0.1,0.6,0.2c0.1,0.2,0.2,0.4,0.2,0.6
		c-0.1,0.4-8.4,43.1-3.3,67.8l35.2,1.3V234c0-0.3,0.2-0.6,0.5-0.7c0.3-0.1,0.6,0,0.8,0.3L377.9,240z M304.4,168L304.4,168z"></path><path class="st0" d="M300.9,204.2c0,0,15.3,12.6,24.6-5.4"></path><path class="st1" d="M312.2,209.2c-6.3,0-11.5-4.2-11.8-4.4c-0.3-0.2-0.3-0.7-0.1-1c0,0,0,0,0,0c0.2-0.3,0.7-0.4,1-0.1c0,0,0,0,0,0
		c0.1,0.1,6.5,5.3,13.3,3.9c4.1-0.8,7.5-3.9,10.2-9.1c0.2-0.3,0.6-0.5,1-0.3c0.3,0.2,0.5,0.6,0.3,0.9l0,0c-2.9,5.6-6.6,8.9-11.2,9.8
		C314,209.1,313.1,209.2,312.2,209.2z"></path><path class="st0" d="M192.2,191.9c0,0,11.4,14.1,23.8-2.1L192.2,191.9z"></path><path class="st1" d="M203.4,198.2c-6.8,0-11.5-5.7-11.7-6c-0.2-0.3-0.2-0.7,0.1-1c0.1-0.1,0.2-0.1,0.4-0.2L216,189
		c0.3,0,0.5,0.1,0.7,0.4c0.1,0.2,0.1,0.5-0.1,0.8c-4,5.3-8.4,8-13,8.1L203.4,198.2z M193.7,192.4c1.6,1.6,5.3,4.5,9.8,4.4
		c3.8,0,7.5-2.2,10.9-6.3L193.7,192.4z"></path><path class="st1" d="M309.2,219.5c0,0,13.5-2.9,18.7-7.6c0,0-5,19.4-19.5,27.9L309.2,219.5z"></path><path class="st1" d="M308.4,240.6c-0.1,0-0.2,0-0.4-0.1c-0.2-0.1-0.4-0.4-0.3-0.6l0.8-20.3c0-0.3,0.2-0.6,0.5-0.7
		c0.1,0,13.4-2.9,18.4-7.4c0.3-0.3,0.7-0.2,1,0.1c0.1,0.2,0.2,0.4,0.2,0.6c-0.2,0.8-5.2,19.7-19.8,28.3
		C308.6,240.5,308.5,240.6,308.4,240.6z M309.8,220.1l-0.7,18.5c10.6-6.9,15.7-19.7,17.4-24.7C321.2,217.3,312.1,219.6,309.8,220.1z
		"></path><path class="st0" d="M221.7,279c0,0-7.6,50-13,61.2l44.8-1.6l-5.5-67.7L221.7,279z"></path><path class="st1" d="M208.7,340.9c-0.2,0-0.5-0.1-0.6-0.3c-0.1-0.2-0.1-0.5,0-0.7c5.4-11,12.9-60.5,13-61c0-0.3,0.2-0.5,0.5-0.6
		l26.3-8.1c0.2-0.1,0.4,0,0.6,0.1c0.2,0.1,0.3,0.3,0.3,0.5l5.5,67.7c0,0.2,0,0.4-0.2,0.5c-0.1,0.1-0.3,0.2-0.5,0.2l-44.8,1.6
		L208.7,340.9z M222.3,279.5c-0.8,5.1-7.4,47.6-12.5,59.9l42.9-1.5l-5.4-66.1L222.3,279.5z"></path><path class="st0" d="M240.8,334.9l-0.7,16.8c0,0,2.3,4.9,16.1,1.1c13.8-3.9,13.7-10.3,13.7-10.3s0.5-31.3,0.5-31.3
		c-0.1-1.7-0.8-17.8-0.5-32.2c-16.7-0.3-31.7-1.7-31.7-1.7c1.6,1.6-4.3,1.9-4.3,1.9c-2.7,0-5.4,0.4-7.9,1.2
		c-1,9.6-5.8,36.3-4.7,41.9C223.6,332.8,240.8,334.9,240.8,334.9z"></path><path class="st1" d="M247.1,354.8c-6.1,0-7.5-2.7-7.6-2.9c0-0.1-0.1-0.2-0.1-0.3l0.6-16.2c-3.1-0.5-17.4-3.1-19.4-13.1
		c-0.8-3.9,1.1-17.1,2.9-28.8c0.8-5.3,1.5-10.2,1.8-13.3c0-0.2,0.2-0.5,0.4-0.5c2.6-0.8,5.4-1.3,8.1-1.2c1.3,0,2.7-0.2,3.9-0.8v0
		c-0.2-0.2-0.2-0.5-0.1-0.7c0.1-0.2,0.4-0.4,0.6-0.4c0.1,0,15.1,1.4,31.6,1.7c0.3,0,0.6,0.3,0.6,0.6c0,0,0,0,0,0
		c-0.2,12.5,0.2,26.5,0.5,31.9v0.3c0,0,0,0-0.5,31.4c0,0.3-0.1,6.9-14.1,10.9C253.4,354.2,250.3,354.7,247.1,354.8z M240.8,351.4
		c0.5,0.6,3.5,3.9,15.2,0.6c13-3.6,13.2-9.6,13.2-9.6s0.5-31.1,0.5-31.3v-0.2c-0.2-5.4-0.7-19-0.5-31.4c-13.9-0.2-26.6-1.3-30.1-1.6
		c0,0.1,0,0.1,0,0.2c-0.4,1.1-3,1.5-5.1,1.6c-2.5,0-5,0.3-7.4,1c-0.3,3.1-1,7.9-1.8,13c-1.6,11-3.6,24.6-2.9,28.3
		c2.1,10.1,18.8,12.1,18.9,12.2c0.3,0,0.6,0.3,0.6,0.7L240.8,351.4z"></path><path class="st0" d="M241.9,306c-1.8,3.2-3.6,7-2.6,8c1.7,1.9,6.6,0.6,6.6,0.6"></path><path class="st1" d="M242.6,315.7c-1.4,0.1-2.8-0.3-3.9-1.3c-0.7-0.8-1.1-2.5,2.5-8.8c0.2-0.3,0.6-0.5,0.9-0.3c0,0,0,0,0,0
		c0.3,0.2,0.5,0.6,0.3,1c0,0,0,0,0,0c-3.5,6.2-2.7,7.2-2.7,7.2c1.2,1.3,4.7,0.7,5.9,0.4c0.4-0.1,0.8,0.1,0.9,0.4
		c0.1,0.4-0.1,0.8-0.4,0.9c0,0-0.1,0-0.1,0C244.9,315.6,243.8,315.7,242.6,315.7z"></path><path class="st0" d="M262.4,343.6v-1.2h50.9c-4.5-9.5-18.1-38.6-20.3-52.4c-2.6-16.5-6.2-30.3-27.1-34.2s-34.6,1.2-43.2,12
		s-5.8,23.7-5.8,23.7s15.8,1.2,19.9,0.8l1.4-4.8l2.6,4.9l14.3,1.5l2.7-6.3l1,7.6l7.2-0.6C266.1,294.5,260.5,322.8,262.4,343.6z"></path><path class="st1" d="M262.4,344.3c-0.4,0-0.7-0.3-0.7-0.6c-1.6-18.6,2.6-43.3,3.6-48.3l-6.3,0.5c-0.4,0-0.7-0.2-0.8-0.6l-0.7-5.1
		l-1.7,4c-0.1,0.3-0.4,0.5-0.7,0.4l-14.3-1.5c-0.2,0-0.4-0.2-0.5-0.4l-1.8-3.4l-0.9,3.2c-0.1,0.3-0.3,0.5-0.6,0.5
		c-4.2,0.4-19.4-0.7-20-0.8c-0.3,0-0.6-0.2-0.6-0.5c-0.1-0.5-2.8-13.3,5.9-24.3c9.3-11.8,24.1-16,43.9-12.3
		c21.2,3.9,25.1,18.1,27.7,34.8c2.1,13.7,16,43.4,20.2,52.2c0.2,0.3,0,0.8-0.3,0.9c-0.1,0-0.2,0.1-0.3,0.1h-50.2v0.5
		C263.1,344,262.8,344.3,262.4,344.3L262.4,344.3z M262.9,341.7h49.2c-4.7-9.9-17.8-38.1-19.9-51.6c-2.6-16.8-6.2-29.9-26.6-33.6
		c-19.5-3.6-33.4,0.2-42.5,11.8c-7.3,9.3-6.1,20.1-5.7,22.6c2.7,0.2,14.7,1,18.8,0.8l1.3-4.3c0.1-0.3,0.3-0.5,0.6-0.5
		c0.3,0,0.6,0.1,0.7,0.4l2.4,4.5l13.4,1.4l2.5-5.8c0.1-0.4,0.6-0.5,0.9-0.4c0.2,0.1,0.4,0.3,0.4,0.6l0.9,7l6.6-0.6
		c0.2,0,0.4,0.1,0.6,0.2c0.1,0.2,0.2,0.4,0.2,0.6C266.8,295,261.6,321.5,262.9,341.7z"></path><path class="st1" d="M242.9,323.3h-0.7c-6.3-0.4-10.6-6.2-10.7-6.5c-0.2-0.3-0.1-0.8,0.2-1c0.3-0.2,0.7-0.1,0.9,0.2
		c0,0.1,4,5.6,9.7,5.9c3.4,0.2,6.7-1.5,10-5c0.3-0.2,0.7-0.2,1,0.1c0.2,0.2,0.2,0.6,0,0.8C250,321.5,246.5,323.3,242.9,323.3z"></path><path class="st1" d="M240.8,334.9c0,0,11.2,0.1,15.4-3.7c0,0-4.1,5.4-16.1,12.5L240.8,334.9z"></path><path class="st1" d="M240.1,344.3c-0.1,0-0.3,0-0.4-0.1c-0.2-0.1-0.3-0.4-0.3-0.6l0.7-8.8c0-0.4,0.3-0.6,0.6-0.7c0,0,0,0,0.1,0
		c0.1,0,11,0.1,14.9-3.5c0.3-0.2,0.8-0.1,1,0.2c0.2,0.2,0.2,0.5,0,0.8c-0.2,0.2-4.4,5.6-16.3,12.6
		C240.4,344.3,240.3,344.3,240.1,344.3z M241.5,335.5l-0.5,6.8c4.1-2.4,8-5.3,11.6-8.4C248.9,335,245.2,335.5,241.5,335.5
		L241.5,335.5z"></path><path class="st1" d="M237.8,302.3c-0.3,0-0.5-0.1-0.6-0.4c-0.7-1.3-1.8-2.8-3.1-2.9c-1.6-0.1-2.9,1.8-2.9,1.8
		c-0.2,0.3-0.6,0.4-0.9,0.2c0,0,0,0-0.1,0c-0.3-0.2-0.4-0.6-0.2-1c0,0,0,0,0,0c0.1-0.1,1.8-2.6,4.1-2.5c1.6,0.1,3.1,1.3,4.3,3.6
		c0.2,0.3,0.1,0.8-0.3,1C238,302.2,237.9,302.2,237.8,302.3z"></path><path class="st1" d="M255.4,302.3c-0.3,0-0.5-0.1-0.6-0.4c-0.7-1.3-1.8-2.8-3.1-2.9h-0.1c-1.5,0-2.8,1.8-2.8,1.8
		c-0.2,0.3-0.7,0.4-1,0.1c-0.3-0.2-0.4-0.6-0.2-0.9c0.1-0.1,1.8-2.6,4.1-2.5c1.6,0.1,3.1,1.3,4.3,3.6c0.2,0.3,0,0.8-0.3,1
		C255.7,302.2,255.5,302.3,255.4,302.3z"></path><path class="st1" d="M286.6,395c-0.4,0-0.7-0.3-0.7-0.6l-3.2-29.9c0-0.4,0.2-0.7,0.6-0.8c0.4,0,0.7,0.2,0.8,0.6l3.2,29.9
		C287.3,394.6,287,395,286.6,395L286.6,395z"></path><path class="st1" d="M211.6,393.1h-0.1c-0.4-0.1-0.6-0.4-0.6-0.8c0,0,0,0,0,0l6.3-32.2c0.1-0.4,0.4-0.6,0.8-0.6c0,0,0,0,0,0
		c0.4,0.1,0.6,0.4,0.6,0.8l-6.3,32.2C212.3,392.9,212,393.1,211.6,393.1z"></path><path class="st1" d="M352.2,337.2H352l-41.6-11.3c-0.4-0.1-0.6-0.5-0.5-0.9c0,0,0,0,0,0c0.1-0.4,0.5-0.6,0.9-0.5l41.6,11.4
		c0.4,0.1,0.6,0.5,0.5,0.9C352.8,337,352.5,337.3,352.2,337.2z"></path><path class="st1" d="M324.4,361.7c-0.2,0-0.3-0.1-0.5-0.2l-6-5c-0.3-0.2-0.3-0.7-0.1-1c0,0,0,0,0,0c0.3-0.3,0.7-0.3,1-0.1l6,5
		c0.3,0.3,0.3,0.7,0.1,1C324.8,361.6,324.6,361.7,324.4,361.7z"></path><path class="st1" d="M351.9,334.9h-0.1c-0.4-0.1-0.6-0.5-0.5-0.8l11-50.1c0.1-0.4,0.5-0.6,0.8-0.5s0.6,0.5,0.5,0.8l0,0l-11,50
		C352.5,334.6,352.3,334.9,351.9,334.9z"></path><path class="st1" d="M170.9,265.1c-0.9-0.1-1.7-0.6-2.2-1.3c-4-4.6-11.6-28.3-10.1-33.7s7.7-9.2,8-9.4c0.3-0.2,0.8-0.2,1,0.2
		s0.2,0.8-0.2,1c0,0-0.1,0-0.1,0.1c-0.1,0-6,3.8-7.4,8.6c-1.2,4.2,5.3,27.2,9.8,32.4c0.7,0.8,1.1,0.9,1.2,0.8
		c3.5-0.5,20-10.5,26-14.3c0.3-0.2,0.8-0.1,1,0.2c0,0,0,0,0,0c0.2,0.3,0.1,0.7-0.2,1c0,0,0,0-0.1,0c-0.9,0.6-22.1,13.9-26.6,14.5
		L170.9,265.1z"></path><path class="st1" d="M219.5,260.2c-5.3,0-14.6-7.2-15.8-8.1c-0.3-0.2-0.4-0.7-0.1-1c0,0,0,0,0,0c0.2-0.3,0.7-0.4,1-0.1c0,0,0,0,0,0
		c4.9,3.8,13.5,9.2,16.2,7.5c3.2-2.1,12.2-18.8,13.2-27c0.3-2.1-0.1-3.1-0.4-3.4c-3.7-4.1-9.3-9-9.4-9c-0.3-0.2-0.3-0.7-0.1-1
		c0,0,0,0,0,0c0.3-0.3,0.7-0.3,1-0.1c0.1,0.1,5.7,5,9.5,9.1c0.8,0.9,1.1,2.4,0.8,4.5c-1,8.1-10.1,25.5-13.9,28
		C220.9,260,220.2,260.2,219.5,260.2z"></path><path class="st0" d="M190.1,373.3c-3.5-3.1-7-6.1-10.5-9.2l0.6-7.6l0,0l0.2-3l17.1,0.5h1.2h0.6l0.1,1.6l5.7,27.1"></path><path class="st1" d="M205.2,383.4c-0.3,0-0.6-0.2-0.6-0.5l-5.7-27.1l-0.1-1.1l-17.7-0.5l-0.8,9.7l2,1.7c2.8,2.4,5.5,4.8,8.3,7.2
		c0.2,0.3,0.2,0.7,0,0.9c-0.2,0.2-0.6,0.2-0.8,0c-2.7-2.4-5.5-4.8-8.3-7.2l-2.2-1.9c-0.2-0.1-0.2-0.3-0.2-0.5l0.9-10.6
		c0-0.3,0.3-0.6,0.7-0.6l18.9,0.5c0.3,0,0.6,0.3,0.6,0.6l0.1,1.6l5.7,27c0.1,0.3-0.1,0.7-0.5,0.8L205.2,383.4z"></path><path class="st0" d="M201.6,335.2c-0.2-1.3-0.9-2.5-1.8-3.4c-0.4-0.4-1.1-0.5-1.6-0.2c-0.4,0.3-0.7,0.8-0.8,1.4
		c-0.5,2.6-0.8,5.3-0.9,8c-0.3-2.2-0.3-4.4,0-6.5c0.3-2.4-0.1-5.2-0.1-7.6c0-1.2,0-3.1-1.1-4c-2.4-1.8-3.1,4.6-3.4,5.8
		c-0.5,3-0.7,6.1-0.4,9.2c-0.2-2.5-0.4-4.9-0.6-7.4c-0.2-2.1,0.1-4-0.4-6.1c-0.1-0.7-0.5-1.3-1.1-1.6c-0.6-0.2-1.3,0.1-1.6,0.6
		c-0.3,0.5-0.6,1.1-0.6,1.8c-0.4,2.1-0.5,4.2-0.6,6.3c0,2.3,0.1,4.6,0.5,6.8c-0.4-4.6-1-9.1-1.3-13.7c0-0.6-0.1-1.1-0.5-1.5
		c-0.7-0.6-1.8-0.5-2.5,0.2c0,0,0,0,0,0c-0.6,0.8-0.9,1.7-0.9,2.6c-0.3,3.9-0.3,7.9,0,11.8l-0.6-6.8c-0.1-0.9-0.1-2.8-1.1-3.2
		c-1-0.2-2,0.2-2.6,1c-0.5,0.9-0.7,1.9-0.6,2.9c-0.3,8.6-0.6,17.6,3.4,25.2c1.5,2.8,3.7,5.5,6.7,6.4c12.7,3.9,15.4-15.7,15-24
		C202,337.8,201.9,336.5,201.6,335.2z"></path><path class="st1" d="M190.2,364.3c-1.1,0-2.3-0.2-3.3-0.5c-3.5-1.1-5.8-4.2-7.1-6.7c-4.2-8-3.8-17.7-3.5-25.5
		c-0.1-1.1,0.2-2.2,0.7-3.2c0.6-0.9,2.2-1.8,3.4-1.3c0.3,0.1,0.5,0.3,0.7,0.5c0-0.6,0.1-1.2,0.2-1.8c0-1.1,0.4-2.1,1.1-3
		c0.5-0.5,1.2-0.9,1.9-0.9l0,0c0.6,0,1.1,0.2,1.5,0.6c0.4,0.6,0.6,1.2,0.6,1.9l0.1,1.4c0-0.3,0.1-0.6,0.1-0.9c0.1-0.7,0.3-1.4,0.7-2
		c0.5-0.8,1.5-1.1,2.4-0.8c0.8,0.4,1.4,1.2,1.5,2.1c0.2,1,0.3,2,0.4,3c0.4-2.5,1.1-4.7,2.4-5.2c0.6-0.2,1.3-0.1,1.8,0.3
		c1.3,1,1.3,3,1.3,4.3v0.2c0,0.8,0.1,1.6,0.1,2.4s0.1,1.5,0.1,2.3c0.2-0.2,0.4-0.4,0.6-0.5c0.8-0.4,1.7-0.3,2.3,0.3
		c1.1,1,1.8,2.3,2,3.7l0,0c0.3,1.3,0.4,2.7,0.5,4.1c0.3,6.9-1.3,18.8-7.1,23.3C194,363.6,192.1,364.3,190.2,364.3z M179.6,328.1
		c-0.6,0.1-1.2,0.4-1.5,0.9c-0.4,0.8-0.6,1.7-0.5,2.6c-0.3,8.1-0.7,17.2,3.4,24.9c1.2,2.2,3.2,5.1,6.4,6.1c2.5,1,5.4,0.5,7.5-1.1
		c5.4-4.2,6.9-15.9,6.6-22.2c0-1.3-0.2-2.6-0.4-3.8l0,0c-0.2-1.1-0.8-2.2-1.6-3c-0.2-0.2-0.6-0.3-0.9-0.2c-0.3,0.1-0.4,0.6-0.5,1
		c-0.5,2.6-0.8,5.3-0.9,7.9c0,0.3-0.3,0.6-0.6,0.6c-0.3,0-0.6-0.2-0.7-0.5c-0.3-2.2-0.3-4.5,0-6.7c0.2-1.7,0.2-3.4,0-5.1
		c-0.1-0.9-0.1-1.7-0.1-2.5v-0.2c0-1.1,0-2.7-0.8-3.3c-0.3-0.3-0.5-0.2-0.6-0.2c-0.5,0.2-1.1,1.2-1.7,5.2l-0.1,0.5
		c-0.5,2.8-0.6,5.7-0.4,8.5v0.5c0,0.3-0.2,0.6-0.6,0.7c0,0,0,0,0,0c-0.3,0-0.6-0.3-0.6-0.6c0-0.2,0-0.4,0-0.5l-0.5-6.9
		c-0.1-0.8-0.1-1.5-0.1-2.2c0.1-1.3-0.1-2.5-0.3-3.8c-0.2-0.7-0.4-1.1-0.7-1.2c-0.4-0.1-0.7,0.1-0.9,0.4c-0.3,0.5-0.4,1-0.5,1.5
		c-0.3,1.9-0.5,4-0.6,6v0.3c0,0.5,0,1.1,0,1.6c0.2,1.7,0.3,3.4,0.5,5.1l0,0c0,0.4-0.2,0.7-0.6,0.7c0,0,0,0,0,0
		c-0.4,0-0.7-0.2-0.7-0.6l0,0c-0.1-0.6-0.1-1.3-0.2-1.9c-0.1-1-0.2-2.1-0.3-3.1l-0.1-1.1c-0.3-2.5-0.5-5-0.7-7.5
		c0-0.4-0.1-0.8-0.3-1.2c-0.1-0.1-0.3-0.2-0.5-0.2c-0.4,0-0.7,0.2-1,0.4c-0.5,0.7-0.7,1.5-0.8,2.3c-0.3,3.9-0.3,7.8,0,11.7
		c0,0.3-0.2,0.6-0.6,0.7c-0.3,0-0.6-0.2-0.7-0.6c0,0,0,0,0,0l-0.6-7.1c0-0.8-0.1-2.1-0.7-2.4C179.9,328.1,179.8,328.1,179.6,328.1z"></path><path class="st0" d="M196.5,341c0,0-5.9-2.9-8.4,6.5"></path><path class="st1" d="M188.1,348.2h-0.2c-0.3-0.1-0.5-0.4-0.4-0.8c1-3.6,2.6-6,4.7-6.9c1.5-0.6,3.1-0.6,4.6,0
		c0.3,0.2,0.4,0.5,0.3,0.9c-0.2,0.3-0.5,0.4-0.9,0.3l0,0c-1.1-0.5-2.4-0.5-3.5,0c-1.8,0.8-3.1,2.9-4,6.1
		C188.7,348,188.4,348.2,188.1,348.2z"></path><path class="st3" d="M250,404c-10.8,0-19.6-8.2-19.6-18.3s8.8-18.3,19.6-18.3c10.8,0,19.6,8.2,19.6,18.3S260.8,404,250,404z
		 M250,368.8c-10,0-18.2,7.6-18.2,16.9s8.2,16.9,18.2,16.9s18.2-7.6,18.2-16.9S260,368.8,250,368.8z"></path></g></svg>